%FSLAX24Y24*%
%MOIN*%
G70*
G01*
G75*
%ADD10C,0.0130*%
%ADD11R,0.0620X0.0200*%
%ADD12R,0.0200X0.0620*%
%ADD13R,0.1575X0.0984*%
%ADD14R,0.0500X0.0600*%
%ADD15R,0.0600X0.0700*%
%ADD16R,0.0320X0.0950*%
%ADD17R,0.0400X0.0400*%
%ADD18R,0.0400X0.0550*%
%ADD19R,0.0600X0.0500*%
%ADD20R,0.0320X0.0900*%
%ADD21R,0.1311X0.1047*%
%ADD22R,0.0300X0.0900*%
%ADD23R,0.0300X0.0300*%
%ADD24R,0.1000X0.1500*%
%ADD25R,0.0900X0.0300*%
%ADD26R,0.0900X0.0500*%
%ADD27R,0.1000X0.0340*%
%ADD28R,0.0500X0.0340*%
%ADD29C,0.0500*%
%ADD30C,0.0200*%
%ADD31C,0.0250*%
%ADD32C,0.0400*%
%ADD33C,0.0120*%
%ADD34C,0.0300*%
%ADD35C,0.0150*%
%ADD36C,0.0600*%
%ADD37C,0.0800*%
%ADD38C,0.0300*%
%ADD39R,0.1000X0.6600*%
%ADD40C,0.0620*%
%ADD41R,0.0700X0.0700*%
%ADD42C,0.0750*%
%ADD43C,0.0700*%
%ADD44O,0.1000X0.0800*%
%ADD45C,0.0100*%
%ADD46C,0.1100*%
%ADD47C,0.0500*%
%ADD48C,0.0400*%
%ADD49C,0.0420*%
%ADD50C,0.0600*%
%ADD51C,0.0800*%
%ADD52R,0.1000X0.3500*%
%ADD53C,0.0100*%
%ADD54C,0.0079*%
%ADD55C,0.0050*%
%ADD56C,0.0080*%
%ADD57C,0.0098*%
%ADD58C,0.0090*%
%ADD59R,0.0700X0.0280*%
%ADD60R,0.0280X0.0700*%
%ADD61R,0.1655X0.1064*%
%ADD62R,0.0580X0.0680*%
%ADD63R,0.0680X0.0780*%
%ADD64R,0.0400X0.1030*%
%ADD65R,0.0480X0.0480*%
%ADD66R,0.0480X0.0630*%
%ADD67R,0.0680X0.0580*%
%ADD68R,0.0400X0.0980*%
%ADD69R,0.1391X0.1127*%
%ADD70R,0.0380X0.0980*%
%ADD71R,0.0380X0.0380*%
%ADD72R,0.1080X0.1580*%
%ADD73R,0.0980X0.0380*%
%ADD74R,0.0980X0.0580*%
%ADD75R,0.1080X0.0420*%
%ADD76R,0.0580X0.0420*%
%ADD77R,0.0780X0.0780*%
%ADD78C,0.0830*%
%ADD79C,0.0780*%
%ADD80O,0.1080X0.0880*%
%ADD81C,0.0180*%
%ADD82C,0.1180*%
%ADD83C,0.0580*%
%ADD84C,0.0480*%
%ADD85C,0.0680*%
%ADD86C,0.0880*%
D35*
X-35700Y15800D02*
X-35100D01*
Y15500D01*
X-35200Y15400D01*
X-35300D01*
X-35400Y15500D01*
Y15800D01*
Y15500D01*
X-35500Y15400D01*
X-35600D01*
X-35700Y15500D01*
Y15800D01*
X-35100Y15200D02*
X-35700D01*
X-35500Y15000D01*
X-35700Y14800D01*
X-35100D01*
Y14600D02*
X-35500D01*
X-35700Y14400D01*
X-35500Y14201D01*
X-35100D01*
X-35400D01*
Y14600D01*
X-35600Y13601D02*
X-35700Y13701D01*
Y13901D01*
X-35600Y14001D01*
X-35500D01*
X-35400Y13901D01*
Y13701D01*
X-35300Y13601D01*
X-35200D01*
X-35100Y13701D01*
Y13901D01*
X-35200Y14001D01*
X-35700Y13401D02*
X-35100D01*
X-35300D01*
X-35700Y13001D01*
X-35400Y13301D01*
X-35100Y13001D01*
D43*
X25800Y7400D02*
D03*
Y1400D02*
D03*
X21300Y7400D02*
D03*
Y1400D02*
D03*
X16800Y7400D02*
D03*
Y1400D02*
D03*
D47*
X20200Y25600D02*
D03*
X16200D02*
D03*
X14600Y22800D02*
D03*
X12600D02*
D03*
X6800Y10600D02*
D03*
X9600Y10800D02*
D03*
X10400Y16900D02*
D03*
X10100Y17700D02*
D03*
X14600Y24800D02*
D03*
X12500D02*
D03*
X11000D02*
D03*
X7100Y25100D02*
D03*
X15000Y25200D02*
D03*
X12900D02*
D03*
X10600D02*
D03*
X7500Y25500D02*
D03*
X15400Y25600D02*
D03*
X13300D02*
D03*
X11000D02*
D03*
X7300Y26000D02*
D03*
X19700Y26500D02*
D03*
X12800Y26800D02*
D03*
X10500D02*
D03*
X7300D02*
D03*
X5200Y25400D02*
D03*
X3550D02*
D03*
X19300Y26000D02*
D03*
X13300Y26400D02*
D03*
X16200Y26650D02*
D03*
X14200D02*
D03*
X7700Y26400D02*
D03*
X11000D02*
D03*
X1500Y21100D02*
D03*
Y20000D02*
D03*
X2900Y8200D02*
D03*
X3500D02*
D03*
X4100D02*
D03*
X3500Y10700D02*
D03*
X3100Y11100D02*
D03*
X4500D02*
D03*
X1000Y10700D02*
D03*
X1100Y16700D02*
D03*
X1600Y10700D02*
D03*
Y14700D02*
D03*
X2200Y10800D02*
D03*
X2100Y16700D02*
D03*
X600Y12600D02*
D03*
Y13700D02*
D03*
Y14700D02*
D03*
X100Y8800D02*
D03*
X-11800Y10600D02*
D03*
Y12600D02*
D03*
X-4600Y13300D02*
D03*
Y12100D02*
D03*
Y9900D02*
D03*
Y7700D02*
D03*
D77*
X32000Y5000D02*
D03*
X-28600Y20000D02*
D03*
X18400Y3000D02*
D03*
X22900D02*
D03*
X27400Y3005D02*
D03*
X24000Y11800D02*
D03*
X28200D02*
D03*
X4600Y3000D02*
D03*
X14200Y28600D02*
D03*
X1000D02*
D03*
X-33000Y14000D02*
D03*
X29000Y21000D02*
D03*
X-13100Y3000D02*
D03*
X-10100D02*
D03*
X-32100D02*
D03*
X-16100D02*
D03*
X10000D02*
D03*
X-6575D02*
D03*
X-20100D02*
D03*
X-23100D02*
D03*
X-26100D02*
D03*
X-29100D02*
D03*
X-19800Y26000D02*
D03*
X8600Y28600D02*
D03*
X-25000Y25000D02*
D03*
X11500Y12200D02*
D03*
X-6000Y16000D02*
D03*
D78*
X32000Y4000D02*
D03*
X-28600Y19000D02*
D03*
X9600Y28600D02*
D03*
X1600Y2000D02*
D03*
X2600Y2000D02*
D03*
X3600Y2000D02*
D03*
X4600D02*
D03*
X600Y2000D02*
D03*
X2600Y3000D02*
D03*
X3600D02*
D03*
X600Y3000D02*
D03*
X1600D02*
D03*
X-33000Y11000D02*
D03*
X-33000Y13000D02*
D03*
X-33000Y12000D02*
D03*
X-10100Y2000D02*
D03*
X-13100D02*
D03*
X17200Y28600D02*
D03*
X-32100Y2000D02*
D03*
X15200Y28600D02*
D03*
X16200Y28600D02*
D03*
X-16100Y2000D02*
D03*
X10000D02*
D03*
X-6575D02*
D03*
X-20100D02*
D03*
X-23100D02*
D03*
X-26100D02*
D03*
X-29100D02*
D03*
X-17800Y26000D02*
D03*
X-15800D02*
D03*
X-16800Y26000D02*
D03*
X-15800Y27000D02*
D03*
X-19800D02*
D03*
X-18800Y26000D02*
D03*
Y27000D02*
D03*
X-16800D02*
D03*
X-17800Y27000D02*
D03*
X10600Y28600D02*
D03*
X6000D02*
D03*
X2000D02*
D03*
X3000Y28600D02*
D03*
X4000D02*
D03*
X5000Y28600D02*
D03*
X18400Y2000D02*
D03*
X22900D02*
D03*
X27400Y2005D02*
D03*
X-25000Y26000D02*
D03*
X11500Y11200D02*
D03*
X-6000Y15000D02*
D03*
D79*
X-9800Y20800D02*
D03*
X6500Y16100D02*
D03*
X-11500Y30000D02*
D03*
X-14700Y24100D02*
D03*
X-16000Y23800D02*
D03*
X16107Y14693D02*
D03*
X15000Y7000D02*
D03*
X29700D02*
D03*
X-8300Y27200D02*
D03*
X24000Y9831D02*
D03*
X28200Y9832D02*
D03*
X15400Y15400D02*
D03*
X16100Y16100D02*
D03*
X27031Y21000D02*
D03*
X-14200Y13600D02*
D03*
X-2300Y8800D02*
D03*
D80*
X32975Y15800D02*
D03*
X31200Y16800D02*
D03*
Y14800D02*
D03*
Y12800D02*
D03*
X32975Y11800D02*
D03*
X31200Y10800D02*
D03*
X32975Y13800D02*
D03*
Y9800D02*
D03*
X31200Y8800D02*
D03*
D81*
X-2500Y2500D02*
D03*
X38100Y27900D02*
D03*
X-38100D02*
D03*
D82*
X25880Y28600D02*
D03*
X24320Y28600D02*
D03*
X22760D02*
D03*
X29000Y28600D02*
D03*
X27440Y28600D02*
D03*
X21200Y28600D02*
D03*
D83*
X22900Y22900D02*
D03*
X29600Y15800D02*
D03*
X-27000Y27600D02*
D03*
X-27500Y27100D02*
D03*
X-26500Y28100D02*
D03*
X-30300Y12100D02*
D03*
X-7600Y11100D02*
D03*
Y10200D02*
D03*
Y12000D02*
D03*
X23600Y14600D02*
D03*
X30400Y26000D02*
D03*
Y25200D02*
D03*
Y26800D02*
D03*
X-20500Y13200D02*
D03*
X-21400Y13300D02*
D03*
X-20400Y12200D02*
D03*
Y11500D02*
D03*
X-25600Y13200D02*
D03*
X-27400D02*
D03*
X-28100D02*
D03*
X-20800Y10800D02*
D03*
X-22600D02*
D03*
X-24600D02*
D03*
X-26600D02*
D03*
X-28100D02*
D03*
Y9700D02*
D03*
X-7600Y8300D02*
D03*
X-8400D02*
D03*
X-2980Y9300D02*
D03*
X-1500Y9500D02*
D03*
X-2300Y9600D02*
D03*
X-600Y8100D02*
D03*
X-1500D02*
D03*
X-2300Y8000D02*
D03*
X-3000Y8300D02*
D03*
X-5200D02*
D03*
X-6000D02*
D03*
X-6800D02*
D03*
X-9200D02*
D03*
X-9900Y9300D02*
D03*
X-9200D02*
D03*
X-8400D02*
D03*
X-7600D02*
D03*
X-6800D02*
D03*
X-6000D02*
D03*
X-5200D02*
D03*
X-1600Y25500D02*
D03*
X-2600Y27200D02*
D03*
X12900Y16800D02*
D03*
X14600D02*
D03*
X15400Y22900D02*
D03*
Y22200D02*
D03*
X9700Y23400D02*
D03*
X10200D02*
D03*
X0Y29200D02*
D03*
X14600Y11900D02*
D03*
Y11300D02*
D03*
X15400Y19400D02*
D03*
X-600Y9500D02*
D03*
X-500Y14150D02*
D03*
X4100Y14700D02*
D03*
X5020Y10300D02*
D03*
X6100Y8100D02*
D03*
X2100Y8200D02*
D03*
X600D02*
D03*
X9800Y9000D02*
D03*
X-8600Y24200D02*
D03*
X-1600Y23200D02*
D03*
Y27600D02*
D03*
Y29200D02*
D03*
X-5220Y27200D02*
D03*
X-8000Y23200D02*
D03*
X-13600Y23600D02*
D03*
X22800Y19700D02*
D03*
X2600Y12700D02*
D03*
X6100D02*
D03*
X-9600Y12100D02*
D03*
X-11600Y15200D02*
D03*
X9900Y27500D02*
D03*
X-13300Y27000D02*
D03*
Y26300D02*
D03*
Y25600D02*
D03*
Y24900D02*
D03*
X-12600D02*
D03*
Y25600D02*
D03*
Y26300D02*
D03*
Y27000D02*
D03*
X-11900D02*
D03*
Y24900D02*
D03*
X9215Y19315D02*
D03*
X-2600Y21500D02*
D03*
X-5900Y19800D02*
D03*
X-2600Y25900D02*
D03*
X-15100Y21600D02*
D03*
X-30100Y5300D02*
D03*
X-27050D02*
D03*
X-24050D02*
D03*
X-21050D02*
D03*
X11850Y5900D02*
D03*
X-26600Y7500D02*
D03*
X-24600D02*
D03*
X-22600D02*
D03*
X-26600Y9700D02*
D03*
X-24600D02*
D03*
X-22600D02*
D03*
X-7700Y14800D02*
D03*
Y15600D02*
D03*
X-8063Y16363D02*
D03*
X-8700Y17000D02*
D03*
X-9398Y17698D02*
D03*
X-10100Y18400D02*
D03*
X-10800Y19100D02*
D03*
X-11500Y19800D02*
D03*
X-12200Y20500D02*
D03*
X-12801Y21101D02*
D03*
X-13300Y21600D02*
D03*
X-14200D02*
D03*
X-18200Y1100D02*
D03*
Y2000D02*
D03*
D03*
D03*
Y3800D02*
D03*
D03*
Y2000D02*
D03*
Y2900D02*
D03*
Y4700D02*
D03*
Y5600D02*
D03*
Y6500D02*
D03*
Y7400D02*
D03*
Y8300D02*
D03*
Y9100D02*
D03*
X-7950Y6675D02*
D03*
X-7700Y13300D02*
D03*
Y14000D02*
D03*
X-12850Y18100D02*
D03*
X-4100Y10400D02*
D03*
Y7300D02*
D03*
D84*
X1100Y14200D02*
D03*
X-17800Y29400D02*
D03*
X19300Y27120D02*
D03*
X15650Y26850D02*
D03*
X12100Y18200D02*
D03*
X19200Y28600D02*
D03*
X11500Y19900D02*
D03*
X17100Y26000D02*
D03*
D85*
X-14750Y12250D02*
D03*
Y11250D02*
D03*
X-15750Y10250D02*
D03*
X-15250Y10750D02*
D03*
X-20750Y9750D02*
D03*
X-20000D02*
D03*
X-19250D02*
D03*
X-18500D02*
D03*
X-17750D02*
D03*
X-17000D02*
D03*
X-16250D02*
D03*
X-15250Y12750D02*
D03*
Y13500D02*
D03*
Y14250D02*
D03*
Y15000D02*
D03*
Y15750D02*
D03*
Y16500D02*
D03*
Y17250D02*
D03*
Y18000D02*
D03*
X-16000Y18250D02*
D03*
X-16750D02*
D03*
X-17500D02*
D03*
X-18250D02*
D03*
X-19000D02*
D03*
X-19750D02*
D03*
X-20500D02*
D03*
X-21500Y16500D02*
D03*
X-22250Y13500D02*
D03*
Y14250D02*
D03*
Y15000D02*
D03*
Y15750D02*
D03*
Y16500D02*
D03*
X-21250Y18250D02*
D03*
X21000Y18500D02*
D03*
Y17750D02*
D03*
X18000D02*
D03*
X21000Y17000D02*
D03*
X20250D02*
D03*
X19500D02*
D03*
X18750D02*
D03*
X18000D02*
D03*
Y18500D02*
D03*
X18750D02*
D03*
X19500D02*
D03*
X20250D02*
D03*
D86*
X-10200Y25900D02*
D03*
M02*
