%FSLAX24Y24*%
%MOIN*%
G70*
G01*
G75*
%ADD10C,0.0130*%
%ADD11R,0.0620X0.0200*%
%ADD12R,0.0200X0.0620*%
%ADD13R,0.1575X0.0984*%
%ADD14R,0.0500X0.0600*%
%ADD15R,0.0600X0.0700*%
%ADD16R,0.0320X0.0950*%
%ADD17R,0.0400X0.0400*%
%ADD18R,0.0400X0.0550*%
%ADD19R,0.0600X0.0500*%
%ADD20R,0.0320X0.0900*%
%ADD21R,0.1311X0.1047*%
%ADD22R,0.0300X0.0900*%
%ADD23R,0.0300X0.0300*%
%ADD24R,0.1000X0.1500*%
%ADD25R,0.0900X0.0300*%
%ADD26R,0.0900X0.0500*%
%ADD27R,0.1000X0.0340*%
%ADD28R,0.0500X0.0340*%
%ADD29C,0.0500*%
%ADD30C,0.0200*%
%ADD31C,0.0250*%
%ADD32C,0.0400*%
%ADD33C,0.0120*%
%ADD34C,0.0300*%
%ADD35C,0.0150*%
%ADD36C,0.0600*%
%ADD37C,0.0800*%
%ADD38C,0.0300*%
%ADD39R,0.1000X0.6600*%
%ADD40C,0.0620*%
%ADD41R,0.0700X0.0700*%
%ADD42C,0.0750*%
%ADD43C,0.0700*%
%ADD44O,0.1000X0.0800*%
%ADD45C,0.0100*%
%ADD46C,0.1100*%
%ADD47C,0.0500*%
%ADD48C,0.0400*%
%ADD49C,0.0420*%
%ADD50C,0.0600*%
%ADD51C,0.0800*%
%ADD52R,0.1000X0.3500*%
%ADD53C,0.0100*%
%ADD54C,0.0079*%
%ADD55C,0.0050*%
%ADD56C,0.0080*%
%ADD57C,0.0098*%
%ADD58C,0.0090*%
D30*
X34500Y18000D02*
Y31000D01*
X-34500Y1000D02*
Y31000D01*
X34500Y1000D02*
Y7600D01*
D33*
X25300Y2400D02*
Y6400D01*
X26300D01*
Y2400D02*
Y6400D01*
X25300Y2400D02*
X26300D01*
X25800Y1800D02*
Y2400D01*
Y6400D02*
Y7000D01*
X20800Y2400D02*
Y6400D01*
X21800D01*
Y2400D02*
Y6400D01*
X20800Y2400D02*
X21800D01*
X21300Y1800D02*
Y2400D01*
Y6400D02*
Y7000D01*
X16300Y2400D02*
Y6400D01*
X17300D01*
Y2400D02*
Y6400D01*
X16300Y2400D02*
X17300D01*
X16800Y1800D02*
Y2400D01*
Y6400D02*
Y7000D01*
X22069Y23687D02*
X22069Y24869D01*
X22069Y22113D02*
X22069Y20931D01*
X18722Y24869D02*
X22069D01*
X18722Y20931D02*
X22069D01*
X18131Y22075D02*
X18132Y21522D01*
X18722Y20931D01*
X18132Y23687D02*
Y24278D01*
X18722Y24869D01*
X16150Y20600D02*
X17050D01*
X16150Y22500D02*
X17050D01*
Y20600D02*
Y21350D01*
X16150Y20600D02*
Y21350D01*
Y21750D02*
Y22500D01*
X17050Y21750D02*
Y22500D01*
X-5175Y28750D02*
X-4975Y28750D01*
X-4625Y27850D02*
X-4575D01*
X-4225Y28750D02*
X-4025Y28750D01*
X-5175Y28300D02*
Y28750D01*
X-4025Y28300D02*
Y28750D01*
X-7200Y5250D02*
X-7000Y5250D01*
X-7600Y6150D02*
X-7550D01*
X-8150Y5250D02*
X-7950Y5250D01*
X-7000Y5250D02*
Y5700D01*
X-8150Y5250D02*
Y5700D01*
X-4025Y21200D02*
Y21650D01*
X-5175Y21200D02*
Y21650D01*
X-4225D02*
X-4025D01*
X-4625Y20750D02*
X-4575D01*
X-5175Y21650D02*
X-4975D01*
X-8975D02*
X-8775D01*
X-8425Y20750D02*
X-8375D01*
X-8025Y21650D02*
X-7825D01*
X-8975Y21200D02*
Y21650D01*
X-7825Y21200D02*
Y21650D01*
X31250Y20500D02*
Y21500D01*
X30750Y21000D02*
X31750D01*
X13350Y18350D02*
Y19100D01*
X12450Y18350D02*
Y19100D01*
Y17200D02*
Y17950D01*
X13350Y17200D02*
Y17950D01*
X12450Y19100D02*
X13350D01*
X12450Y17200D02*
X13350Y17200D01*
X4950Y4500D02*
Y5250D01*
X5850Y4500D02*
Y5250D01*
Y5650D02*
X5850Y6400D01*
X4950D02*
X4950Y5650D01*
Y4500D02*
X5850D01*
X4950Y6400D02*
X5850D01*
X8750Y14200D02*
Y14950D01*
X9650Y14200D02*
Y14950D01*
Y15350D02*
Y16100D01*
X8750Y15350D02*
Y16100D01*
Y14200D02*
X9650D01*
X8750Y16100D02*
X9650Y16100D01*
X-3750Y24500D02*
Y25250D01*
X-2850Y24500D02*
Y25250D01*
Y25650D02*
Y26400D01*
X-3750Y25650D02*
Y26400D01*
Y24500D02*
X-2850D01*
X-3750Y26400D02*
X-2850Y26400D01*
X-2850Y27850D02*
Y28600D01*
X-3750Y27850D02*
Y28600D01*
Y26700D02*
Y27450D01*
X-2850Y26700D02*
Y27450D01*
X-3750Y28600D02*
X-2850D01*
X-3750Y26700D02*
X-2850Y26700D01*
X9950Y14200D02*
Y14950D01*
X10850Y14200D02*
Y14950D01*
Y15350D02*
Y16100D01*
X9950Y15350D02*
Y16100D01*
Y14200D02*
X10850D01*
X9950Y16100D02*
X10850Y16100D01*
X-6350Y24500D02*
Y25250D01*
X-5450Y24500D02*
Y25250D01*
Y25650D02*
Y26400D01*
X-6350Y25650D02*
Y26400D01*
Y24500D02*
X-5450D01*
X-6350Y26400D02*
X-5450Y26400D01*
X-5450Y27850D02*
Y28600D01*
X-6350Y27850D02*
Y28600D01*
Y26700D02*
Y27450D01*
X-5450Y26700D02*
Y27450D01*
X-6350Y28600D02*
X-5450D01*
X-6350Y26700D02*
X-5450Y26700D01*
X-6650Y25650D02*
Y26400D01*
X-7550Y25650D02*
Y26400D01*
Y24500D02*
Y25250D01*
X-6650Y24500D02*
Y25250D01*
X-7550Y26400D02*
X-6650D01*
X-7550Y24500D02*
X-6650Y24500D01*
X-7550Y26700D02*
Y27450D01*
X-6650Y26700D02*
Y27450D01*
Y27850D02*
Y28600D01*
X-7550Y27850D02*
Y28600D01*
Y26700D02*
X-6650D01*
X-7550Y28600D02*
X-6650Y28600D01*
X-12050Y23150D02*
X-11300Y23150D01*
X-12050Y24050D02*
X-11300D01*
X-13200Y24050D02*
X-12450Y24050D01*
X-13200Y23150D02*
X-12450Y23150D01*
X-11300D02*
Y24050D01*
X-13200Y23150D02*
Y24050D01*
X15850Y18350D02*
X15850Y19100D01*
X14950Y18350D02*
X14950Y19100D01*
X14950Y17950D02*
X14950Y17200D01*
X15850Y17950D02*
X15850Y17200D01*
X14950Y19100D02*
X15850Y19100D01*
X14950Y17200D02*
X15850Y17200D01*
X24050Y17950D02*
Y18700D01*
X23150Y17950D02*
Y18700D01*
Y16800D02*
Y17550D01*
X24050Y16800D02*
Y17550D01*
X23150Y18700D02*
X24050D01*
X23150Y16800D02*
X24050Y16800D01*
X-2850Y24200D02*
X-2850Y23450D01*
X-3750D02*
X-3750Y24200D01*
X-3750Y23050D02*
X-3750Y22300D01*
X-2850Y22300D02*
X-2850Y23050D01*
X-3750Y24200D02*
X-2850D01*
X-3750Y22300D02*
X-2850Y22300D01*
X-5450Y21250D02*
Y22000D01*
X-6350Y21250D02*
Y22000D01*
Y20100D02*
Y20850D01*
X-5450Y20100D02*
Y20850D01*
X-6350Y22000D02*
X-5450D01*
X-6350Y20100D02*
X-5450Y20100D01*
X-9650Y5750D02*
Y6500D01*
X-10550Y5750D02*
Y6500D01*
Y4600D02*
Y5350D01*
X-9650Y4600D02*
Y5350D01*
X-10550Y6500D02*
X-9650D01*
X-10550Y4600D02*
X-9650Y4600D01*
X-7550Y20100D02*
Y20850D01*
X-6650Y20100D02*
Y20850D01*
Y21250D02*
Y22000D01*
X-7550Y21250D02*
Y22000D01*
Y20100D02*
X-6650D01*
X-7550Y22000D02*
X-6650Y22000D01*
X-12650Y5750D02*
Y6500D01*
X-13550Y5750D02*
Y6500D01*
Y4600D02*
Y5350D01*
X-12650Y4600D02*
Y5350D01*
X-13550Y6500D02*
X-12650D01*
X-13550Y4600D02*
X-12650Y4600D01*
X-12050Y13000D02*
Y13750D01*
X-11150Y13000D02*
Y13750D01*
Y14150D02*
Y14900D01*
X-12050Y14150D02*
Y14900D01*
Y13000D02*
X-11150D01*
X-12050Y14900D02*
X-11150Y14900D01*
X-15650Y5750D02*
Y6500D01*
X-16550Y5750D02*
Y6500D01*
Y4600D02*
Y5350D01*
X-15650Y4600D02*
Y5350D01*
X-16550Y6500D02*
X-15650D01*
X-16550Y4600D02*
X-15650Y4600D01*
X-12350Y14150D02*
Y14900D01*
X-13250Y14150D02*
Y14900D01*
Y13000D02*
Y13750D01*
X-12350Y13000D02*
Y13750D01*
X-13250Y14900D02*
X-12350D01*
X-13250Y13000D02*
X-12350D01*
X-9950Y14900D02*
X-9950Y14150D01*
X-10850Y14150D02*
Y14900D01*
X-10850Y13750D02*
X-10850Y13000D01*
X-9950Y13750D02*
X-9950Y13000D01*
X-10850Y14900D02*
X-9950D01*
X-10850Y13000D02*
X-9950Y13000D01*
X11650Y5650D02*
Y6400D01*
X10750Y5650D02*
Y6400D01*
Y4500D02*
Y5250D01*
X11650Y4500D02*
Y5250D01*
X10750Y6400D02*
X11650D01*
X10750Y4500D02*
X11650Y4500D01*
X-7950Y11050D02*
Y11800D01*
X-8850Y11050D02*
Y11800D01*
Y9900D02*
Y10650D01*
X-7950Y9900D02*
Y10650D01*
X-8850Y11800D02*
X-7950D01*
X-8850Y9900D02*
X-7950Y9900D01*
X1650Y26150D02*
X2400D01*
X1650Y27050D02*
X2400D01*
X500D02*
X1250D01*
X500Y26150D02*
X1250D01*
X2400D02*
Y27050D01*
X500Y26150D02*
X500Y27050D01*
X5650Y16750D02*
Y17500D01*
X4750Y16750D02*
Y17500D01*
Y15600D02*
Y16350D01*
X5650Y15600D02*
Y16350D01*
X4750Y17500D02*
X5650D01*
X4750Y15600D02*
X5650Y15600D01*
X9250Y5650D02*
Y6400D01*
X8350Y5650D02*
Y6400D01*
Y4500D02*
Y5250D01*
X9250Y4500D02*
Y5250D01*
X8350Y6400D02*
X9250D01*
X8350Y4500D02*
X9250Y4500D01*
X8100Y26850D02*
X8850D01*
X8100Y25950D02*
X8850D01*
X9250D02*
X10000D01*
X9250Y26850D02*
X10000D01*
X8100Y25950D02*
Y26850D01*
X10000Y25950D02*
X10000Y26850D01*
X-30550Y12750D02*
Y13500D01*
X-31450Y12750D02*
Y13500D01*
Y11600D02*
Y12350D01*
X-30550Y11600D02*
Y12350D01*
X-31450Y13500D02*
X-30550D01*
X-31450Y11600D02*
X-30550Y11600D01*
X-150Y10950D02*
Y11700D01*
X-1050Y10950D02*
Y11700D01*
Y9800D02*
Y10550D01*
X-150Y9800D02*
Y10550D01*
X-1050Y11700D02*
X-150D01*
X-1050Y9800D02*
X-150Y9800D01*
X50Y15550D02*
Y16300D01*
X-850Y15550D02*
Y16300D01*
Y14400D02*
Y15150D01*
X50Y14400D02*
Y15150D01*
X-850Y16300D02*
X50D01*
X-850Y14400D02*
X50Y14400D01*
X4950Y6700D02*
Y7450D01*
X5850Y6700D02*
Y7450D01*
Y7850D02*
Y8600D01*
X4950Y7850D02*
Y8600D01*
Y6700D02*
X5850D01*
X4950Y8600D02*
X5850Y8600D01*
X24050Y20350D02*
Y21100D01*
X23150Y20350D02*
Y21100D01*
Y19200D02*
Y19950D01*
X24050Y19200D02*
Y19950D01*
X23150Y21100D02*
X24050D01*
X23150Y19200D02*
X24050Y19200D01*
X22200Y14250D02*
X22950D01*
X22200Y13350D02*
X22950D01*
X23350Y13350D02*
X24100Y13350D01*
X23350Y14250D02*
X24100D01*
X22200Y13350D02*
Y14250D01*
X24100Y13350D02*
Y14250D01*
X-14650Y14500D02*
Y15250D01*
X-13750Y14500D02*
Y15250D01*
Y15650D02*
Y16400D01*
X-14650Y15650D02*
Y16400D01*
Y14500D02*
X-13750D01*
X-14650Y16400D02*
X-13750D01*
X9250Y7950D02*
Y8700D01*
X8350Y7950D02*
Y8700D01*
Y6800D02*
Y7550D01*
X9250Y6800D02*
Y7550D01*
X8350Y8700D02*
X9250D01*
X8350Y6800D02*
X9250Y6800D01*
X-14650Y18200D02*
Y18950D01*
X-13750Y18200D02*
Y18950D01*
X-13750Y20100D02*
X-13750Y19350D01*
X-14650Y20100D02*
X-14650Y19350D01*
X-14650Y18200D02*
X-13750D01*
X-14650Y20100D02*
X-13750Y20100D01*
X10450Y5650D02*
Y6400D01*
X9550Y5650D02*
Y6400D01*
Y4500D02*
Y5250D01*
X10450Y4500D02*
Y5250D01*
X9550Y6400D02*
X10450D01*
X9550Y4500D02*
X10450Y4500D01*
X-23700Y4725D02*
X-23000D01*
X-23700Y5875D02*
X-23000D01*
X-26700Y4725D02*
X-26000D01*
X-26700Y5875D02*
X-26000D01*
X-29700Y4725D02*
X-29000D01*
X-29700Y5875D02*
X-29000D01*
X-20700Y4725D02*
X-20000D01*
X-20700Y5875D02*
X-20000D01*
X-29050Y13800D02*
X-28150Y13800D01*
X-29050Y15700D02*
X-28150D01*
Y13800D02*
Y14550D01*
X-29050Y13800D02*
Y14550D01*
Y14950D02*
Y15700D01*
X-28150Y14950D02*
Y15700D01*
X-27850Y13800D02*
X-26950Y13800D01*
X-27850Y15700D02*
X-26950D01*
Y13800D02*
Y14550D01*
X-27850Y13800D02*
Y14550D01*
Y14950D02*
Y15700D01*
X-26950Y14950D02*
Y15700D01*
X-21000Y18850D02*
Y19750D01*
X-22900Y18850D02*
Y19750D01*
X-21750Y19750D02*
X-21000Y19750D01*
X-21750Y18850D02*
X-21000Y18850D01*
X-22900D02*
X-22150Y18850D01*
X-22900Y19750D02*
X-22150Y19750D01*
X-20250Y23800D02*
X-19350Y23800D01*
X-20250Y21900D02*
X-19350D01*
X-20250Y23050D02*
Y23800D01*
X-19350Y23050D02*
Y23800D01*
Y21900D02*
Y22650D01*
X-20250Y21900D02*
Y22650D01*
X-25100Y19750D02*
X-25100Y18850D01*
X-23200D02*
Y19750D01*
X-25100Y18850D02*
X-24350D01*
X-25100Y19750D02*
X-24350Y19750D01*
X-23950D02*
X-23200D01*
X-23950Y18850D02*
X-23200D01*
X-23200Y15550D02*
X-23200Y16450D01*
X-25100Y15550D02*
Y16450D01*
X-23950D02*
X-23200D01*
X-23950Y15550D02*
X-23200Y15550D01*
X-25100D02*
X-24350D01*
X-25100Y16450D02*
X-24350D01*
X-26650Y14150D02*
Y15250D01*
X-24300Y14150D02*
Y15250D01*
X-26650Y14150D02*
X-25900D01*
X-26650Y15250D02*
X-25900Y15250D01*
X-25050Y15250D02*
X-24300D01*
X-25050Y14150D02*
X-24300Y14150D01*
X-10050Y11800D02*
X-9150Y11800D01*
X-10050Y9900D02*
X-9150D01*
X-10050Y11050D02*
Y11800D01*
X-9150Y11050D02*
Y11800D01*
Y9900D02*
Y10650D01*
X-10050Y9900D02*
Y10650D01*
X5350Y9800D02*
X6250Y9800D01*
X5350Y11700D02*
X6250D01*
Y9800D02*
Y10550D01*
X5350Y9800D02*
Y10550D01*
Y10950D02*
Y11700D01*
X6250Y10950D02*
Y11700D01*
X-5175Y25750D02*
X-4975Y25750D01*
X-4625Y24850D02*
X-4575D01*
X-4225Y25750D02*
X-4025Y25750D01*
X-5175Y25300D02*
Y25750D01*
X-4025Y25300D02*
Y25750D01*
X18678Y9632D02*
X19268Y10222D01*
X19268Y10813D01*
X18678Y13569D02*
X19268Y12978D01*
Y12425D02*
Y12978D01*
X15331Y13569D02*
X18678D01*
X15331Y9632D02*
X18678D01*
X15331Y13569D02*
X15331Y12387D01*
X15331Y9632D02*
X15331Y10813D01*
X-24050Y13300D02*
Y14050D01*
X-23150Y13300D02*
Y14050D01*
Y14450D02*
Y15200D01*
X-24050Y14450D02*
Y15200D01*
Y13300D02*
X-23150D01*
X-24050Y15200D02*
X-23150Y15200D01*
X-25050Y16700D02*
Y17450D01*
X-24150Y16700D02*
Y17450D01*
Y17850D02*
Y18600D01*
X-25050Y17850D02*
Y18600D01*
Y16700D02*
X-24150D01*
X-25050Y18600D02*
X-24150Y18600D01*
X-14700Y17850D02*
X-13950Y17850D01*
X-14700Y16750D02*
X-13950D01*
X-13100Y16750D02*
X-12350Y16750D01*
X-13100Y17850D02*
X-12350D01*
X-14700Y16750D02*
X-14700Y17850D01*
X-12350D02*
X-12350Y16750D01*
X-30250Y15700D02*
X-29350D01*
X-30250Y13800D02*
X-29350D01*
X-30250Y15700D02*
X-30250Y14950D01*
X-29350D02*
X-29350Y15700D01*
X-29350Y13800D02*
Y14550D01*
X-30250Y13800D02*
Y14550D01*
X-6625Y4700D02*
X-5725Y4700D01*
X-6625Y6600D02*
X-5725D01*
Y4700D02*
Y5450D01*
X-6625Y4700D02*
Y5450D01*
Y5850D02*
Y6600D01*
X-5725Y5850D02*
Y6600D01*
X-9650Y13000D02*
X-8750Y13000D01*
X-9650Y14900D02*
X-8750D01*
Y13750D02*
X-8750Y13000D01*
X-9650Y13750D02*
X-9650Y13000D01*
X-9650Y14150D02*
X-9650Y14900D01*
X-8750Y14150D02*
Y14900D01*
X-20475Y19000D02*
Y19700D01*
X-19325Y19000D02*
Y19700D01*
X-3750Y22000D02*
X-2850D01*
X-3750Y20100D02*
X-2850D01*
X-3750Y22000D02*
X-3750Y21250D01*
X-2850D02*
X-2850Y22000D01*
X-2850Y20100D02*
Y20850D01*
X-3750Y20100D02*
Y20850D01*
X-8750Y24500D02*
X-7850Y24500D01*
X-8750Y26400D02*
X-7850D01*
Y24500D02*
Y25250D01*
X-8750Y24500D02*
Y25250D01*
Y25650D02*
Y26400D01*
X-7850Y25650D02*
Y26400D01*
X500Y24950D02*
X500Y25850D01*
X2400Y24950D02*
Y25850D01*
X500Y24950D02*
X1250D01*
X500Y25850D02*
X1250D01*
X1650D02*
X2400D01*
X1650Y24950D02*
X2400D01*
X24275Y22050D02*
X24475Y22050D01*
X23875Y22950D02*
X23925D01*
X23325Y22050D02*
X23525Y22050D01*
X24475Y22050D02*
Y22500D01*
X23325Y22050D02*
Y22500D01*
X29350Y13350D02*
X30100D01*
X29350Y14250D02*
X30100D01*
X28200D02*
X28950D01*
X28200Y13350D02*
X28950D01*
X30100Y14250D02*
X30100Y13350D01*
X28200D02*
Y14250D01*
X28200Y15450D02*
X28950Y15450D01*
X28200Y14550D02*
X28950Y14550D01*
X29350Y14550D02*
X30100D01*
X29350Y15450D02*
X30100D01*
X28200Y14550D02*
X28200Y15450D01*
X30100Y14550D02*
Y15450D01*
X-850Y18500D02*
X50Y18500D01*
X-850Y16600D02*
X50D01*
X-850Y17750D02*
Y18500D01*
X50Y17750D02*
Y18500D01*
Y16600D02*
Y17350D01*
X-850Y16600D02*
Y17350D01*
X16650Y23800D02*
X17550Y23800D01*
X16650Y25700D02*
X17550D01*
Y23800D02*
Y24550D01*
X16650Y23800D02*
Y24550D01*
Y24950D02*
Y25700D01*
X17550Y24950D02*
Y25700D01*
X-33700Y18700D02*
X-32500D01*
X-33700D02*
Y19214D01*
X-33643Y19386D01*
X-33585Y19443D01*
X-33471Y19500D01*
X-33357D01*
X-33243Y19443D01*
X-33186Y19386D01*
X-33128Y19214D01*
Y18700D01*
Y19100D02*
X-32500Y19500D01*
X-33700Y19768D02*
X-32500D01*
X-33128D02*
X-33243Y19883D01*
X-33300Y19997D01*
Y20168D01*
X-33243Y20283D01*
X-33128Y20397D01*
X-32957Y20454D01*
X-32843D01*
X-32671Y20397D01*
X-32557Y20283D01*
X-32500Y20168D01*
Y19997D01*
X-32557Y19883D01*
X-32671Y19768D01*
X-33700Y22054D02*
X-32500D01*
X-33700Y21654D02*
Y22453D01*
Y22596D02*
X-32500D01*
X-33700Y22848D02*
X-32500D01*
X-33700D02*
X-32500Y23305D01*
X-33700Y23762D02*
X-32500Y23305D01*
X-33700Y23762D02*
X-32500D01*
X-33700Y24847D02*
Y24105D01*
X-32500D01*
Y24847D01*
X-33128Y24105D02*
Y24562D01*
X-33700Y25047D02*
X-32500D01*
X-33700D02*
Y25561D01*
X-33643Y25733D01*
X-33585Y25790D01*
X-33471Y25847D01*
X-33357D01*
X-33243Y25790D01*
X-33186Y25733D01*
X-33128Y25561D01*
Y25047D02*
Y25561D01*
X-33071Y25733D01*
X-33014Y25790D01*
X-32900Y25847D01*
X-32729D01*
X-32614Y25790D01*
X-32557Y25733D01*
X-32500Y25561D01*
Y25047D01*
Y27030D02*
X-33700Y26573D01*
X-32500Y26116D01*
X-32900Y26287D02*
Y26858D01*
X-33528Y28109D02*
X-33643Y27995D01*
X-33700Y27824D01*
Y27595D01*
X-33643Y27424D01*
X-33528Y27310D01*
X-33414D01*
X-33300Y27367D01*
X-33243Y27424D01*
X-33186Y27538D01*
X-33071Y27881D01*
X-33014Y27995D01*
X-32957Y28052D01*
X-32843Y28109D01*
X-32671D01*
X-32557Y27995D01*
X-32500Y27824D01*
Y27595D01*
X-32557Y27424D01*
X-32671Y27310D01*
X-33700Y29121D02*
Y28378D01*
X-32500D01*
Y29121D01*
X-33128Y28378D02*
Y28835D01*
X33500Y19300D02*
X33000D01*
X32900Y19200D01*
Y19000D01*
X33000Y18900D01*
X33500D01*
X33000Y18700D02*
X32900Y18600D01*
Y18400D01*
X33000Y18300D01*
X33400D01*
X33500Y18400D01*
Y18600D01*
X33400Y18700D01*
X33300D01*
X33200Y18600D01*
Y18300D01*
D34*
X-19950Y12750D02*
X-19985Y12846D01*
X-20074Y12898D01*
X-20175Y12880D01*
X-20241Y12801D01*
Y12699D01*
X-20175Y12620D01*
X-20074Y12602D01*
X-19985Y12654D01*
X-19950Y12750D01*
X-18350Y22500D02*
X-18385Y22596D01*
X-18474Y22648D01*
X-18575Y22630D01*
X-18641Y22551D01*
Y22449D01*
X-18575Y22370D01*
X-18474Y22352D01*
X-18385Y22404D01*
X-18350Y22500D01*
D35*
X-35700Y6400D02*
Y6800D01*
Y6600D01*
X-35100D01*
X-35600Y7400D02*
X-35700Y7300D01*
Y7100D01*
X-35600Y7000D01*
X-35500D01*
X-35400Y7100D01*
Y7300D01*
X-35300Y7400D01*
X-35200D01*
X-35100Y7300D01*
Y7100D01*
X-35200Y7000D01*
X-35700Y7600D02*
Y7800D01*
Y7700D01*
X-35100D01*
Y7600D01*
Y7800D01*
X-35700Y8099D02*
X-35100D01*
Y8499D01*
X-35700Y8699D02*
X-35100D01*
X-35300D01*
X-35700Y9099D01*
X-35400Y8799D01*
X-35100Y9099D01*
D48*
X-19800Y24900D02*
D03*
X1000Y27600D02*
D03*
X8600D02*
D03*
X11100Y24300D02*
D03*
X20100Y11700D02*
D03*
D50*
X5600Y3750D02*
D03*
X31150Y18150D02*
D03*
D53*
X25968Y10816D02*
X25966Y10915D01*
X25958Y11015D01*
X25946Y11114D01*
X25928Y11212D01*
X25906Y11309D01*
X25878Y11405D01*
X25846Y11499D01*
X25809Y11592D01*
X25767Y11683D01*
X25721Y11771D01*
X25671Y11857D01*
X25616Y11940D01*
X25557Y12021D01*
X25494Y12098D01*
X25427Y12172D01*
X25356Y12243D01*
X25282Y12309D01*
X25205Y12372D01*
X25125Y12431D01*
X25041Y12486D01*
X24955Y12537D01*
X24867Y12583D01*
X24776Y12625D01*
X24684Y12662D01*
X24589Y12694D01*
X24493Y12721D01*
X24396Y12744D01*
X24298Y12762D01*
X24199Y12774D01*
X24100Y12782D01*
X24000Y12784D01*
X23900Y12782D01*
X23801Y12774D01*
X23702Y12762D01*
X23604Y12744D01*
X23507Y12721D01*
X23411Y12694D01*
X23316Y12662D01*
X23224Y12625D01*
X23133Y12583D01*
X23045Y12537D01*
X22959Y12486D01*
X22875Y12431D01*
X22795Y12372D01*
X22718Y12309D01*
X22644Y12242D01*
X22573Y12172D01*
X22506Y12098D01*
X22443Y12021D01*
X22384Y11940D01*
X22329Y11857D01*
X22279Y11771D01*
X22233Y11683D01*
X22191Y11592D01*
X22154Y11499D01*
X22122Y11405D01*
X22094Y11309D01*
X22072Y11212D01*
X22054Y11114D01*
X22042Y11015D01*
X22034Y10915D01*
X22032Y10816D01*
X22034Y10716D01*
X22042Y10617D01*
X22054Y10518D01*
X22072Y10419D01*
X22094Y10322D01*
X22122Y10226D01*
X22154Y10132D01*
X22191Y10039D01*
X22233Y9949D01*
X22279Y9860D01*
X22329Y9774D01*
X22384Y9691D01*
X22443Y9611D01*
X22506Y9534D01*
X22573Y9460D01*
X22644Y9389D01*
X22718Y9322D01*
X22795Y9259D01*
X22875Y9200D01*
X22959Y9145D01*
X23045Y9095D01*
X23133Y9048D01*
X23224Y9007D01*
X23316Y8970D01*
X23411Y8938D01*
X23507Y8910D01*
X23604Y8888D01*
X23702Y8870D01*
X23801Y8857D01*
X23900Y8850D01*
X24000Y8847D01*
X24100Y8850D01*
X24199Y8857D01*
X24298Y8870D01*
X24396Y8888D01*
X24493Y8910D01*
X24589Y8938D01*
X24684Y8970D01*
X24776Y9007D01*
X24867Y9048D01*
X24955Y9095D01*
X25041Y9145D01*
X25125Y9200D01*
X25205Y9259D01*
X25282Y9322D01*
X25356Y9389D01*
X25427Y9460D01*
X25494Y9534D01*
X25557Y9611D01*
X25616Y9691D01*
X25671Y9774D01*
X25721Y9860D01*
X25767Y9949D01*
X25809Y10039D01*
X25846Y10132D01*
X25878Y10226D01*
X25906Y10322D01*
X25928Y10419D01*
X25946Y10518D01*
X25958Y10617D01*
X25966Y10716D01*
X25968Y10816D01*
X30168Y10816D02*
X30166Y10915D01*
X30158Y11015D01*
X30146Y11114D01*
X30128Y11212D01*
X30106Y11309D01*
X30078Y11405D01*
X30046Y11499D01*
X30009Y11592D01*
X29967Y11683D01*
X29921Y11771D01*
X29871Y11857D01*
X29816Y11940D01*
X29757Y12021D01*
X29694Y12098D01*
X29627Y12172D01*
X29556Y12243D01*
X29482Y12309D01*
X29405Y12372D01*
X29325Y12431D01*
X29241Y12486D01*
X29155Y12537D01*
X29067Y12583D01*
X28976Y12625D01*
X28884Y12662D01*
X28789Y12694D01*
X28693Y12721D01*
X28596Y12744D01*
X28498Y12762D01*
X28399Y12774D01*
X28300Y12782D01*
X28200Y12784D01*
X28100Y12782D01*
X28001Y12774D01*
X27902Y12762D01*
X27804Y12744D01*
X27707Y12721D01*
X27611Y12694D01*
X27516Y12662D01*
X27424Y12625D01*
X27333Y12583D01*
X27245Y12537D01*
X27159Y12486D01*
X27075Y12431D01*
X26995Y12372D01*
X26918Y12309D01*
X26844Y12243D01*
X26773Y12172D01*
X26706Y12098D01*
X26643Y12021D01*
X26584Y11940D01*
X26529Y11857D01*
X26479Y11771D01*
X26433Y11683D01*
X26391Y11592D01*
X26354Y11499D01*
X26322Y11405D01*
X26294Y11309D01*
X26272Y11212D01*
X26254Y11114D01*
X26242Y11015D01*
X26234Y10915D01*
X26231Y10816D01*
X26234Y10716D01*
X26242Y10617D01*
X26254Y10518D01*
X26272Y10419D01*
X26294Y10322D01*
X26322Y10226D01*
X26354Y10132D01*
X26391Y10039D01*
X26433Y9949D01*
X26479Y9860D01*
X26529Y9774D01*
X26584Y9691D01*
X26643Y9611D01*
X26706Y9534D01*
X26773Y9460D01*
X26844Y9389D01*
X26918Y9322D01*
X26995Y9259D01*
X27075Y9200D01*
X27159Y9145D01*
X27245Y9095D01*
X27333Y9048D01*
X27424Y9007D01*
X27516Y8970D01*
X27611Y8938D01*
X27707Y8910D01*
X27804Y8888D01*
X27902Y8870D01*
X28001Y8857D01*
X28100Y8850D01*
X28200Y8847D01*
X28300Y8850D01*
X28399Y8857D01*
X28498Y8870D01*
X28596Y8888D01*
X28693Y8910D01*
X28789Y8938D01*
X28884Y8970D01*
X28976Y9007D01*
X29067Y9048D01*
X29155Y9095D01*
X29241Y9145D01*
X29325Y9200D01*
X29405Y9259D01*
X29482Y9322D01*
X29556Y9389D01*
X29627Y9460D01*
X29694Y9534D01*
X29757Y9611D01*
X29816Y9691D01*
X29871Y9774D01*
X29921Y9860D01*
X29967Y9949D01*
X30009Y10039D01*
X30046Y10132D01*
X30078Y10226D01*
X30106Y10322D01*
X30128Y10419D01*
X30146Y10518D01*
X30158Y10617D01*
X30166Y10716D01*
X30168Y10816D01*
X15886Y16656D02*
X15790Y16678D01*
X15692Y16692D01*
X15593Y16699D01*
X15493Y16699D01*
X15394Y16691D01*
X15296Y16675D01*
X15200Y16652D01*
X15105Y16622D01*
X15013Y16584D01*
X14925Y16540D01*
X14840Y16489D01*
X14759Y16431D01*
X14682Y16368D01*
X14611Y16299D01*
X14545Y16225D01*
X14485Y16146D01*
X14431Y16062D01*
X14384Y15975D01*
X14344Y15884D01*
X14310Y15791D01*
X14284Y15695D01*
X14265Y15598D01*
X14254Y15499D01*
X14250Y15400D01*
X14254Y15301D01*
X14265Y15202D01*
X14284Y15105D01*
X14310Y15009D01*
X14344Y14916D01*
X14384Y14825D01*
X14431Y14738D01*
X14485Y14654D01*
X14545Y14575D01*
X14611Y14501D01*
X14682Y14432D01*
X14759Y14369D01*
X14840Y14311D01*
X14925Y14260D01*
X15013Y14216D01*
X15105Y14178D01*
X15200Y14148D01*
X15296Y14125D01*
X15394Y14109D01*
X15493Y14101D01*
X15593Y14101D01*
X15692Y14108D01*
X15790Y14122D01*
X15886Y14144D01*
X16676Y14750D02*
X16721Y14836D01*
X16760Y14925D01*
X16792Y15017D01*
X16817Y15111D01*
X16835Y15206D01*
X16846Y15303D01*
X16850Y15400D01*
X16846Y15497D01*
X16835Y15594D01*
X16817Y15689D01*
X16792Y15783D01*
X16760Y15875D01*
X16721Y15964D01*
X16676Y16050D01*
X30476Y21000D02*
X30474Y21100D01*
X30468Y21199D01*
X30458Y21298D01*
X30444Y21397D01*
X30426Y21495D01*
X30404Y21593D01*
X30378Y21689D01*
X30348Y21784D01*
X30314Y21878D01*
X30277Y21970D01*
X30236Y22061D01*
X30191Y22150D01*
X30143Y22238D01*
X30091Y22323D01*
X30035Y22406D01*
X29977Y22486D01*
X29915Y22565D01*
X29850Y22640D01*
X29782Y22713D01*
X29711Y22783D01*
X29637Y22851D01*
X29561Y22915D01*
X29482Y22976D01*
X29401Y23034D01*
X29317Y23088D01*
X29232Y23139D01*
X29144Y23187D01*
X29054Y23231D01*
X28963Y23271D01*
X28870Y23307D01*
X28776Y23340D01*
X28681Y23369D01*
X28584Y23394D01*
X28487Y23415D01*
X28388Y23432D01*
X28289Y23445D01*
X28190Y23454D01*
X28091Y23459D01*
X27991Y23461D01*
X27891Y23457D01*
X27792Y23450D01*
X27693Y23439D01*
X27594Y23424D01*
X27496Y23405D01*
X27399Y23382D01*
X27303Y23355D01*
X27208Y23324D01*
X27115Y23290D01*
X27023Y23251D01*
X26932Y23209D01*
X26843Y23163D01*
X26757Y23114D01*
X26672Y23061D01*
X26590Y23005D01*
X26510Y22946D01*
X26432Y22883D01*
X26357Y22817D01*
X26285Y22749D01*
X26215Y22677D01*
X26149Y22603D01*
X26085Y22526D01*
X26025Y22446D01*
X25968Y22364D01*
X25914Y22280D01*
X25864Y22194D01*
X25818Y22106D01*
X25775Y22016D01*
X25735Y21924D01*
X25700Y21831D01*
X25668Y21737D01*
X25640Y21641D01*
X25616Y21544D01*
X25596Y21446D01*
X25580Y21348D01*
X25568Y21249D01*
X25560Y21150D01*
X25556Y21050D01*
Y20950D01*
X25560Y20850D01*
X25568Y20751D01*
X25580Y20652D01*
X25596Y20554D01*
X25616Y20456D01*
X25640Y20359D01*
X25668Y20263D01*
X25700Y20169D01*
X25735Y20076D01*
X25775Y19984D01*
X25818Y19894D01*
X25864Y19806D01*
X25914Y19720D01*
X25968Y19636D01*
X26025Y19554D01*
X26085Y19474D01*
X26149Y19397D01*
X26215Y19323D01*
X26285Y19251D01*
X26357Y19183D01*
X26432Y19117D01*
X26510Y19054D01*
X26590Y18995D01*
X26672Y18939D01*
X26757Y18886D01*
X26843Y18837D01*
X26932Y18791D01*
X27023Y18749D01*
X27115Y18710D01*
X27208Y18676D01*
X27303Y18645D01*
X27399Y18618D01*
X27496Y18595D01*
X27594Y18576D01*
X27693Y18561D01*
X27792Y18550D01*
X27891Y18543D01*
X27991Y18540D01*
X28091Y18541D01*
X28190Y18546D01*
X28289Y18555D01*
X28388Y18568D01*
X28487Y18585D01*
X28584Y18606D01*
X28681Y18631D01*
X28776Y18660D01*
X28870Y18693D01*
X28963Y18729D01*
X29054Y18769D01*
X29144Y18813D01*
X29232Y18861D01*
X29317Y18912D01*
X29401Y18966D01*
X29482Y19024D01*
X29561Y19085D01*
X29637Y19149D01*
X29711Y19217D01*
X29782Y19287D01*
X29850Y19360D01*
X29915Y19435D01*
X29977Y19514D01*
X30035Y19594D01*
X30091Y19677D01*
X30143Y19762D01*
X30191Y19850D01*
X30236Y19939D01*
X30277Y20030D01*
X30314Y20122D01*
X30348Y20216D01*
X30378Y20311D01*
X30404Y20407D01*
X30426Y20505D01*
X30444Y20603D01*
X30458Y20701D01*
X30468Y20801D01*
X30474Y20900D01*
X30476Y21000D01*
X-17300Y22000D02*
X-17273Y21900D01*
X-17200Y21827D01*
X-17100Y21800D01*
X-17000Y21827D01*
X-16927Y21900D01*
X-16900Y22000D01*
X-16900Y19200D02*
X-16927Y19300D01*
X-17000Y19373D01*
X-17100Y19400D01*
X-17200Y19373D01*
X-17273Y19300D01*
X-17300Y19200D01*
X31500Y3500D02*
Y5500D01*
X32500Y3500D02*
Y5500D01*
X31500Y3500D02*
X32500D01*
X31500Y5500D02*
X32500D01*
X-9300Y20300D02*
Y21300D01*
X-10300Y20300D02*
X-9300D01*
X-10300Y21300D02*
X-9300D01*
X-10300Y20300D02*
Y21300D01*
X6000Y15600D02*
X7000D01*
X6000D02*
Y16600D01*
X7000Y15600D02*
Y16600D01*
X6000D02*
X7000D01*
X-29100Y18500D02*
Y20500D01*
X-28100Y18500D02*
Y20500D01*
X-29100Y18500D02*
X-28100Y18500D01*
X-29100Y20500D02*
X-28100D01*
X-12000Y30500D02*
X-11000D01*
Y29500D02*
Y30500D01*
X-12000Y29500D02*
Y30500D01*
Y29500D02*
X-11000D01*
X-15200Y23600D02*
Y24600D01*
X-14200D01*
X-15200Y23600D02*
X-14200D01*
Y24600D01*
X-16500Y23300D02*
Y24300D01*
X-15500D01*
X-16500Y23300D02*
X-15500D01*
Y24300D01*
X14500Y7500D02*
X15500D01*
Y6500D02*
Y7500D01*
X14500Y6500D02*
Y7500D01*
Y6500D02*
X15500D01*
X29200D02*
X30200D01*
X29200D02*
Y7500D01*
X30200Y6500D02*
Y7500D01*
X29200D02*
X30200D01*
X-8800Y27700D02*
X-7800D01*
X-7800Y26700D01*
X-8800Y26700D02*
Y27700D01*
Y26700D02*
X-7800Y26700D01*
X34400Y8050D02*
Y17550D01*
X33775Y8050D02*
X34400Y8050D01*
X33775Y17550D02*
X34400Y17550D01*
X32200D02*
X33775Y17550D01*
X32200Y8050D02*
X33775Y8050D01*
X32200Y8050D02*
Y17550D01*
X100Y2500D02*
X100Y3500D01*
X5100Y3500D01*
Y2500D02*
Y3500D01*
X4100Y2500D02*
X5100Y2500D01*
X100D02*
X100Y1500D01*
X4100Y2500D02*
Y3500D01*
X5100Y1500D02*
X5100Y2500D01*
X100Y1500D02*
X5100D01*
X-33500Y13500D02*
X-32500Y13500D01*
X-33500Y14500D02*
X-32500D01*
X-33500Y10500D02*
X-32500D01*
Y14500D01*
X-33500Y10500D02*
Y14500D01*
X26900Y3505D02*
X26900Y1505D01*
X27900Y3505D02*
X27900Y1505D01*
X26900Y1505D02*
X27900Y1505D01*
X26900Y3505D02*
X27900Y3505D01*
X22400Y1500D02*
X22400Y3500D01*
X23400Y3500D02*
X23400Y1500D01*
X22400D02*
X23400D01*
X22400Y3500D02*
X23400Y3500D01*
X17900Y1500D02*
X17900Y3500D01*
X18900Y3500D02*
X18900Y1500D01*
X17900D02*
X18900D01*
X17900Y3500D02*
X18900Y3500D01*
X-10600Y3500D02*
X-9600Y3500D01*
X-10600Y1500D02*
X-9600D01*
X-9600Y3500D02*
X-9600Y1500D01*
X-10600D02*
X-10600Y3500D01*
X-13600D02*
X-12600Y3500D01*
X-13600Y1500D02*
X-12600D01*
X-12600Y3500D02*
X-12600Y1500D01*
X-13600D02*
X-13600Y3500D01*
X14700Y29100D02*
X14700Y28100D01*
X13700D02*
Y29100D01*
X17700Y28100D02*
Y29100D01*
X13700D02*
X17700D01*
X13700Y28100D02*
X17700D01*
X-32600Y3500D02*
X-31600Y3500D01*
X-32600Y1500D02*
X-31600D01*
X-31600Y3500D02*
X-31600Y1500D01*
X-32600D02*
X-32600Y3500D01*
X-16600Y1500D02*
X-16600Y3500D01*
X-15600Y3500D02*
X-15600Y1500D01*
X-16600D02*
X-15600D01*
X-16600Y3500D02*
X-15600Y3500D01*
X-14700Y13100D02*
Y14100D01*
X-13700D01*
X-14700Y13100D02*
X-13700Y13100D01*
X-13700Y14100D01*
X9500Y1500D02*
X9500Y3500D01*
X10500Y3500D02*
X10500Y1500D01*
X9500D02*
X10500D01*
X9500Y3500D02*
X10500Y3500D01*
X-7075Y1500D02*
X-7075Y3500D01*
X-6075Y3500D02*
X-6075Y1500D01*
X-7075D02*
X-6075D01*
X-7075Y3500D02*
X-6075Y3500D01*
X-20600Y3500D02*
X-19600Y3500D01*
X-20600Y1500D02*
X-19600D01*
X-19600Y3500D02*
X-19600Y1500D01*
X-20600D02*
X-20600Y3500D01*
X-23600D02*
X-22600Y3500D01*
X-23600Y1500D02*
X-22600D01*
X-22600Y3500D02*
X-22600Y1500D01*
X-23600D02*
X-23600Y3500D01*
X-26600D02*
X-25600Y3500D01*
X-26600Y1500D02*
X-25600D01*
X-25600Y3500D02*
X-25600Y1500D01*
X-26600D02*
X-26600Y3500D01*
X-29600D02*
X-28600Y3500D01*
X-29600Y1500D02*
X-28600D01*
X-28600Y3500D02*
X-28600Y1500D01*
X-29600D02*
X-29600Y3500D01*
X-28450Y12150D02*
X-28450Y8350D01*
X-20750Y8350D02*
X-20750Y12150D01*
X-20950Y8350D02*
X-20750Y8350D01*
X-20950Y12150D02*
X-20750Y12150D01*
X-28450Y8350D02*
X-28250D01*
X-28450Y12150D02*
X-28250Y12150D01*
X-15300Y25500D02*
Y26500D01*
X-20300Y25500D02*
X-15300Y25500D01*
X-20300Y25500D02*
Y26500D01*
X-19300D01*
X-15300D02*
Y27500D01*
X-19300Y26500D02*
X-19300Y25500D01*
X-20300Y26500D02*
X-20300Y27500D01*
X-15300Y27500D01*
X8100Y28100D02*
X11100D01*
X8100Y29100D02*
X11100D01*
Y28100D02*
Y29100D01*
X8100Y28100D02*
Y29100D01*
X9100Y28100D02*
Y29100D01*
X500Y28100D02*
X6500D01*
X500Y29100D02*
X6500D01*
Y28100D02*
Y29100D01*
X500Y28100D02*
Y29100D01*
X1500Y28100D02*
Y29100D01*
X-2800Y9300D02*
X-1800D01*
Y8300D02*
Y9300D01*
X-2800Y8300D02*
Y9300D01*
Y8300D02*
X-1800D01*
X-25500Y24500D02*
X-24500Y24500D01*
X-25500Y26500D02*
X-24500Y26500D01*
X-25500Y24500D02*
X-25500Y26500D01*
X-24500Y24500D02*
X-24500Y26500D01*
X11000Y12700D02*
X12000D01*
X11000Y10700D02*
X12000D01*
Y12700D01*
X11000Y10700D02*
Y12700D01*
X-6500Y16500D02*
X-5500D01*
X-6500Y14500D02*
X-5500D01*
Y16500D01*
X-6500Y14500D02*
Y16500D01*
X-32000Y17500D02*
X-31100D01*
X-32000D02*
Y18057D01*
X-31571Y17500D02*
Y17843D01*
X-32000Y18717D02*
Y18160D01*
X-31100D01*
Y18717D01*
X-31571Y18160D02*
Y18503D01*
X-32000Y18867D02*
X-31100D01*
X-32000D02*
Y19252D01*
X-31957Y19381D01*
X-31914Y19424D01*
X-31828Y19467D01*
X-31743D01*
X-31657Y19424D01*
X-31614Y19381D01*
X-31571Y19252D01*
Y18867D02*
Y19252D01*
X-31528Y19381D01*
X-31486Y19424D01*
X-31400Y19467D01*
X-31271D01*
X-31186Y19424D01*
X-31143Y19381D01*
X-31100Y19252D01*
Y18867D01*
X-31786Y20418D02*
X-31828D01*
X-31914Y20461D01*
X-31957Y20504D01*
X-32000Y20589D01*
Y20761D01*
X-31957Y20846D01*
X-31914Y20889D01*
X-31828Y20932D01*
X-31743D01*
X-31657Y20889D01*
X-31528Y20804D01*
X-31100Y20375D01*
Y20975D01*
X-32000Y21433D02*
X-31957Y21305D01*
X-31828Y21219D01*
X-31614Y21176D01*
X-31486D01*
X-31271Y21219D01*
X-31143Y21305D01*
X-31100Y21433D01*
Y21519D01*
X-31143Y21648D01*
X-31271Y21733D01*
X-31486Y21776D01*
X-31614D01*
X-31828Y21733D01*
X-31957Y21648D01*
X-32000Y21519D01*
Y21433D01*
X-31828Y21978D02*
X-31871Y22063D01*
X-32000Y22192D01*
X-31100D01*
X-32000Y23152D02*
Y22723D01*
X-31614Y22680D01*
X-31657Y22723D01*
X-31700Y22852D01*
Y22980D01*
X-31657Y23109D01*
X-31571Y23194D01*
X-31443Y23237D01*
X-31357D01*
X-31229Y23194D01*
X-31143Y23109D01*
X-31100Y22980D01*
Y22852D01*
X-31143Y22723D01*
X-31186Y22680D01*
X-31271Y22637D01*
X-32000Y24274D02*
X-31271D01*
X-31143Y24317D01*
X-31100Y24403D01*
Y24488D01*
X-31700Y24146D02*
Y24446D01*
Y24831D02*
X-31657Y24746D01*
X-31571Y24660D01*
X-31443Y24617D01*
X-31357D01*
X-31229Y24660D01*
X-31143Y24746D01*
X-31100Y24831D01*
Y24960D01*
X-31143Y25046D01*
X-31229Y25131D01*
X-31357Y25174D01*
X-31443D01*
X-31571Y25131D01*
X-31657Y25046D01*
X-31700Y24960D01*
Y24831D01*
Y25371D02*
X-31100D01*
X-31528D02*
X-31657Y25500D01*
X-31700Y25585D01*
Y25714D01*
X-31657Y25800D01*
X-31528Y25842D01*
X-31100D01*
X-31528D02*
X-31657Y25971D01*
X-31700Y26057D01*
Y26185D01*
X-31657Y26271D01*
X-31528Y26314D01*
X-31100D01*
X-31571Y27111D02*
X-31657Y27025D01*
X-31700Y26939D01*
Y26811D01*
X-31657Y26725D01*
X-31571Y26639D01*
X-31443Y26597D01*
X-31357D01*
X-31229Y26639D01*
X-31143Y26725D01*
X-31100Y26811D01*
Y26939D01*
X-31143Y27025D01*
X-31229Y27111D01*
X-32000Y27389D02*
X-31957Y27432D01*
X-32000Y27475D01*
X-32043Y27432D01*
X-32000Y27389D01*
X-31700Y27432D02*
X-31100D01*
X-31700Y27634D02*
X-31100D01*
X-31443D02*
X-31571Y27676D01*
X-31657Y27762D01*
X-31700Y27848D01*
Y27976D01*
X-31571Y28572D02*
X-31657Y28486D01*
X-31700Y28401D01*
Y28272D01*
X-31657Y28186D01*
X-31571Y28101D01*
X-31443Y28058D01*
X-31357D01*
X-31229Y28101D01*
X-31143Y28186D01*
X-31100Y28272D01*
Y28401D01*
X-31143Y28486D01*
X-31229Y28572D01*
X-31700Y28765D02*
X-31271D01*
X-31143Y28808D01*
X-31100Y28893D01*
Y29022D01*
X-31143Y29108D01*
X-31271Y29236D01*
X-31700D02*
X-31100D01*
X-32000Y29557D02*
X-31957Y29600D01*
X-32000Y29643D01*
X-32043Y29600D01*
X-32000Y29557D01*
X-31700Y29600D02*
X-31100D01*
X-32000Y29930D02*
X-31271D01*
X-31143Y29973D01*
X-31100Y30059D01*
Y30144D01*
X-31700Y29802D02*
Y30102D01*
X25000Y4000D02*
X24500D01*
Y4250D01*
X24583Y4333D01*
X24750D01*
X24833Y4250D01*
Y4000D01*
Y4167D02*
X25000Y4333D01*
Y4500D02*
Y4666D01*
Y4583D01*
X24500D01*
X24583Y4500D01*
X25000Y5250D02*
Y4916D01*
X24667Y5250D01*
X24583D01*
X24500Y5166D01*
Y5000D01*
X24583Y4916D01*
X20500Y4000D02*
X20000D01*
Y4250D01*
X20083Y4333D01*
X20250D01*
X20333Y4250D01*
Y4000D01*
Y4167D02*
X20500Y4333D01*
Y4500D02*
Y4666D01*
Y4583D01*
X20000D01*
X20083Y4500D01*
Y4916D02*
X20000Y5000D01*
Y5166D01*
X20083Y5250D01*
X20417D01*
X20500Y5166D01*
Y5000D01*
X20417Y4916D01*
X20083D01*
X15900Y4100D02*
X15400D01*
Y4350D01*
X15483Y4433D01*
X15650D01*
X15733Y4350D01*
Y4100D01*
Y4267D02*
X15900Y4433D01*
X15483Y4600D02*
X15400Y4683D01*
Y4850D01*
X15483Y4933D01*
X15567D01*
X15650Y4850D01*
X15733Y4933D01*
X15817D01*
X15900Y4850D01*
Y4683D01*
X15817Y4600D01*
X15733D01*
X15650Y4683D01*
X15567Y4600D01*
X15483D01*
X15650Y4683D02*
Y4850D01*
X4700Y19600D02*
X5117D01*
X5200Y19683D01*
Y19850D01*
X5117Y19933D01*
X4700D01*
Y20433D02*
Y20100D01*
X4950D01*
X4867Y20266D01*
Y20350D01*
X4950Y20433D01*
X5117D01*
X5200Y20350D01*
Y20183D01*
X5117Y20100D01*
X19116Y24075D02*
X18583D01*
X18849Y23808D02*
Y24342D01*
X21033Y25517D02*
X20950Y25600D01*
X20783D01*
X20700Y25517D01*
Y25183D01*
X20783Y25100D01*
X20950D01*
X21033Y25183D01*
X21533Y25100D02*
X21200D01*
X21533Y25433D01*
Y25517D01*
X21450Y25600D01*
X21283D01*
X21200Y25517D01*
X21950Y25100D02*
Y25600D01*
X21700Y25350D01*
X22033D01*
X31600Y2700D02*
X31500Y2800D01*
X31300D01*
X31200Y2700D01*
Y2300D01*
X31300Y2200D01*
X31500D01*
X31600Y2300D01*
Y2500D01*
X31400D01*
X31800Y2200D02*
Y2800D01*
X32200Y2200D01*
Y2800D01*
X32400D02*
Y2200D01*
X32700D01*
X32799Y2300D01*
Y2700D01*
X32700Y2800D01*
X32400D01*
X-18660Y24050D02*
X-18293D01*
X-18477D01*
Y23500D01*
X-18110D02*
Y24050D01*
X-17835D01*
X-17744Y23958D01*
Y23775D01*
X-17835Y23683D01*
X-18110D01*
X-17560Y23500D02*
X-17377D01*
X-17469D01*
Y24050D01*
X-17560Y23958D01*
X-17102D02*
X-17011Y24050D01*
X-16827D01*
X-16736Y23958D01*
Y23867D01*
X-16827Y23775D01*
X-16736Y23683D01*
Y23592D01*
X-16827Y23500D01*
X-17011D01*
X-17102Y23592D01*
Y23683D01*
X-17011Y23775D01*
X-17102Y23867D01*
Y23958D01*
X-17011Y23775D02*
X-16827D01*
X-14750Y24880D02*
Y25247D01*
Y25063D01*
X-14200D01*
Y25430D02*
X-14750D01*
Y25705D01*
X-14658Y25796D01*
X-14475D01*
X-14383Y25705D01*
Y25430D01*
X-14200Y25980D02*
Y26163D01*
Y26071D01*
X-14750D01*
X-14658Y25980D01*
X-14750Y26438D02*
Y26804D01*
X-14658D01*
X-14292Y26438D01*
X-14200D01*
X-28667Y22600D02*
X-28833D01*
X-28750D01*
Y22183D01*
X-28833Y22100D01*
X-28917D01*
X-29000Y22183D01*
X-28500Y22600D02*
X-28167D01*
Y22517D01*
X-28500Y22183D01*
Y22100D01*
X-3050Y18450D02*
X-3550D01*
Y18700D01*
X-3467Y18783D01*
X-3300D01*
X-3217Y18700D01*
Y18450D01*
Y18617D02*
X-3050Y18783D01*
X-3550Y19283D02*
Y18950D01*
X-3300D01*
X-3383Y19116D01*
Y19200D01*
X-3300Y19283D01*
X-3133D01*
X-3050Y19200D01*
Y19033D01*
X-3133Y18950D01*
X-3467Y19450D02*
X-3550Y19533D01*
Y19700D01*
X-3467Y19783D01*
X-3133D01*
X-3050Y19700D01*
Y19533D01*
X-3133Y19450D01*
X-3467D01*
X-1000Y25200D02*
Y25700D01*
X-750D01*
X-667Y25617D01*
Y25450D01*
X-750Y25367D01*
X-1000D01*
X-833D02*
X-667Y25200D01*
X-500D02*
X-334D01*
X-417D01*
Y25700D01*
X-500Y25617D01*
X-84D02*
X-0Y25700D01*
X166D01*
X250Y25617D01*
Y25533D01*
X166Y25450D01*
X83D01*
X166D01*
X250Y25367D01*
Y25283D01*
X166Y25200D01*
X-0D01*
X-84Y25283D01*
X23833Y23483D02*
Y23817D01*
X23750Y23900D01*
X23583D01*
X23500Y23817D01*
Y23483D01*
X23583Y23400D01*
X23750D01*
X23667Y23567D02*
X23833Y23400D01*
X23750D02*
X23833Y23483D01*
X24333Y23900D02*
X24000D01*
Y23650D01*
X24166Y23733D01*
X24250D01*
X24333Y23650D01*
Y23483D01*
X24250Y23400D01*
X24083D01*
X24000Y23483D01*
X-4483Y23933D02*
X-4817D01*
X-4900Y23850D01*
Y23683D01*
X-4817Y23600D01*
X-4483D01*
X-4400Y23683D01*
Y23850D01*
X-4567Y23767D02*
X-4400Y23933D01*
Y23850D02*
X-4483Y23933D01*
Y24100D02*
X-4400Y24183D01*
Y24350D01*
X-4483Y24433D01*
X-4817D01*
X-4900Y24350D01*
Y24183D01*
X-4817Y24100D01*
X-4733D01*
X-4650Y24183D01*
Y24433D01*
X-4483Y29633D02*
X-4817D01*
X-4900Y29550D01*
Y29383D01*
X-4817Y29300D01*
X-4483D01*
X-4400Y29383D01*
Y29550D01*
X-4567Y29467D02*
X-4400Y29633D01*
Y29550D02*
X-4483Y29633D01*
X-4817Y29800D02*
X-4900Y29883D01*
Y30050D01*
X-4817Y30133D01*
X-4733D01*
X-4650Y30050D01*
X-4567Y30133D01*
X-4483D01*
X-4400Y30050D01*
Y29883D01*
X-4483Y29800D01*
X-4567D01*
X-4650Y29883D01*
X-4733Y29800D01*
X-4817D01*
X-4650Y29883D02*
Y30050D01*
X-8503Y5633D02*
X-8837D01*
X-8920Y5550D01*
Y5383D01*
X-8837Y5300D01*
X-8503D01*
X-8420Y5383D01*
Y5550D01*
X-8587Y5467D02*
X-8420Y5633D01*
Y5550D02*
X-8503Y5633D01*
X-8420Y6050D02*
X-8920D01*
X-8670Y5800D01*
Y6133D01*
X-4483Y19773D02*
X-4817D01*
X-4900Y19690D01*
Y19523D01*
X-4817Y19440D01*
X-4483D01*
X-4400Y19523D01*
Y19690D01*
X-4567Y19607D02*
X-4400Y19773D01*
Y19690D02*
X-4483Y19773D01*
X-4817Y19940D02*
X-4900Y20023D01*
Y20190D01*
X-4817Y20273D01*
X-4733D01*
X-4650Y20190D01*
Y20106D01*
Y20190D01*
X-4567Y20273D01*
X-4483D01*
X-4400Y20190D01*
Y20023D01*
X-4483Y19940D01*
X-8283Y19773D02*
X-8617D01*
X-8700Y19690D01*
Y19523D01*
X-8617Y19440D01*
X-8283D01*
X-8200Y19523D01*
Y19690D01*
X-8367Y19607D02*
X-8200Y19773D01*
Y19690D02*
X-8283Y19773D01*
X-8200Y20273D02*
Y19940D01*
X-8533Y20273D01*
X-8617D01*
X-8700Y20190D01*
Y20023D01*
X-8617Y19940D01*
X-12100Y17500D02*
Y17000D01*
X-11767D01*
X-11267D02*
X-11600D01*
X-11267Y17333D01*
Y17417D01*
X-11350Y17500D01*
X-11517D01*
X-11600Y17417D01*
X-9483Y9267D02*
X-9400Y9350D01*
Y9517D01*
X-9483Y9600D01*
X-9817D01*
X-9900Y9517D01*
Y9350D01*
X-9817Y9267D01*
X-9900Y9100D02*
Y8934D01*
Y9017D01*
X-9400D01*
X-9483Y9100D01*
Y8684D02*
X-9400Y8600D01*
Y8434D01*
X-9483Y8350D01*
X-9567D01*
X-9650Y8434D01*
X-9733Y8350D01*
X-9817D01*
X-9900Y8434D01*
Y8600D01*
X-9817Y8684D01*
X-9733D01*
X-9650Y8600D01*
X-9567Y8684D01*
X-9483D01*
X-9650Y8600D02*
Y8434D01*
X24333Y31500D02*
X24167D01*
X24250D01*
Y31083D01*
X24167Y31000D01*
X24083D01*
X24000Y31083D01*
X24833Y31000D02*
X24500D01*
X24833Y31333D01*
Y31417D01*
X24750Y31500D01*
X24583D01*
X24500Y31417D01*
X25000D02*
X25083Y31500D01*
X25250D01*
X25333Y31417D01*
Y31083D01*
X25250Y31000D01*
X25083D01*
X25000Y31083D01*
Y31417D01*
X27833Y8517D02*
X27750Y8600D01*
X27583D01*
X27500Y8517D01*
Y8183D01*
X27583Y8100D01*
X27750D01*
X27833Y8183D01*
X28333Y8100D02*
X28000D01*
X28333Y8433D01*
Y8517D01*
X28250Y8600D01*
X28083D01*
X28000Y8517D01*
X28500D02*
X28583Y8600D01*
X28750D01*
X28833Y8517D01*
Y8433D01*
X28750Y8350D01*
X28666D01*
X28750D01*
X28833Y8267D01*
Y8183D01*
X28750Y8100D01*
X28583D01*
X28500Y8183D01*
X23733Y8417D02*
X23650Y8500D01*
X23483D01*
X23400Y8417D01*
Y8083D01*
X23483Y8000D01*
X23650D01*
X23733Y8083D01*
X24233Y8000D02*
X23900D01*
X24233Y8333D01*
Y8417D01*
X24150Y8500D01*
X23983D01*
X23900Y8417D01*
X24733Y8000D02*
X24400D01*
X24733Y8333D01*
Y8417D01*
X24650Y8500D01*
X24483D01*
X24400Y8417D01*
X30167Y23388D02*
X30167Y23506D01*
X30049Y23624D01*
X29931D01*
X29695Y23388D01*
Y23270D01*
X29813Y23152D01*
X29931Y23152D01*
X30225Y22740D02*
X29990Y22976D01*
X30461D01*
X30520Y23035D01*
X30520Y23152D01*
X30402Y23270D01*
X30284D01*
X30343Y22622D02*
X30461Y22504D01*
X30402Y22563D01*
X30756Y22917D01*
X30638D01*
X6100Y2667D02*
Y2833D01*
Y2750D01*
X5683D01*
X5600Y2833D01*
Y2917D01*
X5683Y3000D01*
X5600Y2167D02*
Y2500D01*
X5933Y2167D01*
X6017D01*
X6100Y2250D01*
Y2417D01*
X6017Y2500D01*
X-19267Y29700D02*
X-19433D01*
X-19350D01*
Y29283D01*
X-19433Y29200D01*
X-19517D01*
X-19600Y29283D01*
X-19100Y29200D02*
X-18934D01*
X-19017D01*
Y29700D01*
X-19100Y29617D01*
X-18434Y29200D02*
Y29700D01*
X-18684Y29450D01*
X-18350D01*
X-12500Y9031D02*
Y8615D01*
X-12417Y8532D01*
X-12250D01*
X-12167Y8615D01*
Y9031D01*
X-12000Y8948D02*
X-11917Y9031D01*
X-11750D01*
X-11667Y8948D01*
Y8865D01*
X-11750Y8781D01*
X-11667Y8698D01*
Y8615D01*
X-11750Y8532D01*
X-11917D01*
X-12000Y8615D01*
Y8698D01*
X-11917Y8781D01*
X-12000Y8865D01*
Y8948D01*
X-11917Y8781D02*
X-11750D01*
X2000Y4600D02*
Y4183D01*
X2083Y4100D01*
X2250D01*
X2333Y4183D01*
Y4600D01*
X2750Y4100D02*
Y4600D01*
X2500Y4350D01*
X2833D01*
X1800Y18900D02*
Y18483D01*
X1883Y18400D01*
X2050D01*
X2133Y18483D01*
Y18900D01*
X2300Y18817D02*
X2383Y18900D01*
X2550D01*
X2633Y18817D01*
Y18733D01*
X2550Y18650D01*
X2466D01*
X2550D01*
X2633Y18567D01*
Y18483D01*
X2550Y18400D01*
X2383D01*
X2300Y18483D01*
X1100Y13200D02*
Y12783D01*
X1183Y12700D01*
X1350D01*
X1433Y12783D01*
Y13200D01*
X1933Y12700D02*
X1600D01*
X1933Y13033D01*
Y13117D01*
X1850Y13200D01*
X1683D01*
X1600Y13117D01*
X-12100Y25400D02*
X-11683D01*
X-11600Y25483D01*
Y25650D01*
X-11683Y25733D01*
X-12100D01*
X-11600Y25900D02*
Y26066D01*
Y25983D01*
X-12100D01*
X-12017Y25900D01*
X-11600Y26316D02*
Y26483D01*
Y26400D01*
X-12100D01*
X-12017Y26316D01*
X7900Y13200D02*
Y12783D01*
X7983Y12700D01*
X8150D01*
X8233Y12783D01*
Y13200D01*
X8400Y12700D02*
X8566D01*
X8483D01*
Y13200D01*
X8400Y13117D01*
X5800Y18150D02*
X6133D01*
X5967D01*
Y17650D01*
X6300D02*
Y18150D01*
X6550D01*
X6633Y18067D01*
Y17900D01*
X6550Y17817D01*
X6300D01*
X7133Y18150D02*
X6966Y18067D01*
X6800Y17900D01*
Y17733D01*
X6883Y17650D01*
X7050D01*
X7133Y17733D01*
Y17817D01*
X7050Y17900D01*
X6800D01*
X-9100Y28200D02*
Y28533D01*
Y28367D01*
X-8600D01*
Y28700D02*
X-9100D01*
Y28950D01*
X-9017Y29033D01*
X-8850D01*
X-8767Y28950D01*
Y28700D01*
X-8600Y29200D02*
Y29366D01*
Y29283D01*
X-9100D01*
X-9017Y29200D01*
X-9100Y29949D02*
X-9017Y29783D01*
X-8850Y29616D01*
X-8683D01*
X-8600Y29700D01*
Y29866D01*
X-8683Y29949D01*
X-8767D01*
X-8850Y29866D01*
Y29616D01*
X-14200Y30700D02*
X-13867D01*
X-14033D01*
Y30200D01*
X-13700D02*
Y30700D01*
X-13450D01*
X-13367Y30617D01*
Y30450D01*
X-13450Y30367D01*
X-13700D01*
X-13200Y30200D02*
X-13034D01*
X-13117D01*
Y30700D01*
X-13200Y30617D01*
X-12451Y30700D02*
X-12784D01*
Y30450D01*
X-12617Y30533D01*
X-12534D01*
X-12451Y30450D01*
Y30283D01*
X-12534Y30200D01*
X-12700D01*
X-12784Y30283D01*
X12733Y7000D02*
X12400D01*
Y6750D01*
X12567Y6833D01*
X12650D01*
X12733Y6750D01*
Y6583D01*
X12650Y6500D01*
X12483D01*
X12400Y6583D01*
X12900Y7000D02*
Y6667D01*
X13066Y6500D01*
X13233Y6667D01*
Y7000D01*
X13400D02*
Y6500D01*
X13650D01*
X13733Y6583D01*
Y6917D01*
X13650Y7000D01*
X13400D01*
X14233Y6917D02*
X14149Y7000D01*
X13983D01*
X13900Y6917D01*
Y6583D01*
X13983Y6500D01*
X14149D01*
X14233Y6583D01*
X12500Y7800D02*
X12833D01*
X12667D01*
Y7300D01*
X13000D02*
Y7800D01*
X13250D01*
X13333Y7717D01*
Y7550D01*
X13250Y7467D01*
X13000D01*
X13500Y7300D02*
X13666D01*
X13583D01*
Y7800D01*
X13500Y7717D01*
X14166Y7300D02*
Y7800D01*
X13916Y7550D01*
X14249D01*
X27100Y7700D02*
X27433D01*
X27267D01*
Y7200D01*
X27600D02*
Y7700D01*
X27850D01*
X27933Y7617D01*
Y7450D01*
X27850Y7367D01*
X27600D01*
X28100Y7200D02*
X28266D01*
X28183D01*
Y7700D01*
X28100Y7617D01*
X28516D02*
X28600Y7700D01*
X28766D01*
X28849Y7617D01*
Y7533D01*
X28766Y7450D01*
X28683D01*
X28766D01*
X28849Y7367D01*
Y7283D01*
X28766Y7200D01*
X28600D01*
X28516Y7283D01*
X-12400Y21650D02*
X-12067D01*
X-12233D01*
Y21150D01*
X-11900D02*
Y21650D01*
X-11650D01*
X-11567Y21567D01*
Y21400D01*
X-11650Y21317D01*
X-11900D01*
X-11400Y21150D02*
X-11234D01*
X-11317D01*
Y21650D01*
X-11400Y21567D01*
X-10651Y21150D02*
X-10984D01*
X-10651Y21483D01*
Y21567D01*
X-10734Y21650D01*
X-10900D01*
X-10984Y21567D01*
X-17300Y14400D02*
X-16967D01*
X-17133D01*
Y13900D01*
X-16800D02*
Y14400D01*
X-16550D01*
X-16467Y14317D01*
Y14150D01*
X-16550Y14067D01*
X-16800D01*
X-16300Y13900D02*
X-16134D01*
X-16217D01*
Y14400D01*
X-16300Y14317D01*
X-15884Y13900D02*
X-15717D01*
X-15800D01*
Y14400D01*
X-15884Y14317D01*
X-2800Y11200D02*
X-2467D01*
X-2633D01*
Y10700D01*
X-2300D02*
Y11200D01*
X-2050D01*
X-1967Y11117D01*
Y10950D01*
X-2050Y10867D01*
X-2300D01*
X-1800Y10700D02*
X-1634D01*
X-1717D01*
Y11200D01*
X-1800Y11117D01*
X13200Y19440D02*
X12700D01*
Y19690D01*
X12783Y19773D01*
X12950D01*
X13033Y19690D01*
Y19440D01*
Y19607D02*
X13200Y19773D01*
X13117Y19940D02*
X13200Y20023D01*
Y20190D01*
X13117Y20273D01*
X12783D01*
X12700Y20190D01*
Y20023D01*
X12783Y19940D01*
X12867D01*
X12950Y20023D01*
Y20273D01*
X6600Y5000D02*
X6100D01*
Y5250D01*
X6183Y5333D01*
X6350D01*
X6433Y5250D01*
Y5000D01*
Y5167D02*
X6600Y5333D01*
X6100Y5500D02*
Y5833D01*
X6183D01*
X6517Y5500D01*
X6600D01*
X8500Y14800D02*
X8000D01*
Y15050D01*
X8083Y15133D01*
X8250D01*
X8333Y15050D01*
Y14800D01*
Y14967D02*
X8500Y15133D01*
X8000Y15633D02*
X8083Y15466D01*
X8250Y15300D01*
X8417D01*
X8500Y15383D01*
Y15550D01*
X8417Y15633D01*
X8333D01*
X8250Y15550D01*
Y15300D01*
X-2100Y24240D02*
X-2600D01*
Y24490D01*
X-2517Y24573D01*
X-2350D01*
X-2267Y24490D01*
Y24240D01*
Y24407D02*
X-2100Y24573D01*
X-2600Y25073D02*
Y24740D01*
X-2350D01*
X-2433Y24906D01*
Y24990D01*
X-2350Y25073D01*
X-2183D01*
X-2100Y24990D01*
Y24823D01*
X-2183Y24740D01*
X-2100Y25573D02*
Y25240D01*
X-2433Y25573D01*
X-2517D01*
X-2600Y25490D01*
Y25323D01*
X-2517Y25240D01*
X-3100Y28900D02*
X-3600D01*
Y29150D01*
X-3517Y29233D01*
X-3350D01*
X-3267Y29150D01*
Y28900D01*
Y29067D02*
X-3100Y29233D01*
X-3600Y29733D02*
Y29400D01*
X-3350D01*
X-3433Y29566D01*
Y29650D01*
X-3350Y29733D01*
X-3183D01*
X-3100Y29650D01*
Y29483D01*
X-3183Y29400D01*
X-3100Y29900D02*
Y30066D01*
Y29983D01*
X-3600D01*
X-3517Y29900D01*
X11600Y14800D02*
X11100D01*
Y15050D01*
X11183Y15133D01*
X11350D01*
X11433Y15050D01*
Y14800D01*
Y14967D02*
X11600Y15133D01*
X11100Y15633D02*
Y15300D01*
X11350D01*
X11267Y15466D01*
Y15550D01*
X11350Y15633D01*
X11517D01*
X11600Y15550D01*
Y15383D01*
X11517Y15300D01*
X-5700Y22900D02*
X-6200D01*
Y23150D01*
X-6117Y23233D01*
X-5950D01*
X-5867Y23150D01*
Y22900D01*
Y23067D02*
X-5700Y23233D01*
Y23650D02*
X-6200D01*
X-5950Y23400D01*
Y23733D01*
X-5783Y23900D02*
X-5700Y23983D01*
Y24150D01*
X-5783Y24233D01*
X-6117D01*
X-6200Y24150D01*
Y23983D01*
X-6117Y23900D01*
X-6033D01*
X-5950Y23983D01*
Y24233D01*
X-5800Y28900D02*
X-6300D01*
Y29150D01*
X-6217Y29233D01*
X-6050D01*
X-5967Y29150D01*
Y28900D01*
Y29067D02*
X-5800Y29233D01*
Y29650D02*
X-6300D01*
X-6050Y29400D01*
Y29733D01*
X-6217Y29900D02*
X-6300Y29983D01*
Y30150D01*
X-6217Y30233D01*
X-6133D01*
X-6050Y30150D01*
X-5967Y30233D01*
X-5883D01*
X-5800Y30150D01*
Y29983D01*
X-5883Y29900D01*
X-5967D01*
X-6050Y29983D01*
X-6133Y29900D01*
X-6217D01*
X-6050Y29983D02*
Y30150D01*
X-6900Y22900D02*
X-7400D01*
Y23150D01*
X-7317Y23233D01*
X-7150D01*
X-7067Y23150D01*
Y22900D01*
Y23067D02*
X-6900Y23233D01*
Y23650D02*
X-7400D01*
X-7150Y23400D01*
Y23733D01*
X-6900Y24150D02*
X-7400D01*
X-7150Y23900D01*
Y24233D01*
X-6900Y28900D02*
X-7400D01*
Y29150D01*
X-7317Y29233D01*
X-7150D01*
X-7067Y29150D01*
Y28900D01*
Y29067D02*
X-6900Y29233D01*
Y29650D02*
X-7400D01*
X-7150Y29400D01*
Y29733D01*
X-7317Y29900D02*
X-7400Y29983D01*
Y30150D01*
X-7317Y30233D01*
X-7233D01*
X-7150Y30150D01*
Y30066D01*
Y30150D01*
X-7067Y30233D01*
X-6983D01*
X-6900Y30150D01*
Y29983D01*
X-6983Y29900D01*
X13800Y14800D02*
X13300D01*
Y15050D01*
X13383Y15133D01*
X13550D01*
X13633Y15050D01*
Y14800D01*
Y14967D02*
X13800Y15133D01*
Y15550D02*
X13300D01*
X13550Y15300D01*
Y15633D01*
X13800Y15800D02*
Y15966D01*
Y15883D01*
X13300D01*
X13383Y15800D01*
X-12900Y22300D02*
Y22800D01*
X-12650D01*
X-12567Y22717D01*
Y22550D01*
X-12650Y22467D01*
X-12900D01*
X-12733D02*
X-12567Y22300D01*
X-12150D02*
Y22800D01*
X-12400Y22550D01*
X-12067D01*
X-11900Y22717D02*
X-11817Y22800D01*
X-11650D01*
X-11567Y22717D01*
Y22383D01*
X-11650Y22300D01*
X-11817D01*
X-11900Y22383D01*
Y22717D01*
X14700Y17520D02*
X14200D01*
Y17770D01*
X14283Y17853D01*
X14450D01*
X14533Y17770D01*
Y17520D01*
Y17687D02*
X14700Y17853D01*
X14283Y18020D02*
X14200Y18103D01*
Y18270D01*
X14283Y18353D01*
X14367D01*
X14450Y18270D01*
Y18186D01*
Y18270D01*
X14533Y18353D01*
X14617D01*
X14700Y18270D01*
Y18103D01*
X14617Y18020D01*
X14200Y18520D02*
Y18853D01*
X14283D01*
X14617Y18520D01*
X14700D01*
X24800Y17000D02*
X24300D01*
Y17250D01*
X24383Y17333D01*
X24550D01*
X24633Y17250D01*
Y17000D01*
Y17167D02*
X24800Y17333D01*
X24383Y17500D02*
X24300Y17583D01*
Y17750D01*
X24383Y17833D01*
X24467D01*
X24550Y17750D01*
Y17666D01*
Y17750D01*
X24633Y17833D01*
X24717D01*
X24800Y17750D01*
Y17583D01*
X24717Y17500D01*
X24300Y18333D02*
X24383Y18166D01*
X24550Y18000D01*
X24717D01*
X24800Y18083D01*
Y18250D01*
X24717Y18333D01*
X24633D01*
X24550Y18250D01*
Y18000D01*
X-2100Y22600D02*
X-2600D01*
Y22850D01*
X-2517Y22933D01*
X-2350D01*
X-2267Y22850D01*
Y22600D01*
Y22767D02*
X-2100Y22933D01*
X-2517Y23100D02*
X-2600Y23183D01*
Y23350D01*
X-2517Y23433D01*
X-2433D01*
X-2350Y23350D01*
Y23266D01*
Y23350D01*
X-2267Y23433D01*
X-2183D01*
X-2100Y23350D01*
Y23183D01*
X-2183Y23100D01*
X-2600Y23933D02*
Y23600D01*
X-2350D01*
X-2433Y23766D01*
Y23850D01*
X-2350Y23933D01*
X-2183D01*
X-2100Y23850D01*
Y23683D01*
X-2183Y23600D01*
X-5800Y18400D02*
X-6300D01*
Y18650D01*
X-6217Y18733D01*
X-6050D01*
X-5967Y18650D01*
Y18400D01*
Y18567D02*
X-5800Y18733D01*
X-6217Y18900D02*
X-6300Y18983D01*
Y19150D01*
X-6217Y19233D01*
X-6133D01*
X-6050Y19150D01*
Y19066D01*
Y19150D01*
X-5967Y19233D01*
X-5883D01*
X-5800Y19150D01*
Y18983D01*
X-5883Y18900D01*
X-5800Y19400D02*
Y19566D01*
Y19483D01*
X-6300D01*
X-6217Y19400D01*
X-4900Y5000D02*
X-5400D01*
Y5250D01*
X-5317Y5333D01*
X-5150D01*
X-5067Y5250D01*
Y5000D01*
Y5167D02*
X-4900Y5333D01*
X-5317Y5500D02*
X-5400Y5583D01*
Y5750D01*
X-5317Y5833D01*
X-5233D01*
X-5150Y5750D01*
Y5666D01*
Y5750D01*
X-5067Y5833D01*
X-4983D01*
X-4900Y5750D01*
Y5583D01*
X-4983Y5500D01*
X-5317Y6000D02*
X-5400Y6083D01*
Y6250D01*
X-5317Y6333D01*
X-4983D01*
X-4900Y6250D01*
Y6083D01*
X-4983Y6000D01*
X-5317D01*
X-1100Y17100D02*
X-1600D01*
Y17350D01*
X-1517Y17433D01*
X-1350D01*
X-1267Y17350D01*
Y17100D01*
Y17267D02*
X-1100Y17433D01*
X-1517Y17600D02*
X-1600Y17683D01*
Y17850D01*
X-1517Y17933D01*
X-1433D01*
X-1350Y17850D01*
Y17766D01*
Y17850D01*
X-1267Y17933D01*
X-1183D01*
X-1100Y17850D01*
Y17683D01*
X-1183Y17600D01*
X-10800Y4800D02*
X-11300D01*
Y5050D01*
X-11217Y5133D01*
X-11050D01*
X-10967Y5050D01*
Y4800D01*
Y4967D02*
X-10800Y5133D01*
Y5633D02*
Y5300D01*
X-11133Y5633D01*
X-11217D01*
X-11300Y5550D01*
Y5383D01*
X-11217Y5300D01*
Y5800D02*
X-11300Y5883D01*
Y6050D01*
X-11217Y6133D01*
X-11133D01*
X-11050Y6050D01*
X-10967Y6133D01*
X-10883D01*
X-10800Y6050D01*
Y5883D01*
X-10883Y5800D01*
X-10967D01*
X-11050Y5883D01*
X-11133Y5800D01*
X-11217D01*
X-11050Y5883D02*
Y6050D01*
X-6900Y18400D02*
X-7400D01*
Y18650D01*
X-7317Y18733D01*
X-7150D01*
X-7067Y18650D01*
Y18400D01*
Y18567D02*
X-6900Y18733D01*
Y19233D02*
Y18900D01*
X-7233Y19233D01*
X-7317D01*
X-7400Y19150D01*
Y18983D01*
X-7317Y18900D01*
X-7400Y19400D02*
Y19733D01*
X-7317D01*
X-6983Y19400D01*
X-6900D01*
X-13800Y4800D02*
X-14300D01*
Y5050D01*
X-14217Y5133D01*
X-14050D01*
X-13967Y5050D01*
Y4800D01*
Y4967D02*
X-13800Y5133D01*
Y5633D02*
Y5300D01*
X-14133Y5633D01*
X-14217D01*
X-14300Y5550D01*
Y5383D01*
X-14217Y5300D01*
X-14300Y6133D02*
X-14217Y5966D01*
X-14050Y5800D01*
X-13883D01*
X-13800Y5883D01*
Y6050D01*
X-13883Y6133D01*
X-13967D01*
X-14050Y6050D01*
Y5800D01*
X-11400Y15200D02*
X-11900D01*
Y15450D01*
X-11817Y15533D01*
X-11650D01*
X-11567Y15450D01*
Y15200D01*
Y15367D02*
X-11400Y15533D01*
Y16033D02*
Y15700D01*
X-11733Y16033D01*
X-11817D01*
X-11900Y15950D01*
Y15783D01*
X-11817Y15700D01*
X-11900Y16533D02*
Y16200D01*
X-11650D01*
X-11733Y16366D01*
Y16450D01*
X-11650Y16533D01*
X-11483D01*
X-11400Y16450D01*
Y16283D01*
X-11483Y16200D01*
X-16800Y4800D02*
X-17300D01*
Y5050D01*
X-17217Y5133D01*
X-17050D01*
X-16967Y5050D01*
Y4800D01*
Y4967D02*
X-16800Y5133D01*
Y5633D02*
Y5300D01*
X-17133Y5633D01*
X-17217D01*
X-17300Y5550D01*
Y5383D01*
X-17217Y5300D01*
X-16800Y6050D02*
X-17300D01*
X-17050Y5800D01*
Y6133D01*
X-12600Y15200D02*
X-13100D01*
Y15450D01*
X-13017Y15533D01*
X-12850D01*
X-12767Y15450D01*
Y15200D01*
Y15367D02*
X-12600Y15533D01*
Y16033D02*
Y15700D01*
X-12933Y16033D01*
X-13017D01*
X-13100Y15950D01*
Y15783D01*
X-13017Y15700D01*
Y16200D02*
X-13100Y16283D01*
Y16450D01*
X-13017Y16533D01*
X-12933D01*
X-12850Y16450D01*
Y16366D01*
Y16450D01*
X-12767Y16533D01*
X-12683D01*
X-12600Y16450D01*
Y16283D01*
X-12683Y16200D01*
X-10200Y15200D02*
X-10700D01*
Y15450D01*
X-10617Y15533D01*
X-10450D01*
X-10367Y15450D01*
Y15200D01*
Y15367D02*
X-10200Y15533D01*
Y16033D02*
Y15700D01*
X-10533Y16033D01*
X-10617D01*
X-10700Y15950D01*
Y15783D01*
X-10617Y15700D01*
X-10200Y16533D02*
Y16200D01*
X-10533Y16533D01*
X-10617D01*
X-10700Y16450D01*
Y16283D01*
X-10617Y16200D01*
X-9000Y15200D02*
X-9500D01*
Y15450D01*
X-9417Y15533D01*
X-9250D01*
X-9167Y15450D01*
Y15200D01*
Y15367D02*
X-9000Y15533D01*
Y16033D02*
Y15700D01*
X-9333Y16033D01*
X-9417D01*
X-9500Y15950D01*
Y15783D01*
X-9417Y15700D01*
X-9000Y16200D02*
Y16366D01*
Y16283D01*
X-9500D01*
X-9417Y16200D01*
X11500Y6700D02*
X11000D01*
Y6950D01*
X11083Y7033D01*
X11250D01*
X11333Y6950D01*
Y6700D01*
Y6867D02*
X11500Y7033D01*
Y7533D02*
Y7200D01*
X11167Y7533D01*
X11083D01*
X11000Y7450D01*
Y7283D01*
X11083Y7200D01*
X-8600Y9600D02*
X-8100D01*
Y9350D01*
X-8183Y9267D01*
X-8350D01*
X-8433Y9350D01*
Y9600D01*
Y9433D02*
X-8600Y9267D01*
Y9100D02*
Y8934D01*
Y9017D01*
X-8100D01*
X-8183Y9100D01*
Y8684D02*
X-8100Y8600D01*
Y8434D01*
X-8183Y8350D01*
X-8267D01*
X-8350Y8434D01*
X-8433Y8350D01*
X-8517D01*
X-8600Y8434D01*
Y8600D01*
X-8517Y8684D01*
X-8433D01*
X-8350Y8600D01*
X-8267Y8684D01*
X-8183D01*
X-8350Y8600D02*
Y8434D01*
X-1000Y26400D02*
Y26900D01*
X-750D01*
X-667Y26817D01*
Y26650D01*
X-750Y26567D01*
X-1000D01*
X-833D02*
X-667Y26400D01*
X-500D02*
X-334D01*
X-417D01*
Y26900D01*
X-500Y26817D01*
X166Y26400D02*
Y26900D01*
X-84Y26650D01*
X250D01*
X5400Y14200D02*
X4900D01*
Y14450D01*
X4983Y14533D01*
X5150D01*
X5233Y14450D01*
Y14200D01*
Y14367D02*
X5400Y14533D01*
Y14700D02*
Y14866D01*
Y14783D01*
X4900D01*
X4983Y14700D01*
X5400Y15116D02*
Y15283D01*
Y15200D01*
X4900D01*
X4983Y15116D01*
X8100Y5100D02*
X7600D01*
Y5350D01*
X7683Y5433D01*
X7850D01*
X7933Y5350D01*
Y5100D01*
Y5267D02*
X8100Y5433D01*
Y5600D02*
Y5766D01*
Y5683D01*
X7600D01*
X7683Y5600D01*
X9433Y31100D02*
X9267D01*
X9350D01*
Y30683D01*
X9267Y30600D01*
X9183D01*
X9100Y30683D01*
X9600D02*
X9683Y30600D01*
X9850D01*
X9933Y30683D01*
Y31017D01*
X9850Y31100D01*
X9683D01*
X9600Y31017D01*
Y30933D01*
X9683Y30850D01*
X9933D01*
X3433Y31100D02*
X3267D01*
X3350D01*
Y30683D01*
X3267Y30600D01*
X3183D01*
X3100Y30683D01*
X3600Y31017D02*
X3683Y31100D01*
X3850D01*
X3933Y31017D01*
Y30933D01*
X3850Y30850D01*
X3933Y30767D01*
Y30683D01*
X3850Y30600D01*
X3683D01*
X3600Y30683D01*
Y30767D01*
X3683Y30850D01*
X3600Y30933D01*
Y31017D01*
X3683Y30850D02*
X3850D01*
X27100Y4333D02*
Y4167D01*
Y4250D01*
X27517D01*
X27600Y4167D01*
Y4083D01*
X27517Y4000D01*
X27100Y4833D02*
X27183Y4666D01*
X27350Y4500D01*
X27517D01*
X27600Y4583D01*
Y4750D01*
X27517Y4833D01*
X27433D01*
X27350Y4750D01*
Y4500D01*
X22600Y4333D02*
Y4167D01*
Y4250D01*
X23017D01*
X23100Y4167D01*
Y4083D01*
X23017Y4000D01*
X22600Y4833D02*
Y4500D01*
X22850D01*
X22767Y4666D01*
Y4750D01*
X22850Y4833D01*
X23017D01*
X23100Y4750D01*
Y4583D01*
X23017Y4500D01*
X-33067Y9700D02*
X-33233D01*
X-33150D01*
Y9283D01*
X-33233Y9200D01*
X-33317D01*
X-33400Y9283D01*
X-32650Y9200D02*
Y9700D01*
X-32900Y9450D01*
X-32567D01*
X18100Y4333D02*
Y4167D01*
Y4250D01*
X18517D01*
X18600Y4167D01*
Y4083D01*
X18517Y4000D01*
X18183Y4500D02*
X18100Y4583D01*
Y4750D01*
X18183Y4833D01*
X18267D01*
X18350Y4750D01*
Y4666D01*
Y4750D01*
X18433Y4833D01*
X18517D01*
X18600Y4750D01*
Y4583D01*
X18517Y4500D01*
X-4975Y2767D02*
Y2933D01*
Y2850D01*
X-5392D01*
X-5475Y2933D01*
Y3017D01*
X-5392Y3100D01*
X-5475Y2600D02*
Y2434D01*
Y2517D01*
X-4975D01*
X-5058Y2600D01*
Y2184D02*
X-4975Y2100D01*
Y1934D01*
X-5058Y1850D01*
X-5142D01*
X-5225Y1934D01*
X-5308Y1850D01*
X-5392D01*
X-5475Y1934D01*
Y2100D01*
X-5392Y2184D01*
X-5308D01*
X-5225Y2100D01*
X-5142Y2184D01*
X-5058D01*
X-5225Y2100D02*
Y1934D01*
X-8600Y2867D02*
Y3033D01*
Y2950D01*
X-9017D01*
X-9100Y3033D01*
Y3117D01*
X-9017Y3200D01*
X-9100Y2700D02*
Y2534D01*
Y2617D01*
X-8600D01*
X-8683Y2700D01*
X-8600Y2284D02*
Y1950D01*
X-8683D01*
X-9017Y2284D01*
X-9100D01*
X-11600Y2867D02*
Y3033D01*
Y2950D01*
X-12017D01*
X-12100Y3033D01*
Y3117D01*
X-12017Y3200D01*
X-12100Y2700D02*
Y2534D01*
Y2617D01*
X-11600D01*
X-11683Y2700D01*
X-11600Y1950D02*
X-11683Y2117D01*
X-11850Y2284D01*
X-12017D01*
X-12100Y2200D01*
Y2034D01*
X-12017Y1950D01*
X-11933D01*
X-11850Y2034D01*
Y2284D01*
X-14600Y2867D02*
Y3033D01*
Y2950D01*
X-15017D01*
X-15100Y3033D01*
Y3117D01*
X-15017Y3200D01*
X-15100Y2700D02*
Y2534D01*
Y2617D01*
X-14600D01*
X-14683Y2700D01*
X-14600Y1950D02*
Y2284D01*
X-14850D01*
X-14767Y2117D01*
Y2034D01*
X-14850Y1950D01*
X-15017D01*
X-15100Y2034D01*
Y2200D01*
X-15017Y2284D01*
X11500Y2467D02*
Y2633D01*
Y2550D01*
X11083D01*
X11000Y2633D01*
Y2717D01*
X11083Y2800D01*
X11000Y2300D02*
Y2134D01*
Y2217D01*
X11500D01*
X11417Y2300D01*
X8933Y25617D02*
X8850Y25700D01*
X8683D01*
X8600Y25617D01*
Y25283D01*
X8683Y25200D01*
X8850D01*
X8933Y25283D01*
X9100D02*
X9183Y25200D01*
X9350D01*
X9433Y25283D01*
Y25617D01*
X9350Y25700D01*
X9183D01*
X9100Y25617D01*
Y25533D01*
X9183Y25450D01*
X9433D01*
X-31117Y14133D02*
X-31200Y14050D01*
Y13883D01*
X-31117Y13800D01*
X-30783D01*
X-30700Y13883D01*
Y14050D01*
X-30783Y14133D01*
X-31117Y14300D02*
X-31200Y14383D01*
Y14550D01*
X-31117Y14633D01*
X-31033D01*
X-30950Y14550D01*
X-30867Y14633D01*
X-30783D01*
X-30700Y14550D01*
Y14383D01*
X-30783Y14300D01*
X-30867D01*
X-30950Y14383D01*
X-31033Y14300D01*
X-31117D01*
X-30950Y14383D02*
Y14550D01*
X15483Y21233D02*
X15400Y21150D01*
Y20983D01*
X15483Y20900D01*
X15817D01*
X15900Y20983D01*
Y21150D01*
X15817Y21233D01*
X15400Y21400D02*
Y21733D01*
X15483D01*
X15817Y21400D01*
X15900D01*
X-702Y12333D02*
X-785Y12250D01*
Y12083D01*
X-702Y12000D01*
X-368D01*
X-285Y12083D01*
Y12250D01*
X-368Y12333D01*
X-785Y12833D02*
X-702Y12666D01*
X-535Y12500D01*
X-368D01*
X-285Y12583D01*
Y12750D01*
X-368Y12833D01*
X-452D01*
X-535Y12750D01*
Y12500D01*
X-1517Y15233D02*
X-1600Y15150D01*
Y14983D01*
X-1517Y14900D01*
X-1183D01*
X-1100Y14983D01*
Y15150D01*
X-1183Y15233D01*
X-1600Y15733D02*
Y15400D01*
X-1350D01*
X-1433Y15566D01*
Y15650D01*
X-1350Y15733D01*
X-1183D01*
X-1100Y15650D01*
Y15483D01*
X-1183Y15400D01*
X6203Y7233D02*
X6120Y7150D01*
Y6983D01*
X6203Y6900D01*
X6537D01*
X6620Y6983D01*
Y7150D01*
X6537Y7233D01*
X6620Y7650D02*
X6120D01*
X6370Y7400D01*
Y7733D01*
X5583Y12333D02*
X5500Y12250D01*
Y12083D01*
X5583Y12000D01*
X5917D01*
X6000Y12083D01*
Y12250D01*
X5917Y12333D01*
X5583Y12500D02*
X5500Y12583D01*
Y12750D01*
X5583Y12833D01*
X5667D01*
X5750Y12750D01*
Y12666D01*
Y12750D01*
X5833Y12833D01*
X5917D01*
X6000Y12750D01*
Y12583D01*
X5917Y12500D01*
X16833Y9117D02*
X16750Y9200D01*
X16583D01*
X16500Y9117D01*
Y8783D01*
X16583Y8700D01*
X16750D01*
X16833Y8783D01*
X17333Y8700D02*
X17000D01*
X17333Y9033D01*
Y9117D01*
X17250Y9200D01*
X17083D01*
X17000Y9117D01*
X17500Y9200D02*
X17833D01*
Y9117D01*
X17500Y8783D01*
Y8700D01*
X24383Y19733D02*
X24300Y19650D01*
Y19483D01*
X24383Y19400D01*
X24717D01*
X24800Y19483D01*
Y19650D01*
X24717Y19733D01*
X24800Y20233D02*
Y19900D01*
X24467Y20233D01*
X24383D01*
X24300Y20150D01*
Y19983D01*
X24383Y19900D01*
X24300Y20733D02*
X24383Y20566D01*
X24550Y20400D01*
X24717D01*
X24800Y20483D01*
Y20650D01*
X24717Y20733D01*
X24633D01*
X24550Y20650D01*
Y20400D01*
X24733Y14017D02*
X24650Y14100D01*
X24483D01*
X24400Y14017D01*
Y13683D01*
X24483Y13600D01*
X24650D01*
X24733Y13683D01*
X25233Y13600D02*
X24900D01*
X25233Y13933D01*
Y14017D01*
X25150Y14100D01*
X24983D01*
X24900Y14017D01*
X25733Y14100D02*
X25400D01*
Y13850D01*
X25566Y13933D01*
X25650D01*
X25733Y13850D01*
Y13683D01*
X25650Y13600D01*
X25483D01*
X25400Y13683D01*
X-16117Y15183D02*
X-16200Y15100D01*
Y14933D01*
X-16117Y14850D01*
X-15783D01*
X-15700Y14933D01*
Y15100D01*
X-15783Y15183D01*
X-15700Y15683D02*
Y15350D01*
X-16033Y15683D01*
X-16117D01*
X-16200Y15600D01*
Y15433D01*
X-16117Y15350D01*
Y15850D02*
X-16200Y15933D01*
Y16100D01*
X-16117Y16183D01*
X-15783D01*
X-15700Y16100D01*
Y15933D01*
X-15783Y15850D01*
X-16117D01*
X7683Y7633D02*
X7600Y7550D01*
Y7383D01*
X7683Y7300D01*
X8017D01*
X8100Y7383D01*
Y7550D01*
X8017Y7633D01*
X8100Y8133D02*
Y7800D01*
X7767Y8133D01*
X7683D01*
X7600Y8050D01*
Y7883D01*
X7683Y7800D01*
X-13367Y18933D02*
X-13450Y18850D01*
Y18683D01*
X-13367Y18600D01*
X-13033D01*
X-12950Y18683D01*
Y18850D01*
X-13033Y18933D01*
X-12950Y19100D02*
Y19266D01*
Y19183D01*
X-13450D01*
X-13367Y19100D01*
X-13033Y19516D02*
X-12950Y19600D01*
Y19766D01*
X-13033Y19850D01*
X-13367D01*
X-13450Y19766D01*
Y19600D01*
X-13367Y19516D01*
X-13283D01*
X-13200Y19600D01*
Y19850D01*
X9783Y7033D02*
X9700Y6950D01*
Y6783D01*
X9783Y6700D01*
X10117D01*
X10200Y6783D01*
Y6950D01*
X10117Y7033D01*
X10200Y7200D02*
Y7366D01*
Y7283D01*
X9700D01*
X9783Y7200D01*
X16600Y17000D02*
X17100D01*
X17200Y17100D01*
Y17300D01*
X17100Y17400D01*
X16600D01*
X17200Y17600D02*
Y17800D01*
Y17700D01*
X16600D01*
X16700Y17600D01*
Y18100D02*
X16600Y18200D01*
Y18400D01*
X16700Y18500D01*
X17100D01*
X17200Y18400D01*
Y18200D01*
X17100Y18100D01*
X16700D01*
X26600Y13600D02*
Y14100D01*
X26850D01*
X26933Y14017D01*
Y13850D01*
X26850Y13767D01*
X26600D01*
X26767D02*
X26933Y13600D01*
X27100Y14017D02*
X27183Y14100D01*
X27350D01*
X27433Y14017D01*
Y13933D01*
X27350Y13850D01*
X27266D01*
X27350D01*
X27433Y13767D01*
Y13683D01*
X27350Y13600D01*
X27183D01*
X27100Y13683D01*
X27600Y14017D02*
X27683Y14100D01*
X27850D01*
X27933Y14017D01*
Y13933D01*
X27850Y13850D01*
X27766D01*
X27850D01*
X27933Y13767D01*
Y13683D01*
X27850Y13600D01*
X27683D01*
X27600Y13683D01*
X26600Y14700D02*
Y15200D01*
X26850D01*
X26933Y15117D01*
Y14950D01*
X26850Y14867D01*
X26600D01*
X26767D02*
X26933Y14700D01*
X27100Y15117D02*
X27183Y15200D01*
X27350D01*
X27433Y15117D01*
Y15033D01*
X27350Y14950D01*
X27266D01*
X27350D01*
X27433Y14867D01*
Y14783D01*
X27350Y14700D01*
X27183D01*
X27100Y14783D01*
X27850Y14700D02*
Y15200D01*
X27600Y14950D01*
X27933D01*
X-8517Y23333D02*
X-8600Y23250D01*
Y23083D01*
X-8517Y23000D01*
X-8183D01*
X-8100Y23083D01*
Y23250D01*
X-8183Y23333D01*
X-8100Y23500D02*
Y23666D01*
Y23583D01*
X-8600D01*
X-8517Y23500D01*
Y23916D02*
X-8600Y24000D01*
Y24166D01*
X-8517Y24250D01*
X-8183D01*
X-8100Y24166D01*
Y24000D01*
X-8183Y23916D01*
X-8517D01*
X16400Y23920D02*
X15900D01*
Y24170D01*
X15983Y24253D01*
X16150D01*
X16233Y24170D01*
Y23920D01*
Y24087D02*
X16400Y24253D01*
Y24420D02*
Y24586D01*
Y24503D01*
X15900D01*
X15983Y24420D01*
X15900Y25170D02*
Y24836D01*
X16150D01*
X16067Y25003D01*
Y25086D01*
X16150Y25170D01*
X16317D01*
X16400Y25086D01*
Y24920D01*
X16317Y24836D01*
X-25267Y27617D02*
X-25350Y27700D01*
X-25517D01*
X-25600Y27617D01*
Y27283D01*
X-25517Y27200D01*
X-25350D01*
X-25267Y27283D01*
Y27450D01*
X-25433D01*
X-25100Y27200D02*
Y27700D01*
X-24767Y27200D01*
Y27700D01*
X-24600D02*
Y27200D01*
X-24350D01*
X-24267Y27283D01*
Y27617D01*
X-24350Y27700D01*
X-24600D01*
X11333Y13617D02*
X11250Y13700D01*
X11083D01*
X11000Y13617D01*
Y13283D01*
X11083Y13200D01*
X11250D01*
X11333Y13283D01*
Y13450D01*
X11167D01*
X11833Y13200D02*
X11500D01*
X11833Y13533D01*
Y13617D01*
X11750Y13700D01*
X11583D01*
X11500Y13617D01*
X-6367Y17617D02*
X-6450Y17700D01*
X-6617D01*
X-6700Y17617D01*
Y17283D01*
X-6617Y17200D01*
X-6450D01*
X-6367Y17283D01*
Y17450D01*
X-6533D01*
X-6200Y17200D02*
Y17700D01*
X-5867Y17200D01*
Y17700D01*
X-5700D02*
Y17200D01*
X-5450D01*
X-5367Y17283D01*
Y17617D01*
X-5450Y17700D01*
X-5700D01*
X18284Y10425D02*
X18817D01*
X18551Y10692D02*
Y10158D01*
D54*
X-10259Y11066D02*
X-10355Y11047D01*
X-10436Y10993D01*
X-10490Y10911D01*
X-10509Y10816D01*
X-10490Y10720D01*
X-10436Y10639D01*
X-10355Y10585D01*
X-10259Y10566D01*
X4441Y6666D02*
X4345Y6647D01*
X4264Y6593D01*
X4210Y6511D01*
X4191Y6416D01*
X4210Y6320D01*
X4264Y6239D01*
X4345Y6185D01*
X4441Y6166D01*
X259Y16234D02*
X355Y16253D01*
X436Y16307D01*
X490Y16389D01*
X509Y16484D01*
X490Y16580D01*
X436Y16661D01*
X355Y16715D01*
X259Y16734D01*
Y10534D02*
X355Y10553D01*
X436Y10607D01*
X490Y10689D01*
X509Y10784D01*
X490Y10880D01*
X436Y10961D01*
X355Y11015D01*
X259Y11034D01*
X-11302Y25650D02*
X-11207Y25669D01*
X-11126Y25723D01*
X-11071Y25804D01*
X-11052Y25900D01*
X-11071Y25996D01*
X-11126Y26077D01*
X-11207Y26131D01*
X-11302Y26150D01*
X6459Y10534D02*
X6555Y10553D01*
X6636Y10607D01*
X6690Y10689D01*
X6709Y10784D01*
X6690Y10880D01*
X6636Y10961D01*
X6555Y11015D01*
X6459Y11034D01*
X22600Y17981D02*
X22504Y17962D01*
X22423Y17908D01*
X22369Y17827D01*
X22350Y17731D01*
X22369Y17636D01*
X22423Y17555D01*
X22504Y17501D01*
X22600Y17481D01*
X7207Y20463D02*
X10593D01*
X7207Y23849D02*
X10396D01*
X7207Y20463D02*
Y23849D01*
X10593Y20463D02*
Y23652D01*
X10396Y23849D02*
X10593Y23652D01*
X-10259Y11603D02*
X-10259Y11066D01*
X-13941Y10028D02*
Y11603D01*
X-10259Y10028D02*
Y10566D01*
X4441Y6166D02*
X4441Y5628D01*
X259Y5628D02*
Y7203D01*
X4441Y6666D02*
X4441Y7203D01*
X259Y16734D02*
Y17272D01*
X4441Y15697D02*
Y17272D01*
X259Y15697D02*
Y16234D01*
Y11034D02*
Y11572D01*
X4441Y9997D02*
Y11572D01*
X259Y9997D02*
Y10534D01*
X-11302Y25113D02*
X-11302Y25650D01*
X-9098Y26687D02*
X-9098Y25113D01*
X-11302Y26150D02*
X-11302Y26687D01*
X6459Y9997D02*
Y10534D01*
X10141Y11572D02*
X10141Y9997D01*
X6459Y11034D02*
X6459Y11572D01*
X22600Y17981D02*
Y18931D01*
X17500Y18931D02*
X17500Y16531D01*
X22600Y16531D02*
X22600Y17481D01*
D55*
X34200Y12250D02*
X34400D01*
X34200Y11000D02*
X34400D01*
X34200D02*
Y12250D01*
D56*
X20420Y26800D02*
Y29800D01*
X20450Y26850D02*
X29780Y26850D01*
X20450Y26900D02*
X29780D01*
X20450Y26950D02*
X29780Y26950D01*
X20450Y27000D02*
X29780Y27000D01*
X20450Y27050D02*
X29780Y27050D01*
X20450Y27100D02*
X29780D01*
X20450Y27150D02*
X29780Y27150D01*
X20450Y27200D02*
X29780Y27200D01*
X20450Y29800D02*
X29780Y29800D01*
X20450Y26800D02*
X29780Y26800D01*
X29780Y29800D02*
X29780Y26800D01*
X-21700Y18100D02*
Y18400D01*
Y16800D02*
Y17100D01*
X-23000Y18400D02*
X-21700Y18400D01*
X-23000Y16800D02*
X-21700Y16800D01*
X5980Y19600D02*
X5480D01*
Y19850D01*
X5563Y19933D01*
X5730D01*
X5813Y19850D01*
Y19600D01*
X5480Y20100D02*
Y20266D01*
Y20183D01*
X5980D01*
Y20100D01*
Y20266D01*
X5563Y20850D02*
X5480Y20766D01*
Y20600D01*
X5563Y20516D01*
X5897D01*
X5980Y20600D01*
Y20766D01*
X5897Y20850D01*
X5980Y21016D02*
Y21183D01*
Y21100D01*
X5480D01*
X5563Y21016D01*
X5480Y21766D02*
X5563Y21599D01*
X5730Y21433D01*
X5897D01*
X5980Y21516D01*
Y21683D01*
X5897Y21766D01*
X5813D01*
X5730Y21683D01*
Y21433D01*
X5480Y22266D02*
Y21933D01*
X5730D01*
Y22099D01*
Y21933D01*
X5980D01*
X5563Y22432D02*
X5480Y22516D01*
Y22682D01*
X5563Y22766D01*
X5647D01*
X5730Y22682D01*
X5813Y22766D01*
X5897D01*
X5980Y22682D01*
Y22516D01*
X5897Y22432D01*
X5813D01*
X5730Y22516D01*
X5647Y22432D01*
X5563D01*
X5730Y22516D02*
Y22682D01*
X5563Y22932D02*
X5480Y23016D01*
Y23182D01*
X5563Y23265D01*
X5647D01*
X5730Y23182D01*
X5813Y23265D01*
X5897D01*
X5980Y23182D01*
Y23016D01*
X5897Y22932D01*
X5813D01*
X5730Y23016D01*
X5647Y22932D01*
X5563D01*
X5730Y23016D02*
Y23182D01*
X5480Y23432D02*
Y23765D01*
X5563D01*
X5897Y23432D01*
X5980D01*
Y23932D02*
X5480D01*
Y24182D01*
X5563Y24265D01*
X5730D01*
X5813Y24182D01*
Y23932D01*
X5480Y24432D02*
Y24765D01*
Y24598D01*
X5980D01*
X-29700Y21800D02*
Y21467D01*
X-29533Y21300D01*
X-29367Y21467D01*
Y21800D01*
X-29200Y21383D02*
X-29117Y21300D01*
X-28950D01*
X-28867Y21383D01*
Y21717D01*
X-28950Y21800D01*
X-29117D01*
X-29200Y21717D01*
Y21633D01*
X-29117Y21550D01*
X-28867D01*
X-28700Y21217D02*
X-28367D01*
X-27867Y21800D02*
X-28200D01*
Y21300D01*
X-27867D01*
X-28200Y21550D02*
X-28034D01*
X-27701Y21300D02*
Y21800D01*
X-27367Y21300D01*
Y21800D01*
X23600Y30200D02*
Y30700D01*
X23850D01*
X23933Y30617D01*
Y30450D01*
X23850Y30367D01*
X23600D01*
X24350Y30700D02*
X24183D01*
X24100Y30617D01*
Y30283D01*
X24183Y30200D01*
X24350D01*
X24433Y30283D01*
Y30617D01*
X24350Y30700D01*
X24600D02*
Y30200D01*
X24766Y30367D01*
X24933Y30200D01*
Y30700D01*
X25433D02*
X25100D01*
Y30200D01*
X25433D01*
X25100Y30450D02*
X25266D01*
X25599Y30200D02*
Y30700D01*
X25849D01*
X25933Y30617D01*
Y30450D01*
X25849Y30367D01*
X25599D01*
X25766D02*
X25933Y30200D01*
X733Y817D02*
X650Y900D01*
X483D01*
X400Y817D01*
Y483D01*
X483Y400D01*
X650D01*
X733Y483D01*
X1150Y900D02*
X983D01*
X900Y817D01*
Y483D01*
X983Y400D01*
X1150D01*
X1233Y483D01*
Y817D01*
X1150Y900D01*
X1400Y400D02*
Y900D01*
X1566Y733D01*
X1733Y900D01*
Y400D01*
X1900Y900D02*
Y400D01*
X2149D01*
X2233Y483D01*
Y567D01*
X2149Y650D01*
X1900D01*
X2149D01*
X2233Y733D01*
Y817D01*
X2149Y900D01*
X1900D01*
X2399Y317D02*
X2733D01*
X2899Y900D02*
Y400D01*
X3232D01*
X3732Y900D02*
X3399D01*
Y400D01*
X3732D01*
X3399Y650D02*
X3566D01*
X3899Y900D02*
Y400D01*
X4149D01*
X4232Y483D01*
Y817D01*
X4149Y900D01*
X3899D01*
X4732Y817D02*
X4649Y900D01*
X4482D01*
X4399Y817D01*
Y733D01*
X4482Y650D01*
X4649D01*
X4732Y567D01*
Y483D01*
X4649Y400D01*
X4482D01*
X4399Y483D01*
X-19600Y28900D02*
Y28400D01*
X-19267D01*
X-19100D02*
Y28900D01*
X-18850D01*
X-18767Y28817D01*
Y28650D01*
X-18850Y28567D01*
X-19100D01*
X-18600Y28400D02*
Y28900D01*
X-18350D01*
X-18267Y28817D01*
Y28650D01*
X-18350Y28567D01*
X-18600D01*
X-18434D02*
X-18267Y28400D01*
X-17851Y28900D02*
X-18017D01*
X-18100Y28817D01*
Y28483D01*
X-18017Y28400D01*
X-17851D01*
X-17767Y28483D01*
Y28817D01*
X-17851Y28900D01*
X-17601Y28400D02*
X-17434D01*
X-17517D01*
Y28900D01*
X-17601Y28817D01*
X-17184D02*
X-17101Y28900D01*
X-16934D01*
X-16851Y28817D01*
Y28483D01*
X-16934Y28400D01*
X-17101D01*
X-17184Y28483D01*
Y28817D01*
X-16684Y28400D02*
X-16518D01*
X-16601D01*
Y28900D01*
X-16684Y28817D01*
X5733Y17317D02*
X5650Y17400D01*
X5483D01*
X5400Y17317D01*
Y17233D01*
X5483Y17150D01*
X5650D01*
X5733Y17067D01*
Y16983D01*
X5650Y16900D01*
X5483D01*
X5400Y16983D01*
X6233D02*
Y17317D01*
X6150Y17400D01*
X5983D01*
X5900Y17317D01*
Y16983D01*
X5983Y16900D01*
X6150D01*
X6066Y17067D02*
X6233Y16900D01*
X6150D02*
X6233Y16983D01*
X6400Y16900D02*
X6566D01*
X6483D01*
Y17400D01*
X6400Y17317D01*
X6816D02*
X6900Y17400D01*
X7066D01*
X7149Y17317D01*
Y16983D01*
X7066Y16900D01*
X6900D01*
X6816Y16983D01*
Y17317D01*
X7316D02*
X7399Y17400D01*
X7566D01*
X7649Y17317D01*
Y16983D01*
X7566Y16900D01*
X7399D01*
X7316Y16983D01*
Y17317D01*
X7816Y17400D02*
Y16900D01*
Y17067D01*
X8149Y17400D01*
X7899Y17150D01*
X8149Y16900D01*
X-8300Y28000D02*
X-7967D01*
X-7800Y28167D01*
X-7967Y28333D01*
X-8300D01*
X-7800Y28833D02*
Y28500D01*
X-8133Y28833D01*
X-8217D01*
X-8300Y28750D01*
Y28583D01*
X-8217Y28500D01*
X-7800Y29250D02*
X-8300D01*
X-8050Y29000D01*
Y29333D01*
X-8217Y29833D02*
X-8300Y29749D01*
Y29583D01*
X-8217Y29500D01*
X-8133D01*
X-8050Y29583D01*
Y29749D01*
X-7967Y29833D01*
X-7883D01*
X-7800Y29749D01*
Y29583D01*
X-7883Y29500D01*
X-8300Y29999D02*
X-7800D01*
X-7967Y30166D01*
X-7800Y30333D01*
X-8300D01*
X-13900Y29900D02*
Y29567D01*
X-13733Y29400D01*
X-13567Y29567D01*
Y29900D01*
X-13067Y29400D02*
X-13400D01*
X-13067Y29733D01*
Y29817D01*
X-13150Y29900D01*
X-13317D01*
X-13400Y29817D01*
X-12650Y29400D02*
Y29900D01*
X-12900Y29650D01*
X-12567D01*
X27100Y6900D02*
Y6567D01*
X27267Y6400D01*
X27433Y6567D01*
Y6900D01*
X27600Y6400D02*
Y6900D01*
X27850D01*
X27933Y6817D01*
Y6650D01*
X27850Y6567D01*
X27600D01*
X28100Y6400D02*
Y6900D01*
X28350D01*
X28433Y6817D01*
Y6650D01*
X28350Y6567D01*
X28100D01*
X28266D02*
X28433Y6400D01*
X28933Y6900D02*
X28600D01*
Y6400D01*
X28933D01*
X28600Y6650D02*
X28766D01*
X-12900Y20900D02*
Y20400D01*
X-12567D01*
X-12400D02*
Y20733D01*
X-12234Y20900D01*
X-12067Y20733D01*
Y20400D01*
Y20650D01*
X-12400D01*
X-11900Y20400D02*
Y20900D01*
X-11734Y20733D01*
X-11567Y20900D01*
Y20400D01*
X-11400D02*
Y20900D01*
X-11151D01*
X-11067Y20817D01*
Y20650D01*
X-11151Y20567D01*
X-11400D01*
X-10901Y20900D02*
Y20567D01*
X-10734Y20400D01*
X-10567Y20567D01*
Y20900D01*
X-17117Y13517D02*
X-17200Y13600D01*
X-17367D01*
X-17450Y13517D01*
Y13433D01*
X-17367Y13350D01*
X-17200D01*
X-17117Y13267D01*
Y13183D01*
X-17200Y13100D01*
X-17367D01*
X-17450Y13183D01*
X-16950Y13600D02*
X-16784D01*
X-16867D01*
Y13100D01*
X-16950D01*
X-16784D01*
X-16534D02*
Y13600D01*
X-16200Y13100D01*
Y13600D01*
X-15701D02*
X-16034D01*
Y13100D01*
X-15701D01*
X-16034Y13350D02*
X-15867D01*
X-3167Y10417D02*
X-3250Y10500D01*
X-3417D01*
X-3500Y10417D01*
Y10333D01*
X-3417Y10250D01*
X-3250D01*
X-3167Y10167D01*
Y10083D01*
X-3250Y10000D01*
X-3417D01*
X-3500Y10083D01*
X-2667D02*
Y10417D01*
X-2750Y10500D01*
X-2917D01*
X-3000Y10417D01*
Y10083D01*
X-2917Y10000D01*
X-2750D01*
X-2834Y10167D02*
X-2667Y10000D01*
X-2750D02*
X-2667Y10083D01*
X-2500Y10000D02*
X-2334D01*
X-2417D01*
Y10500D01*
X-2500Y10417D01*
X-2084D02*
X-2000Y10500D01*
X-1834D01*
X-1751Y10417D01*
Y10083D01*
X-1834Y10000D01*
X-2000D01*
X-2084Y10083D01*
Y10417D01*
X-1584Y10000D02*
Y10500D01*
X-1417Y10333D01*
X-1251Y10500D01*
Y10000D01*
X7600Y30300D02*
Y29800D01*
X7850D01*
X7933Y29883D01*
Y29967D01*
X7850Y30050D01*
X7600D01*
X7850D01*
X7933Y30133D01*
Y30217D01*
X7850Y30300D01*
X7600D01*
X8100Y29800D02*
Y30133D01*
X8266Y30300D01*
X8433Y30133D01*
Y29800D01*
Y30050D01*
X8100D01*
X8933Y30217D02*
X8850Y30300D01*
X8683D01*
X8600Y30217D01*
Y30133D01*
X8683Y30050D01*
X8850D01*
X8933Y29967D01*
Y29883D01*
X8850Y29800D01*
X8683D01*
X8600Y29883D01*
X9433Y30300D02*
X9100D01*
Y29800D01*
X9433D01*
X9100Y30050D02*
X9266D01*
X10099Y30300D02*
X10432D01*
X10266D01*
Y29800D01*
X10932Y30300D02*
X10599D01*
Y29800D01*
X10932D01*
X10599Y30050D02*
X10766D01*
X11099Y29800D02*
Y30300D01*
X11265Y30133D01*
X11432Y30300D01*
Y29800D01*
X11599D02*
Y30300D01*
X11849D01*
X11932Y30217D01*
Y30050D01*
X11849Y29967D01*
X11599D01*
X2700Y30200D02*
X2867D01*
X2783D01*
Y29700D01*
X2700D01*
X2867D01*
X3450Y30117D02*
X3366Y30200D01*
X3200D01*
X3117Y30117D01*
Y29783D01*
X3200Y29700D01*
X3366D01*
X3450Y29783D01*
X3950Y30117D02*
X3866Y30200D01*
X3700D01*
X3616Y30117D01*
Y30033D01*
X3700Y29950D01*
X3866D01*
X3950Y29867D01*
Y29783D01*
X3866Y29700D01*
X3700D01*
X3616Y29783D01*
X4116Y29700D02*
Y30200D01*
X4366D01*
X4449Y30117D01*
Y29950D01*
X4366Y29867D01*
X4116D01*
X26133Y817D02*
X26050Y900D01*
X25883D01*
X25800Y817D01*
Y483D01*
X25883Y400D01*
X26050D01*
X26133Y483D01*
X26550Y900D02*
X26383D01*
X26300Y817D01*
Y483D01*
X26383Y400D01*
X26550D01*
X26633Y483D01*
Y817D01*
X26550Y900D01*
X26800Y400D02*
Y900D01*
X26966Y733D01*
X27133Y900D01*
Y400D01*
X27300Y900D02*
Y400D01*
X27549D01*
X27633Y483D01*
Y567D01*
X27549Y650D01*
X27300D01*
X27549D01*
X27633Y733D01*
Y817D01*
X27549Y900D01*
X27300D01*
X27799Y317D02*
X28133D01*
X28632Y817D02*
X28549Y900D01*
X28382D01*
X28299Y817D01*
Y733D01*
X28382Y650D01*
X28549D01*
X28632Y567D01*
Y483D01*
X28549Y400D01*
X28382D01*
X28299Y483D01*
X28799Y900D02*
Y400D01*
X28966Y567D01*
X29132Y400D01*
Y900D01*
X21533Y817D02*
X21450Y900D01*
X21283D01*
X21200Y817D01*
Y483D01*
X21283Y400D01*
X21450D01*
X21533Y483D01*
X21700Y400D02*
Y900D01*
X21866Y733D01*
X22033Y900D01*
Y400D01*
X22450Y900D02*
X22283D01*
X22200Y817D01*
Y483D01*
X22283Y400D01*
X22450D01*
X22533Y483D01*
Y817D01*
X22450Y900D01*
X23033Y817D02*
X22949Y900D01*
X22783D01*
X22700Y817D01*
Y733D01*
X22783Y650D01*
X22949D01*
X23033Y567D01*
Y483D01*
X22949Y400D01*
X22783D01*
X22700Y483D01*
X23199Y317D02*
X23533D01*
X24032Y817D02*
X23949Y900D01*
X23782D01*
X23699Y817D01*
Y733D01*
X23782Y650D01*
X23949D01*
X24032Y567D01*
Y483D01*
X23949Y400D01*
X23782D01*
X23699Y483D01*
X24199Y900D02*
Y400D01*
X24366Y567D01*
X24532Y400D01*
Y900D01*
X-34000Y8500D02*
Y9000D01*
X-33750D01*
X-33667Y8917D01*
Y8750D01*
X-33750Y8667D01*
X-34000D01*
X-33500Y9000D02*
X-33334D01*
X-33417D01*
Y8500D01*
X-33500D01*
X-33334D01*
X-33084Y9000D02*
X-32750Y8500D01*
Y9000D02*
X-33084Y8500D01*
X-32251Y9000D02*
X-32584D01*
Y8500D01*
X-32251D01*
X-32584Y8750D02*
X-32417D01*
X-32084Y9000D02*
Y8500D01*
X-31751D01*
X16800Y900D02*
Y400D01*
X17050D01*
X17133Y483D01*
Y817D01*
X17050Y900D01*
X16800D01*
X17300D02*
X17466D01*
X17383D01*
Y400D01*
X17300D01*
X17466D01*
X18050Y817D02*
X17966Y900D01*
X17800D01*
X17716Y817D01*
Y733D01*
X17800Y650D01*
X17966D01*
X18050Y567D01*
Y483D01*
X17966Y400D01*
X17800D01*
X17716Y483D01*
X18216Y900D02*
X18549D01*
X18383D01*
Y400D01*
X18716Y317D02*
X19049D01*
X19549Y817D02*
X19466Y900D01*
X19299D01*
X19216Y817D01*
Y733D01*
X19299Y650D01*
X19466D01*
X19549Y567D01*
Y483D01*
X19466Y400D01*
X19299D01*
X19216Y483D01*
X19716Y900D02*
Y400D01*
X19882Y567D01*
X20049Y400D01*
Y900D01*
X-7342Y817D02*
X-7425Y900D01*
X-7592D01*
X-7675Y817D01*
Y483D01*
X-7592Y400D01*
X-7425D01*
X-7342Y483D01*
X-7175Y317D02*
X-6842D01*
X-6675Y900D02*
Y400D01*
X-6342D01*
X-5842Y900D02*
X-6175D01*
Y400D01*
X-5842D01*
X-6175Y650D02*
X-6009D01*
X-5676Y900D02*
Y400D01*
X-5426D01*
X-5342Y483D01*
Y817D01*
X-5426Y900D01*
X-5676D01*
X-10767Y817D02*
X-10850Y900D01*
X-11017D01*
X-11100Y817D01*
Y483D01*
X-11017Y400D01*
X-10850D01*
X-10767Y483D01*
X-10600Y400D02*
Y900D01*
X-10434Y733D01*
X-10267Y900D01*
Y400D01*
X-9850Y900D02*
X-10017D01*
X-10100Y817D01*
Y483D01*
X-10017Y400D01*
X-9850D01*
X-9767Y483D01*
Y817D01*
X-9850Y900D01*
X-9267Y817D02*
X-9351Y900D01*
X-9517D01*
X-9600Y817D01*
Y733D01*
X-9517Y650D01*
X-9351D01*
X-9267Y567D01*
Y483D01*
X-9351Y400D01*
X-9517D01*
X-9600Y483D01*
X-9101Y817D02*
X-9017Y900D01*
X-8851D01*
X-8767Y817D01*
Y733D01*
X-8851Y650D01*
X-8934D01*
X-8851D01*
X-8767Y567D01*
Y483D01*
X-8851Y400D01*
X-9017D01*
X-9101Y483D01*
X-13767Y817D02*
X-13850Y900D01*
X-14017D01*
X-14100Y817D01*
Y483D01*
X-14017Y400D01*
X-13850D01*
X-13767Y483D01*
X-13600Y400D02*
Y900D01*
X-13434Y733D01*
X-13267Y900D01*
Y400D01*
X-12850Y900D02*
X-13017D01*
X-13100Y817D01*
Y483D01*
X-13017Y400D01*
X-12850D01*
X-12767Y483D01*
Y817D01*
X-12850Y900D01*
X-12267Y817D02*
X-12351Y900D01*
X-12517D01*
X-12600Y817D01*
Y733D01*
X-12517Y650D01*
X-12351D01*
X-12267Y567D01*
Y483D01*
X-12351Y400D01*
X-12517D01*
X-12600Y483D01*
X-11767Y400D02*
X-12101D01*
X-11767Y733D01*
Y817D01*
X-11851Y900D01*
X-12017D01*
X-12101Y817D01*
X-16767D02*
X-16850Y900D01*
X-17017D01*
X-17100Y817D01*
Y483D01*
X-17017Y400D01*
X-16850D01*
X-16767Y483D01*
X-16600Y400D02*
Y900D01*
X-16434Y733D01*
X-16267Y900D01*
Y400D01*
X-15850Y900D02*
X-16017D01*
X-16100Y817D01*
Y483D01*
X-16017Y400D01*
X-15850D01*
X-15767Y483D01*
Y817D01*
X-15850Y900D01*
X-15267Y817D02*
X-15351Y900D01*
X-15517D01*
X-15600Y817D01*
Y733D01*
X-15517Y650D01*
X-15351D01*
X-15267Y567D01*
Y483D01*
X-15351Y400D01*
X-15517D01*
X-15600Y483D01*
X-15101Y400D02*
X-14934D01*
X-15017D01*
Y900D01*
X-15101Y817D01*
X8533Y817D02*
X8450Y900D01*
X8283D01*
X8200Y817D01*
Y483D01*
X8283Y400D01*
X8450D01*
X8533Y483D01*
X8950Y900D02*
X8783D01*
X8700Y817D01*
Y483D01*
X8783Y400D01*
X8950D01*
X9033Y483D01*
Y817D01*
X8950Y900D01*
X9200Y400D02*
Y900D01*
X9366Y733D01*
X9533Y900D01*
Y400D01*
X9700Y900D02*
Y400D01*
X9949D01*
X10033Y483D01*
Y567D01*
X9949Y650D01*
X9700D01*
X9949D01*
X10033Y733D01*
Y817D01*
X9949Y900D01*
X9700D01*
X10199Y317D02*
X10533D01*
X10949Y900D02*
X10782D01*
X10699Y817D01*
Y483D01*
X10782Y400D01*
X10949D01*
X11032Y483D01*
Y817D01*
X10949Y900D01*
X11199D02*
Y483D01*
X11282Y400D01*
X11449D01*
X11532Y483D01*
Y900D01*
X11699D02*
X12032D01*
X11865D01*
Y400D01*
X14633Y30217D02*
X14550Y30300D01*
X14383D01*
X14300Y30217D01*
Y30133D01*
X14383Y30050D01*
X14550D01*
X14633Y29967D01*
Y29883D01*
X14550Y29800D01*
X14383D01*
X14300Y29883D01*
X15133Y30300D02*
X14800D01*
Y29800D01*
X15133D01*
X14800Y30050D02*
X14966D01*
X15300Y29800D02*
Y30300D01*
X15550D01*
X15633Y30217D01*
Y30050D01*
X15550Y29967D01*
X15300D01*
X15466D02*
X15633Y29800D01*
X15800Y30300D02*
X15966D01*
X15883D01*
Y29800D01*
X15800D01*
X15966D01*
X16216D02*
Y30133D01*
X16383Y30300D01*
X16549Y30133D01*
Y29800D01*
Y30050D01*
X16216D01*
X16716Y30300D02*
Y29800D01*
X17049D01*
X-33400Y900D02*
Y400D01*
X-33150D01*
X-33067Y483D01*
Y817D01*
X-33150Y900D01*
X-33400D01*
X-32900Y317D02*
X-32567D01*
X-32400Y900D02*
Y400D01*
X-32067D01*
X-31567Y900D02*
X-31900D01*
Y400D01*
X-31567D01*
X-31900Y650D02*
X-31734D01*
X-31401Y900D02*
Y400D01*
X-31151D01*
X-31067Y483D01*
Y817D01*
X-31151Y900D01*
X-31401D01*
X-30600Y2967D02*
Y3133D01*
Y3050D01*
X-31017D01*
X-31100Y3133D01*
Y3217D01*
X-31017Y3300D01*
X-31100Y2467D02*
Y2800D01*
X-30767Y2467D01*
X-30683D01*
X-30600Y2550D01*
Y2717D01*
X-30683Y2800D01*
Y2300D02*
X-30600Y2217D01*
Y2050D01*
X-30683Y1967D01*
X-30767D01*
X-30850Y2050D01*
Y2134D01*
Y2050D01*
X-30933Y1967D01*
X-31017D01*
X-31100Y2050D01*
Y2217D01*
X-31017Y2300D01*
X-28817Y16333D02*
X-28900Y16250D01*
Y16083D01*
X-28817Y16000D01*
X-28483D01*
X-28400Y16083D01*
Y16250D01*
X-28483Y16333D01*
X-28817Y16500D02*
X-28900Y16583D01*
Y16750D01*
X-28817Y16833D01*
X-28733D01*
X-28650Y16750D01*
Y16666D01*
Y16750D01*
X-28567Y16833D01*
X-28483D01*
X-28400Y16750D01*
Y16583D01*
X-28483Y16500D01*
X-28817Y17000D02*
X-28900Y17083D01*
Y17250D01*
X-28817Y17333D01*
X-28483D01*
X-28400Y17250D01*
Y17083D01*
X-28483Y17000D01*
X-28817D01*
X-27617Y16333D02*
X-27700Y16250D01*
Y16083D01*
X-27617Y16000D01*
X-27283D01*
X-27200Y16083D01*
Y16250D01*
X-27283Y16333D01*
X-27617Y16500D02*
X-27700Y16583D01*
Y16750D01*
X-27617Y16833D01*
X-27533D01*
X-27450Y16750D01*
Y16666D01*
Y16750D01*
X-27367Y16833D01*
X-27283D01*
X-27200Y16750D01*
Y16583D01*
X-27283Y16500D01*
X-27200Y17000D02*
Y17166D01*
Y17083D01*
X-27700D01*
X-27617Y17000D01*
X-25717Y17233D02*
X-25800Y17150D01*
Y16983D01*
X-25717Y16900D01*
X-25383D01*
X-25300Y16983D01*
Y17150D01*
X-25383Y17233D01*
X-25717Y17400D02*
X-25800Y17483D01*
Y17650D01*
X-25717Y17733D01*
X-25633D01*
X-25550Y17650D01*
Y17566D01*
Y17650D01*
X-25467Y17733D01*
X-25383D01*
X-25300Y17650D01*
Y17483D01*
X-25383Y17400D01*
X-25300Y18233D02*
Y17900D01*
X-25633Y18233D01*
X-25717D01*
X-25800Y18150D01*
Y17983D01*
X-25717Y17900D01*
X-22267Y20417D02*
X-22350Y20500D01*
X-22517D01*
X-22600Y20417D01*
Y20083D01*
X-22517Y20000D01*
X-22350D01*
X-22267Y20083D01*
X-22100Y20417D02*
X-22017Y20500D01*
X-21850D01*
X-21767Y20417D01*
Y20333D01*
X-21850Y20250D01*
X-21934D01*
X-21850D01*
X-21767Y20167D01*
Y20083D01*
X-21850Y20000D01*
X-22017D01*
X-22100Y20083D01*
X-21600Y20417D02*
X-21517Y20500D01*
X-21350D01*
X-21267Y20417D01*
Y20333D01*
X-21350Y20250D01*
X-21434D01*
X-21350D01*
X-21267Y20167D01*
Y20083D01*
X-21350Y20000D01*
X-21517D01*
X-21600Y20083D01*
X-21767Y13983D02*
X-21850Y13900D01*
Y13733D01*
X-21767Y13650D01*
X-21433D01*
X-21350Y13733D01*
Y13900D01*
X-21433Y13983D01*
X-21767Y14150D02*
X-21850Y14233D01*
Y14400D01*
X-21767Y14483D01*
X-21683D01*
X-21600Y14400D01*
Y14316D01*
Y14400D01*
X-21517Y14483D01*
X-21433D01*
X-21350Y14400D01*
Y14233D01*
X-21433Y14150D01*
X-21350Y14900D02*
X-21850D01*
X-21600Y14650D01*
Y14983D01*
X-20917Y22433D02*
X-21000Y22350D01*
Y22183D01*
X-20917Y22100D01*
X-20583D01*
X-20500Y22183D01*
Y22350D01*
X-20583Y22433D01*
X-20917Y22600D02*
X-21000Y22683D01*
Y22850D01*
X-20917Y22933D01*
X-20833D01*
X-20750Y22850D01*
Y22766D01*
Y22850D01*
X-20667Y22933D01*
X-20583D01*
X-20500Y22850D01*
Y22683D01*
X-20583Y22600D01*
X-21000Y23433D02*
Y23100D01*
X-20750D01*
X-20833Y23266D01*
Y23350D01*
X-20750Y23433D01*
X-20583D01*
X-20500Y23350D01*
Y23183D01*
X-20583Y23100D01*
X-21100Y900D02*
Y400D01*
X-20850D01*
X-20767Y483D01*
Y817D01*
X-20850Y900D01*
X-21100D01*
X-20600D02*
X-20434D01*
X-20517D01*
Y400D01*
X-20600D01*
X-20434D01*
X-19850Y817D02*
X-19934Y900D01*
X-20100D01*
X-20184Y817D01*
Y733D01*
X-20100Y650D01*
X-19934D01*
X-19850Y567D01*
Y483D01*
X-19934Y400D01*
X-20100D01*
X-20184Y483D01*
X-19684Y900D02*
X-19351D01*
X-19517D01*
Y400D01*
X-19184D02*
X-19017D01*
X-19101D01*
Y900D01*
X-19184Y817D01*
X-18700Y2967D02*
Y3133D01*
Y3050D01*
X-19117D01*
X-19200Y3133D01*
Y3217D01*
X-19117Y3300D01*
X-19200Y2467D02*
Y2800D01*
X-18867Y2467D01*
X-18783D01*
X-18700Y2550D01*
Y2717D01*
X-18783Y2800D01*
X-18700Y1967D02*
X-18783Y2134D01*
X-18950Y2300D01*
X-19117D01*
X-19200Y2217D01*
Y2050D01*
X-19117Y1967D01*
X-19033D01*
X-18950Y2050D01*
Y2300D01*
X-24300Y900D02*
Y400D01*
X-24050D01*
X-23967Y483D01*
Y817D01*
X-24050Y900D01*
X-24300D01*
X-23800D02*
X-23634D01*
X-23717D01*
Y400D01*
X-23800D01*
X-23634D01*
X-23050Y817D02*
X-23134Y900D01*
X-23300D01*
X-23384Y817D01*
Y733D01*
X-23300Y650D01*
X-23134D01*
X-23050Y567D01*
Y483D01*
X-23134Y400D01*
X-23300D01*
X-23384Y483D01*
X-22884Y900D02*
X-22551D01*
X-22717D01*
Y400D01*
X-22051D02*
X-22384D01*
X-22051Y733D01*
Y817D01*
X-22134Y900D01*
X-22301D01*
X-22384Y817D01*
X-21600Y2967D02*
Y3133D01*
Y3050D01*
X-22017D01*
X-22100Y3133D01*
Y3217D01*
X-22017Y3300D01*
X-22100Y2467D02*
Y2800D01*
X-21767Y2467D01*
X-21683D01*
X-21600Y2550D01*
Y2717D01*
X-21683Y2800D01*
X-21600Y2300D02*
Y1967D01*
X-21683D01*
X-22017Y2300D01*
X-22100D01*
X-27200Y900D02*
Y400D01*
X-26950D01*
X-26867Y483D01*
Y817D01*
X-26950Y900D01*
X-27200D01*
X-26700D02*
X-26534D01*
X-26617D01*
Y400D01*
X-26700D01*
X-26534D01*
X-25950Y817D02*
X-26034Y900D01*
X-26200D01*
X-26284Y817D01*
Y733D01*
X-26200Y650D01*
X-26034D01*
X-25950Y567D01*
Y483D01*
X-26034Y400D01*
X-26200D01*
X-26284Y483D01*
X-25784Y900D02*
X-25451D01*
X-25617D01*
Y400D01*
X-25284Y817D02*
X-25201Y900D01*
X-25034D01*
X-24951Y817D01*
Y733D01*
X-25034Y650D01*
X-25117D01*
X-25034D01*
X-24951Y567D01*
Y483D01*
X-25034Y400D01*
X-25201D01*
X-25284Y483D01*
X-24600Y2967D02*
Y3133D01*
Y3050D01*
X-25017D01*
X-25100Y3133D01*
Y3217D01*
X-25017Y3300D01*
X-25100Y2467D02*
Y2800D01*
X-24767Y2467D01*
X-24683D01*
X-24600Y2550D01*
Y2717D01*
X-24683Y2800D01*
Y2300D02*
X-24600Y2217D01*
Y2050D01*
X-24683Y1967D01*
X-24767D01*
X-24850Y2050D01*
X-24933Y1967D01*
X-25017D01*
X-25100Y2050D01*
Y2217D01*
X-25017Y2300D01*
X-24933D01*
X-24850Y2217D01*
X-24767Y2300D01*
X-24683D01*
X-24850Y2217D02*
Y2050D01*
X-30300Y900D02*
Y400D01*
X-30050D01*
X-29967Y483D01*
Y817D01*
X-30050Y900D01*
X-30300D01*
X-29800D02*
X-29634D01*
X-29717D01*
Y400D01*
X-29800D01*
X-29634D01*
X-29050Y817D02*
X-29134Y900D01*
X-29300D01*
X-29384Y817D01*
Y733D01*
X-29300Y650D01*
X-29134D01*
X-29050Y567D01*
Y483D01*
X-29134Y400D01*
X-29300D01*
X-29384Y483D01*
X-28884Y900D02*
X-28551D01*
X-28717D01*
Y400D01*
X-28134D02*
Y900D01*
X-28384Y650D01*
X-28051D01*
X-27500Y2867D02*
Y3033D01*
Y2950D01*
X-27917D01*
X-28000Y3033D01*
Y3117D01*
X-27917Y3200D01*
X-27583Y2700D02*
X-27500Y2617D01*
Y2450D01*
X-27583Y2367D01*
X-27667D01*
X-27750Y2450D01*
Y2534D01*
Y2450D01*
X-27833Y2367D01*
X-27917D01*
X-28000Y2450D01*
Y2617D01*
X-27917Y2700D01*
X-28000Y2200D02*
Y2034D01*
Y2117D01*
X-27500D01*
X-27583Y2200D01*
X-25900Y13850D02*
Y13350D01*
X-25567D01*
X-25400Y13767D02*
X-25317Y13850D01*
X-25150D01*
X-25067Y13767D01*
Y13683D01*
X-25150Y13600D01*
X-25234D01*
X-25150D01*
X-25067Y13517D01*
Y13433D01*
X-25150Y13350D01*
X-25317D01*
X-25400Y13433D01*
X-24800Y20000D02*
Y20500D01*
X-24550D01*
X-24467Y20417D01*
Y20250D01*
X-24550Y20167D01*
X-24800D01*
X-24633D02*
X-24467Y20000D01*
X-23967Y20500D02*
X-24300D01*
Y20250D01*
X-24134Y20333D01*
X-24050D01*
X-23967Y20250D01*
Y20083D01*
X-24050Y20000D01*
X-24217D01*
X-24300Y20083D01*
X-23467Y20500D02*
X-23634Y20417D01*
X-23800Y20250D01*
Y20083D01*
X-23717Y20000D01*
X-23550D01*
X-23467Y20083D01*
Y20167D01*
X-23550Y20250D01*
X-23800D01*
X-26700Y15700D02*
Y16200D01*
X-26450D01*
X-26367Y16117D01*
Y15950D01*
X-26450Y15867D01*
X-26700D01*
X-26533D02*
X-26367Y15700D01*
X-25867Y16200D02*
X-26200D01*
Y15950D01*
X-26034Y16033D01*
X-25950D01*
X-25867Y15950D01*
Y15783D01*
X-25950Y15700D01*
X-26117D01*
X-26200Y15783D01*
X-25700Y16200D02*
X-25367D01*
Y16117D01*
X-25700Y15783D01*
Y15700D01*
X-21400Y17800D02*
Y17383D01*
X-21317Y17300D01*
X-21150D01*
X-21067Y17383D01*
Y17800D01*
X-20900Y17300D02*
X-20734D01*
X-20817D01*
Y17800D01*
X-20900Y17717D01*
X-20484D02*
X-20400Y17800D01*
X-20234D01*
X-20150Y17717D01*
Y17633D01*
X-20234Y17550D01*
X-20317D01*
X-20234D01*
X-20150Y17467D01*
Y17383D01*
X-20234Y17300D01*
X-20400D01*
X-20484Y17383D01*
X-20800Y6600D02*
X-20467Y6100D01*
Y6600D02*
X-20800Y6100D01*
X-19967D02*
X-20300D01*
X-19967Y6433D01*
Y6517D01*
X-20050Y6600D01*
X-20217D01*
X-20300Y6517D01*
X-23800Y6600D02*
X-23467Y6100D01*
Y6600D02*
X-23800Y6100D01*
X-23300Y6517D02*
X-23217Y6600D01*
X-23050D01*
X-22967Y6517D01*
Y6433D01*
X-23050Y6350D01*
X-23134D01*
X-23050D01*
X-22967Y6267D01*
Y6183D01*
X-23050Y6100D01*
X-23217D01*
X-23300Y6183D01*
X-20300Y20500D02*
X-19967Y20000D01*
Y20500D02*
X-20300Y20000D01*
X-19550D02*
Y20500D01*
X-19800Y20250D01*
X-19467D01*
X-29117Y8233D02*
X-29200Y8150D01*
Y7983D01*
X-29117Y7900D01*
X-29033D01*
X-28950Y7983D01*
Y8150D01*
X-28867Y8233D01*
X-28783D01*
X-28700Y8150D01*
Y7983D01*
X-28783Y7900D01*
X-29117Y8733D02*
X-29200Y8650D01*
Y8483D01*
X-29117Y8400D01*
X-28783D01*
X-28700Y8483D01*
Y8650D01*
X-28783Y8733D01*
X-28700Y8900D02*
X-29200D01*
Y9150D01*
X-29117Y9233D01*
X-28950D01*
X-28867Y9150D01*
Y8900D01*
X-28950Y9400D02*
Y9733D01*
X-28700Y10149D02*
X-29200D01*
X-28950Y9899D01*
Y10233D01*
Y10399D02*
Y10732D01*
X-28700Y11149D02*
X-29200D01*
X-28950Y10899D01*
Y11232D01*
Y11399D02*
Y11732D01*
X-29200Y11899D02*
Y12232D01*
X-29117D01*
X-28783Y11899D01*
X-28700D01*
X-29200Y12732D02*
Y12399D01*
X-28950D01*
X-29033Y12565D01*
Y12648D01*
X-28950Y12732D01*
X-28783D01*
X-28700Y12648D01*
Y12482D01*
X-28783Y12399D01*
X-29900Y7900D02*
X-29400Y8233D01*
X-29900D02*
X-29400Y7900D01*
X-29900Y8733D02*
Y8400D01*
X-29650D01*
X-29733Y8566D01*
Y8650D01*
X-29650Y8733D01*
X-29483D01*
X-29400Y8650D01*
Y8483D01*
X-29483Y8400D01*
X-17650Y22900D02*
X-17317Y22400D01*
Y22900D02*
X-17650Y22400D01*
X-16817Y22900D02*
X-16984Y22817D01*
X-17150Y22650D01*
Y22483D01*
X-17067Y22400D01*
X-16900D01*
X-16817Y22483D01*
Y22567D01*
X-16900Y22650D01*
X-17150D01*
X-26800Y6600D02*
X-26467Y6100D01*
Y6600D02*
X-26800Y6100D01*
X-26300Y6600D02*
X-25967D01*
Y6517D01*
X-26300Y6183D01*
Y6100D01*
X-29800Y6600D02*
X-29467Y6100D01*
Y6600D02*
X-29800Y6100D01*
X-29300Y6183D02*
X-29217Y6100D01*
X-29050D01*
X-28967Y6183D01*
Y6517D01*
X-29050Y6600D01*
X-29217D01*
X-29300Y6517D01*
Y6433D01*
X-29217Y6350D01*
X-28967D01*
D57*
X-18350Y22000D02*
X-17300Y22000D01*
X-16900Y22000D02*
X-15850Y22000D01*
X-16900Y19200D02*
X-15850Y19200D01*
X-18350Y19200D02*
X-17300Y19200D01*
D58*
X15333Y31200D02*
X15167D01*
X15250D01*
Y30783D01*
X15167Y30700D01*
X15083D01*
X15000Y30783D01*
X15833Y30700D02*
X15500D01*
X15833Y31033D01*
Y31117D01*
X15750Y31200D01*
X15583D01*
X15500Y31117D01*
X16000Y30700D02*
X16166D01*
X16083D01*
Y31200D01*
X16000Y31117D01*
X-29600Y16000D02*
X-30100D01*
Y16250D01*
X-30017Y16333D01*
X-29850D01*
X-29767Y16250D01*
Y16000D01*
Y16167D02*
X-29600Y16333D01*
X-30100Y16833D02*
Y16500D01*
X-29850D01*
X-29933Y16666D01*
Y16750D01*
X-29850Y16833D01*
X-29683D01*
X-29600Y16750D01*
Y16583D01*
X-29683Y16500D01*
X-30100Y17333D02*
Y17000D01*
X-29850D01*
X-29933Y17166D01*
Y17250D01*
X-29850Y17333D01*
X-29683D01*
X-29600Y17250D01*
Y17083D01*
X-29683Y17000D01*
M02*
