M72
M48
T1F00S00C0.0220
T2F00S00C0.0280
T3F00S00C0.0350
T4F00S00C0.0420
T5F00S00C0.0600
T6F00S00C0.1560
%
T01
X-011800Y010600
X-004600Y009900
Y012100
Y007700
X000100Y008800
X001000Y010700
X001600
X002200Y010800
X003100Y011100
X003500Y010700
X004500Y011100
X004100Y008200
X003500
X002900
X006800Y010600
X009600Y010800
X010400Y016900
X010100Y017700
X012600Y022800
X014600
Y024800
X015000Y025200
X015400Y025600
X016200
Y026650
X014200
X013300Y026400
Y025600
X012900Y025200
X012500Y024800
X011000
X010600Y025200
X011000Y025600
Y026400
X010500Y026800
X012800
X007300
Y026000
X007500Y025500
X007100Y025100
X007700Y026400
X005200Y025400
X019300Y026000
X019700Y026500
X020200Y025600
X003550Y025400
X001500Y021100
Y020000
X001100Y016700
X002100
X001600Y014700
X000600
Y013700
Y012600
X-004600Y013300
X-011800Y012600
T02
X-027050Y005300
X-026600Y007500
Y009700
Y010800
X-028100
Y009700
X-030300Y012100
X-030100Y005300
X-024050
X-024600Y007500
X-022600
Y009700
Y010800
X-020800
X-020400Y011500
X-018200Y009100
Y008300
Y007400
Y006500
Y005600
Y004700
Y003800
Y002900
Y002000
Y001100
X-021050Y005300
X-024600Y009700
Y010800
X-009900Y009300
X-009200
X-008400
X-007600
X-006800
X-006000
X-005200
Y008300
X-006000
X-006800
X-007600
X-008400
X-009200
X-007950Y006675
X-007600Y010200
Y011100
Y012000
X-009600Y012100
X-004100Y010400
X-002980Y009300
X-002300Y009600
X-001500Y009500
X-000600
Y008100
X-001500
X-002300Y008000
X-003000Y008300
X-004100Y007300
X000600Y008200
X002100
X006100Y008100
X005020Y010300
X009800Y009000
X011850Y005900
X014600Y011300
Y011900
X023600Y014600
X022800Y019700
X022900Y022900
X030400Y025200
Y026000
Y026800
X029600Y015800
X014600Y016800
X012900
X012100Y018200
X011500Y019900
X009215Y019315
X009700Y023400
X010200
X009900Y027500
X015650Y026850
X017100Y026000
X019300Y027120
X015400Y022900
Y022200
Y019400
X006100Y012700
X002600
X001100Y014200
X-000500Y014150
X004100Y014700
X-007700Y014800
Y015600
X-008063Y016363
X-008700Y017000
X-009398Y017698
X-010100Y018400
X-005900Y019800
X-002600Y021500
X-001600Y023200
Y025500
X-002600Y025900
Y027200
X-001600Y027600
X-005220Y027200
X-008600Y024200
X-008000Y023200
X-007700Y014000
Y013300
X-011600Y015200
X-012850Y018100
X-010800Y019100
X-011500Y019800
X-012200Y020500
X-012801Y021101
X-013300Y021600
X-014200
X-015100
X-013600Y023600
X-013300Y024900
Y025600
Y026300
Y027000
X-012600
Y026300
Y025600
Y024900
X-011900
Y027000
X-020500Y013200
X-021400Y013300
X-020400Y012200
X-025600Y013200
X-027400
X-028100
X-027500Y027100
X-027000Y027600
X-026500Y028100
X-017800Y029400
X-001600Y029200
X000000
X019200Y028600
T03
X-014750Y011250
X-015250Y010750
X-015750Y010250
X-016250Y009750
X-017000
X-017750
X-018500
X-019250
X-020000
X-020750
X016800Y007400
Y001400
X021300
X025800
Y007400
X024000Y009831
Y011800
X028200
Y009832
X021300Y007400
X021000Y017000
Y017750
Y018500
X027031Y021000
X029000
X020250Y018500
X019500
X018750
X018000
Y017750
Y017000
X018750
X019500
X020250
X016100Y016100
X015400Y015400
X016107Y014693
X-015250Y015000
Y014250
Y013500
Y012750
X-014750Y012250
X-015250Y015750
Y016500
Y017250
Y018000
X-016000Y018250
X-016750
X-017500
X-018250
X-019000
X-019750
X-020500
X-021250
X-021500Y016500
X-022250
Y015750
Y015000
Y014250
Y013500
T04
X-029100Y002000
X-029100Y003000
X-032100
X-032100Y002000
X-033000Y011000
Y012000
X-026100Y003000
X-026100Y002000
X-023100
X-023100Y003000
X-020100
X-020100Y002000
X-016100
X-016100Y003000
X-013100
X-013100Y002000
X-010100
X-010100Y003000
X-006575
X-006575Y002000
X000600Y002000
X000600Y003000
X001600
Y002000
X002600Y002000
X002600Y003000
X003600
Y002000
X004600
Y003000
X-002300Y008800
X011500Y011200
X015000Y007000
X018400Y003000
X018400Y002000
X010000
X010000Y003000
X022900
X022900Y002000
X027400Y002005
X027400Y003005
X032000Y004000
Y005000
X029700Y007000
X031200Y008800
Y010800
X032975Y011800
Y009800
Y013800
Y015800
X031200Y016800
Y014800
Y012800
X011500Y012200
X006500Y016100
X-006000Y016000
Y015000
X-009800Y020800
X-010200Y025900
X-008300Y027200
X-015800Y027000
X-015800Y026000
X-016800Y026000
Y027000
X-017800Y027000
Y026000
X-018800Y026000
Y027000
X-019800
Y026000
X-025000
X-025000Y025000
X-016000Y023800
X-014700Y024100
X-014200Y013600
X-033000Y014000
X-033000Y013000
X-028600Y019000
X-028600Y020000
X-011500Y030000
X001000Y028600
X002000
X003000Y028600
X004000
X005000Y028600
X006000
X008600
X009600
X010600
X014200
X015200Y028600
X016200Y028600
X017200
T05
X021200Y028600
X022760
X024320
X025880Y028600
X027440Y028600
X029000Y028600
T06
X-002500Y002500
X-038100Y027900
X038100
M30
