%FSLAX24Y24*%
%MOIN*%
G70*
G01*
G75*
%ADD10C,0.0130*%
%ADD11R,0.0620X0.0200*%
%ADD12R,0.0200X0.0620*%
%ADD13R,0.1575X0.0984*%
%ADD14R,0.0500X0.0600*%
%ADD15R,0.0600X0.0700*%
%ADD16R,0.0320X0.0950*%
%ADD17R,0.0400X0.0400*%
%ADD18R,0.0400X0.0550*%
%ADD19R,0.0600X0.0500*%
%ADD20R,0.0320X0.0900*%
%ADD21R,0.1311X0.1047*%
%ADD22R,0.0300X0.0900*%
%ADD23R,0.0300X0.0300*%
%ADD24R,0.1000X0.1500*%
%ADD25R,0.0900X0.0300*%
%ADD26R,0.0900X0.0500*%
%ADD27R,0.1000X0.0340*%
%ADD28R,0.0500X0.0340*%
%ADD29C,0.0500*%
%ADD30C,0.0200*%
%ADD31C,0.0250*%
%ADD32C,0.0400*%
%ADD33C,0.0120*%
%ADD34C,0.0300*%
%ADD35C,0.0150*%
%ADD36C,0.0600*%
%ADD37C,0.0800*%
%ADD38C,0.0300*%
%ADD39R,0.1000X0.6600*%
%ADD40C,0.0620*%
%ADD41R,0.0700X0.0700*%
%ADD42C,0.0750*%
%ADD43C,0.0700*%
%ADD44O,0.1000X0.0800*%
%ADD45C,0.0100*%
%ADD46C,0.1100*%
%ADD47C,0.0500*%
%ADD48C,0.0400*%
%ADD49C,0.0420*%
%ADD50C,0.0600*%
%ADD51C,0.0800*%
D10*
X20985Y19000D02*
X21009Y18879D01*
X21077Y18777D01*
X20985Y19000D02*
X21009Y18879D01*
X21077Y18777D01*
X21577Y16923D02*
X21509Y16821D01*
X21485Y16700D01*
X21577Y16923D02*
X21509Y16821D01*
X21485Y16700D01*
X15715Y16766D02*
X15781Y16700D01*
X15715D02*
X16400D01*
X15715Y16865D02*
X15880Y16700D01*
X15715D02*
Y17000D01*
Y17185D01*
Y16964D02*
X15979Y16700D01*
X15715Y17063D02*
X16078Y16700D01*
X15715Y17162D02*
X16177Y16700D01*
X15791Y17185D02*
X16276Y16700D01*
X15865Y17210D02*
X16375Y16700D01*
X15715Y17051D02*
X15849Y17185D01*
X15715D02*
X15865D01*
X15750D02*
X15865Y17300D01*
X15750Y17185D02*
X15865Y17300D01*
Y17309D02*
X16674Y16500D01*
X15865Y17408D02*
X16773Y16500D01*
X15865Y17507D02*
X16872Y16500D01*
X15865Y17606D02*
X16971Y16500D01*
X15865Y17705D02*
X17070Y16500D01*
X15865Y17804D02*
X17169Y16500D01*
X15865Y17903D02*
X17268Y16500D01*
X15865Y18002D02*
X17367Y16500D01*
X15865Y18101D02*
X17466Y16500D01*
X15865Y18200D02*
X17565Y16500D01*
X15865Y18299D02*
X17664Y16500D01*
X15865Y17185D02*
Y18085D01*
Y17300D02*
X17565Y19000D01*
X15865Y17300D02*
X17565Y19000D01*
X15865Y17201D02*
X17664Y19000D01*
X15865Y18398D02*
X17763Y16500D01*
X15865Y18497D02*
X17862Y16500D01*
X15760Y16700D02*
X18060Y19000D01*
X15715Y16952D02*
X17763Y19000D01*
X15715Y16853D02*
X17862Y19000D01*
X15715Y16754D02*
X17961Y19000D01*
X15859Y16700D02*
X18159Y19000D01*
X15865Y18596D02*
X17961Y16500D01*
X15865Y18695D02*
X18060Y16500D01*
X15865Y18794D02*
X18159Y16500D01*
X15865Y18893D02*
X18258Y16500D01*
X15958Y16700D02*
X18258Y19000D01*
X15865Y18992D02*
X18357Y16500D01*
X16057Y16700D02*
X18357Y19000D01*
X15100Y19955D02*
X18555Y16500D01*
X15100Y20054D02*
X18654Y16500D01*
X15100Y20153D02*
X18753Y16500D01*
X15100Y20252D02*
X18852Y16500D01*
X15100Y20351D02*
X18951Y16500D01*
X15100Y20450D02*
X19050Y16500D01*
X15149Y20500D02*
X19149Y16500D01*
X15248Y20500D02*
X19248Y16500D01*
X15347Y20500D02*
X19347Y16500D01*
X15446Y20500D02*
X19446Y16500D01*
X15545Y20500D02*
X19545Y16500D01*
X15865Y19091D02*
X18456Y16500D01*
X15644Y20500D02*
X19644Y16500D01*
X15743Y20500D02*
X19743Y16500D01*
X15842Y20500D02*
X19842Y16500D01*
X15100Y19163D02*
X15148Y19115D01*
X15100D02*
X15865D01*
X15100Y19262D02*
X15247Y19115D01*
X15100Y19361D02*
X15346Y19115D01*
X15100Y19460D02*
X15445Y19115D01*
X15100Y19559D02*
X15544Y19115D01*
X15100Y19658D02*
X15643Y19115D01*
X15865Y18085D02*
Y18215D01*
X15865Y18085D02*
Y19115D01*
X15100Y19757D02*
X15742Y19115D01*
X15865Y18992D01*
X15100Y19856D02*
X15841Y19115D01*
X15100D02*
Y20500D01*
Y20000D02*
X15600Y20500D01*
X15100Y19901D02*
X15699Y20500D01*
X15100Y20395D02*
X15205Y20500D01*
X15100Y20296D02*
X15303Y20500D01*
X15100Y20198D02*
X15402Y20500D01*
X15100Y20099D02*
X15501Y20500D01*
X15100Y19406D02*
X16194Y20500D01*
X15100Y19307D02*
X16293Y20500D01*
X15100Y19208D02*
X16392Y20500D01*
X15106Y19115D02*
X16491Y20500D01*
X15100Y19802D02*
X15798Y20500D01*
X15100Y19703D02*
X15897Y20500D01*
X15100Y19604D02*
X15996Y20500D01*
X15100Y19505D02*
X16095Y20500D01*
X15865Y17498D02*
X17400Y19033D01*
X15865Y17399D02*
X17466Y19000D01*
X15865Y17597D02*
X17400Y19132D01*
X15865Y17696D02*
X17400Y19231D01*
X15865Y17795D02*
X17400Y19330D01*
X15865Y17894D02*
X17400Y19429D01*
X15865Y17993D02*
X17400Y19528D01*
X15865Y18092D02*
X17400Y19627D01*
X15865Y18191D02*
X17400Y19726D01*
X15865Y18290D02*
X17400Y19825D01*
X15865Y18389D02*
X17400Y19924D01*
X15865Y18488D02*
X17400Y20023D01*
X15865Y18587D02*
X17400Y20122D01*
X15865Y18686D02*
X17400Y20221D01*
X15205Y19115D02*
X16590Y20500D01*
X15304Y19115D02*
X16689Y20500D01*
X15403Y19115D02*
X16788Y20500D01*
X15502Y19115D02*
X16887Y20500D01*
X15601Y19115D02*
X16986Y20500D01*
X15700Y19115D02*
X17085Y20500D01*
X15100D02*
X17400D01*
X15865Y18785D02*
X17400Y20320D01*
X15865Y18884D02*
X17400Y20419D01*
X15865Y18983D02*
X17382Y20500D01*
X15941D02*
X17400Y19041D01*
X15799Y19115D02*
X17184Y20500D01*
X15865Y19082D02*
X17283Y20500D01*
X16040D02*
X17400Y19140D01*
X16139Y20500D02*
X17400Y19239D01*
X16400Y16700D02*
X16600Y16500D01*
X16649D02*
X19149Y19000D01*
X16748Y16500D02*
X19248Y19000D01*
X16847Y16500D02*
X19347Y19000D01*
X16946Y16500D02*
X19446Y19000D01*
X17045Y16500D02*
X19545Y19000D01*
X17144Y16500D02*
X19644Y19000D01*
X17243Y16500D02*
X19743Y19000D01*
X17342Y16500D02*
X19842Y19000D01*
X17441D02*
X19941Y16500D01*
X17441D02*
X19941Y19000D01*
X17540D02*
X20040Y16500D01*
X17540D02*
X20040Y19000D01*
X17639D02*
X20139Y16500D01*
X17639D02*
X20139Y19000D01*
X17738D02*
X20238Y16500D01*
X17738D02*
X20238Y19000D01*
X17837D02*
X20337Y16500D01*
X17837D02*
X20337Y19000D01*
X17936D02*
X20436Y16500D01*
X17936D02*
X20436Y19000D01*
X18035D02*
X20535Y16500D01*
X18035D02*
X20535Y19000D01*
X18134D02*
X20634Y16500D01*
X18134D02*
X20634Y19000D01*
X18233D02*
X20733Y16500D01*
X18233D02*
X20733Y19000D01*
X18332D02*
X20832Y16500D01*
X18332D02*
X20832Y19000D01*
X19322Y16500D02*
X21338Y18516D01*
X16600Y16500D02*
X21485D01*
X19421D02*
X21388Y18467D01*
X19619Y16500D02*
X21487Y18368D01*
X19520Y16500D02*
X21437Y18417D01*
X19817Y16500D02*
X21586Y18269D01*
X19718Y16500D02*
X21536Y18318D01*
X19916Y16500D02*
X21635Y18219D01*
X20114Y16500D02*
X21734Y18120D01*
X20015Y16500D02*
X21685Y18170D01*
X20312Y16500D02*
X21800Y17988D01*
X20213Y16500D02*
X21784Y18071D01*
X20510Y16500D02*
X21800Y17790D01*
X20411Y16500D02*
X21800Y17889D01*
X18431Y19000D02*
X20931Y16500D01*
X18530D02*
X20988Y18958D01*
X18431Y16500D02*
X20931Y19000D01*
X18629Y16500D02*
X21009Y18880D01*
X18530Y19000D02*
X21030Y16500D01*
X18728D02*
X21044Y18816D01*
X18629Y19000D02*
X21129Y16500D01*
X18926D02*
X21140Y18714D01*
X18827Y16500D02*
X21091Y18764D01*
X18728Y19000D02*
X21228Y16500D01*
X18827Y19000D02*
X21327Y16500D01*
X19124D02*
X21239Y18615D01*
X19025Y16500D02*
X21190Y18665D01*
X19223Y16500D02*
X21289Y18566D01*
X18926Y19000D02*
X21426Y16500D01*
X16476Y16624D02*
X18852Y19000D01*
X16526Y16574D02*
X18951Y19000D01*
X16575Y16525D02*
X19050Y19000D01*
X16156Y16700D02*
X18456Y19000D01*
X16255Y16700D02*
X18555Y19000D01*
X16354Y16700D02*
X18654Y19000D01*
X16427Y16673D02*
X18753Y19000D01*
X21302Y16500D02*
X21485Y16683D01*
X21401Y16500D02*
X21485Y16584D01*
Y16500D02*
Y16700D01*
X20905Y19000D02*
X20999Y18906D01*
X17400Y19000D02*
X20985D01*
X16238Y20500D02*
X17400Y19338D01*
X16337Y20500D02*
X17400Y19437D01*
X16436Y20500D02*
X17400Y19536D01*
X16535Y20500D02*
X17400Y19635D01*
X16634Y20500D02*
X17400Y19734D01*
X16733Y20500D02*
X17400Y19833D01*
X16832Y20500D02*
X17400Y19932D01*
Y19000D02*
Y20500D01*
X16931D02*
X17400Y20031D01*
X19025Y19000D02*
X21485Y16540D01*
X19124Y19000D02*
X21485Y16639D01*
X17030Y20500D02*
X17400Y20130D01*
X17129Y20500D02*
X17400Y20229D01*
X17228Y20500D02*
X17400Y20328D01*
X17327Y20500D02*
X17400Y20427D01*
X20609Y16500D02*
X21800Y17691D01*
X20807Y16500D02*
X21800Y17493D01*
X20708Y16500D02*
X21800Y17592D01*
X19223Y19000D02*
X21487Y16736D01*
X19322Y19000D02*
X21507Y16815D01*
X21005Y16500D02*
X21800Y17295D01*
X20906Y16500D02*
X21800Y17394D01*
X21203Y16500D02*
X21500Y16797D01*
X21104Y16500D02*
X21800Y17196D01*
X21577Y16923D02*
X21800Y17145D01*
X21800Y18055D01*
X21077Y18777D02*
X21800Y18055D01*
X19421Y19000D02*
X21541Y16879D01*
X19520Y19000D02*
X21587Y16933D01*
X19619Y19000D02*
X21637Y16982D01*
X19718Y19000D02*
X21686Y17032D01*
X19817Y19000D02*
X21736Y17081D01*
X19916Y19000D02*
X21785Y17131D01*
X20015Y19000D02*
X21800Y17215D01*
X20114Y19000D02*
X21800Y17314D01*
X20213Y19000D02*
X21800Y17413D01*
X20312Y19000D02*
X21800Y17512D01*
X20410Y19000D02*
X21800Y17610D01*
X20509Y19000D02*
X21800Y17709D01*
X20608Y19000D02*
X21800Y17808D01*
X20707Y19000D02*
X21800Y17907D01*
X20806Y19000D02*
X21800Y18006D01*
D11*
X6656Y20896D02*
D03*
X11144Y21211D02*
D03*
X6656Y21841D02*
D03*
X11144Y23731D02*
D03*
Y22471D02*
D03*
Y21841D02*
D03*
Y22156D02*
D03*
Y20581D02*
D03*
X6656Y23731D02*
D03*
Y23416D02*
D03*
Y22156D02*
D03*
Y22471D02*
D03*
Y23101D02*
D03*
Y22786D02*
D03*
X11144Y21526D02*
D03*
Y20896D02*
D03*
Y23416D02*
D03*
Y23101D02*
D03*
Y22786D02*
D03*
X6656Y21211D02*
D03*
X6656Y20581D02*
D03*
X6656Y21526D02*
D03*
D12*
X9845Y19912D02*
D03*
X9530D02*
D03*
X7325Y24400D02*
D03*
X8270Y19912D02*
D03*
X10475Y24400D02*
D03*
X7640D02*
D03*
X10475Y19912D02*
D03*
X8900Y19912D02*
D03*
X8585Y24400D02*
D03*
X9215Y19912D02*
D03*
X8900Y24400D02*
D03*
X10160Y19912D02*
D03*
X9530Y24400D02*
D03*
X9215D02*
D03*
X8585Y19912D02*
D03*
X9845Y24400D02*
D03*
X7955D02*
D03*
X8270Y24400D02*
D03*
X7325Y19912D02*
D03*
X7955D02*
D03*
X10160Y24400D02*
D03*
X7640Y19912D02*
D03*
D13*
X21675Y22900D02*
D03*
X18525D02*
D03*
X18875Y11600D02*
D03*
X15725D02*
D03*
D14*
X16600Y22000D02*
D03*
Y21100D02*
D03*
X-27400Y15200D02*
D03*
X-28600D02*
D03*
X15400Y17700D02*
D03*
X23600Y17300D02*
D03*
X15400Y18600D02*
D03*
X5400Y5000D02*
D03*
X5200Y17000D02*
D03*
X-8400Y10400D02*
D03*
X-5900Y21500D02*
D03*
X-7100D02*
D03*
Y20600D02*
D03*
X-5900Y28100D02*
D03*
X-7100D02*
D03*
X-5900Y25000D02*
D03*
X-7100D02*
D03*
X-11600Y13500D02*
D03*
X-12800D02*
D03*
X-10400D02*
D03*
X-12800Y14400D02*
D03*
X-14200Y15000D02*
D03*
X-3300Y25900D02*
D03*
Y27200D02*
D03*
X-5900Y25900D02*
D03*
Y27200D02*
D03*
Y20600D02*
D03*
X-11600Y14400D02*
D03*
X11200Y5900D02*
D03*
X-31000Y12100D02*
D03*
X-600Y10300D02*
D03*
X-400Y14900D02*
D03*
X5400Y8100D02*
D03*
X23600Y19700D02*
D03*
X-7100Y25900D02*
D03*
X5400Y5900D02*
D03*
X9200Y14700D02*
D03*
X10400D02*
D03*
X-8400Y11300D02*
D03*
X-31000Y13000D02*
D03*
X-600Y11200D02*
D03*
X-400Y15800D02*
D03*
X5400Y7200D02*
D03*
X-7100Y27200D02*
D03*
X5200Y16100D02*
D03*
X10400Y15600D02*
D03*
X-3300Y23700D02*
D03*
Y28100D02*
D03*
X9200Y15600D02*
D03*
X-3300Y22800D02*
D03*
X12900Y17700D02*
D03*
X-3300Y25000D02*
D03*
X12900Y18600D02*
D03*
X-14200Y15900D02*
D03*
Y18700D02*
D03*
X-13100Y6000D02*
D03*
X-16100Y5100D02*
D03*
Y6000D02*
D03*
X-13100Y5100D02*
D03*
X-10100D02*
D03*
Y6000D02*
D03*
X11200Y5000D02*
D03*
X8800D02*
D03*
X10000D02*
D03*
X8800Y5900D02*
D03*
Y7300D02*
D03*
X10000Y5900D02*
D03*
X8800Y8200D02*
D03*
X-10400Y14400D02*
D03*
X-14200Y19600D02*
D03*
X-28600Y14300D02*
D03*
X-27400D02*
D03*
X-19800Y22400D02*
D03*
Y23300D02*
D03*
X-9600Y10400D02*
D03*
Y11300D02*
D03*
X5800Y11200D02*
D03*
Y10300D02*
D03*
X23600Y20600D02*
D03*
Y18200D02*
D03*
X-23600Y14700D02*
D03*
Y13800D02*
D03*
X-24600Y18100D02*
D03*
Y17200D02*
D03*
X-29800Y15200D02*
D03*
Y14300D02*
D03*
X-6175Y6100D02*
D03*
Y5200D02*
D03*
X-9200Y13500D02*
D03*
X-9200Y14400D02*
D03*
X-3300Y21500D02*
D03*
Y20600D02*
D03*
X-8300Y25000D02*
D03*
Y25900D02*
D03*
X-400Y17100D02*
D03*
Y18000D02*
D03*
X17100Y25200D02*
D03*
Y24300D02*
D03*
D15*
X-26150Y14700D02*
D03*
X-24800D02*
D03*
X-12850Y17300D02*
D03*
X-14200D02*
D03*
D16*
X18300Y15763D02*
D03*
X-10600Y9832D02*
D03*
X1100Y15500D02*
D03*
X1600Y17500D02*
D03*
X-11100Y11800D02*
D03*
X-13600D02*
D03*
X600Y7400D02*
D03*
X2100Y7400D02*
D03*
X2600Y7400D02*
D03*
X4100Y15500D02*
D03*
Y9800D02*
D03*
X3600D02*
D03*
X9800D02*
D03*
X1600Y7400D02*
D03*
X4100Y5400D02*
D03*
X600Y17500D02*
D03*
Y11800D02*
D03*
X1600Y11800D02*
D03*
X2100D02*
D03*
X2600D02*
D03*
X8300Y9800D02*
D03*
X7300D02*
D03*
X6800Y11768D02*
D03*
X7800D02*
D03*
X8300D02*
D03*
X8800D02*
D03*
X4100Y17500D02*
D03*
X1100Y11800D02*
D03*
X2100Y17500D02*
D03*
X2600D02*
D03*
X600Y9800D02*
D03*
X3600Y15500D02*
D03*
X1100Y17500D02*
D03*
X1100Y9800D02*
D03*
X2100Y15500D02*
D03*
X1600D02*
D03*
Y9800D02*
D03*
X3600Y7400D02*
D03*
X3600Y11800D02*
D03*
X4100Y7400D02*
D03*
X3100Y11800D02*
D03*
X-12100Y11800D02*
D03*
X-11600Y11800D02*
D03*
X-11100Y9832D02*
D03*
X-12600D02*
D03*
X600Y15500D02*
D03*
X2100Y9800D02*
D03*
X3100Y7400D02*
D03*
X4100Y11800D02*
D03*
X-10600D02*
D03*
X-13600Y9832D02*
D03*
X-13100Y11800D02*
D03*
X-12100Y9832D02*
D03*
X2600Y5400D02*
D03*
X3100Y5400D02*
D03*
X1600Y5400D02*
D03*
X2100Y5400D02*
D03*
X2600Y9800D02*
D03*
X7800D02*
D03*
X9300D02*
D03*
X6800D02*
D03*
X9800Y11768D02*
D03*
X7300D02*
D03*
X3600Y5400D02*
D03*
X8800Y9800D02*
D03*
X-13100Y9832D02*
D03*
X-12600Y11800D02*
D03*
X-11600Y9832D02*
D03*
X600Y5400D02*
D03*
X1100Y7400D02*
D03*
Y5400D02*
D03*
X2600Y15500D02*
D03*
X3100Y17500D02*
D03*
Y15500D02*
D03*
X3600Y17500D02*
D03*
X3100Y9800D02*
D03*
X9300Y11768D02*
D03*
X22300Y15763D02*
D03*
X18300Y19700D02*
D03*
X17800D02*
D03*
X22300D02*
D03*
X19300Y15763D02*
D03*
X19800Y15763D02*
D03*
X20300D02*
D03*
X20800D02*
D03*
X20800Y19700D02*
D03*
X20300Y19700D02*
D03*
X19800D02*
D03*
X19300Y19700D02*
D03*
X21300Y15763D02*
D03*
X21800Y15763D02*
D03*
X18800Y15763D02*
D03*
X21800Y19700D02*
D03*
X17800Y15763D02*
D03*
X21300Y19700D02*
D03*
X18800D02*
D03*
D17*
X24275Y22900D02*
D03*
X-8025Y20800D02*
D03*
X-4975D02*
D03*
Y27900D02*
D03*
X-4225D02*
D03*
X-8775Y20800D02*
D03*
X-4225D02*
D03*
X-7200Y6100D02*
D03*
X-7950D02*
D03*
X-4225Y24900D02*
D03*
X-4975D02*
D03*
X23525Y22900D02*
D03*
D18*
X-7580Y5300D02*
D03*
X-8395Y21600D02*
D03*
X-4595Y28700D02*
D03*
Y21600D02*
D03*
Y25700D02*
D03*
X23895Y22100D02*
D03*
D19*
X22700Y13800D02*
D03*
X-12700Y23600D02*
D03*
X9500Y26400D02*
D03*
X23600Y13800D02*
D03*
X1900Y26600D02*
D03*
X8600Y26400D02*
D03*
X-11800Y23600D02*
D03*
X1000Y26600D02*
D03*
X-22400Y19300D02*
D03*
X-21500D02*
D03*
X-23700Y19300D02*
D03*
X-24600D02*
D03*
Y16000D02*
D03*
X-23700D02*
D03*
X1000Y25400D02*
D03*
X1900D02*
D03*
X28700Y13800D02*
D03*
X29600D02*
D03*
X29600Y15000D02*
D03*
X28700Y15000D02*
D03*
D20*
X-9450Y27081D02*
D03*
X-10950Y27081D02*
D03*
X-10450Y27081D02*
D03*
X-9950Y27081D02*
D03*
X-10950Y24719D02*
D03*
X-10450Y24719D02*
D03*
X-9950D02*
D03*
X-9450Y24719D02*
D03*
D21*
X-10200Y25900D02*
D03*
D22*
X-23600Y5300D02*
D03*
X-26600D02*
D03*
X-29600Y5300D02*
D03*
X-20600Y5300D02*
D03*
D23*
X-23100Y5000D02*
D03*
X-26100Y5600D02*
D03*
Y5000D02*
D03*
X-29100Y5000D02*
D03*
Y5600D02*
D03*
X-23100Y5600D02*
D03*
X-20100Y5000D02*
D03*
Y5600D02*
D03*
X-19600Y19600D02*
D03*
X-20200D02*
D03*
D24*
X-25600Y8500D02*
D03*
X-27600D02*
D03*
Y12000D02*
D03*
X-25600D02*
D03*
X-23600Y12000D02*
D03*
X-21600Y12000D02*
D03*
X-23600Y8500D02*
D03*
X-21600D02*
D03*
D25*
X-19900Y19100D02*
D03*
D26*
X-18200Y19600D02*
D03*
X-16000Y19600D02*
D03*
X-18200Y21600D02*
D03*
X-16000D02*
D03*
X-18200Y20600D02*
D03*
X-16000Y20600D02*
D03*
D27*
X-23400Y17600D02*
D03*
D28*
Y17000D02*
D03*
X-23400Y18200D02*
D03*
D29*
X30400Y26000D02*
Y26800D01*
Y25200D02*
Y26000D01*
Y20000D02*
Y25200D01*
X20200Y11600D02*
Y12800D01*
Y9800D02*
Y11600D01*
X18500Y24300D02*
Y29400D01*
X-28600Y26000D02*
X-27588Y26998D01*
X-26995Y27595D02*
X-26497Y28097D01*
X-27494Y27094D02*
X-26995Y27595D01*
X-26998Y27598D02*
X-26500Y28100D01*
X-27497Y27097D02*
X-26998Y27598D01*
X-28600Y20000D02*
Y26000D01*
X15400Y22900D02*
X18500D01*
X15400Y21500D02*
Y22900D01*
X-7600Y10200D02*
Y11100D01*
Y12000D01*
Y9300D02*
Y10200D01*
X21600Y13800D02*
Y14600D01*
Y13100D02*
Y13800D01*
X22900Y11800D02*
X23900D01*
X21600Y13100D02*
X22900Y11800D01*
X23900D02*
X24000D01*
X26100Y9700D02*
Y15700D01*
X30400Y20000D01*
X-1800Y8100D02*
X-600D01*
X-1900Y8000D02*
X-1800Y8100D01*
X-2700Y8000D02*
X-1900D01*
X-3000Y8300D02*
X-2700Y8000D01*
X-9200Y8300D02*
X-3000D01*
X-1700Y9500D02*
X-600D01*
X-1800Y9600D02*
X-1700Y9500D01*
X-2800Y9600D02*
X-1800D01*
X-3100Y9300D02*
X-2800Y9600D01*
X-7100Y9300D02*
X-3100D01*
X-7600D02*
X-7100D01*
X-9900D02*
X-7600D01*
X17800Y30100D02*
X18500Y29400D01*
Y22900D02*
Y23200D01*
X18800Y14200D02*
X20200Y12800D01*
X25300Y8900D02*
X26100Y9700D01*
X21100Y8900D02*
X25300D01*
X18293Y14693D02*
X18800Y14200D01*
X-18200Y1100D02*
Y9700D01*
X-7700Y14100D02*
Y16000D01*
Y13300D02*
Y14100D01*
X-15100Y21600D02*
X-13300D01*
X-8000Y16300D02*
X-7700Y16000D01*
X-13300Y21600D02*
X-8000Y16300D01*
X8600Y30100D02*
X17800D01*
X20200Y9800D02*
X21100Y8900D01*
X18500Y23200D02*
Y24300D01*
D30*
X18293Y14693D02*
X18300Y14700D01*
X-10200Y28800D02*
X-9800Y29200D01*
X-22800Y28800D02*
X-10200D01*
X-27100D02*
X-25996Y28796D01*
X-33000Y13000D02*
X-32400Y13000D01*
X-32000D02*
Y23900D01*
X-25996Y28796D02*
X-22800Y28800D01*
X-10800Y30700D02*
X-5300D01*
X16600Y22000D02*
Y22900D01*
X19200Y28600D02*
Y29800D01*
X18300Y30700D02*
X19200Y29800D01*
X-15800Y25200D02*
X-14700Y24100D01*
X-15800Y25200D02*
Y26000D01*
X-16800Y24600D02*
X-16000Y23800D01*
X-16800Y24600D02*
Y26000D01*
X-16400Y22800D02*
X-10500D01*
X16600Y20336D02*
X16633Y20302D01*
X16600Y20336D02*
Y21100D01*
X-10800Y30700D02*
X-5300D01*
X-11500Y30000D02*
X-10800Y30700D01*
X18300D01*
X21200Y28600D02*
X21200D01*
X29700Y9300D02*
X31200Y10800D01*
X29700Y7000D02*
Y9300D01*
X100Y8800D02*
X1800D01*
X-19900Y18400D02*
Y19100D01*
X8585Y23415D02*
Y26385D01*
X-10100Y6000D02*
X-10100Y6000D01*
X-10600D02*
X-10100D01*
X-12100Y7500D02*
X-10600Y6000D01*
X-12100Y7500D02*
Y9832D01*
X-13100Y6000D02*
X-13100Y6000D01*
Y7000D01*
X-13600Y7500D02*
X-13100Y7000D01*
X-13600Y7500D02*
Y9832D01*
X-16100Y6000D02*
X-16100Y6000D01*
Y8700D01*
X-14000Y10800D01*
X5400Y2400D02*
Y5000D01*
X5000Y2000D02*
X5400Y2400D01*
X4600Y2000D02*
X5000D01*
X600Y3000D02*
X600Y3000D01*
Y3700D01*
X1600Y4700D01*
Y5400D01*
X1600Y3000D02*
X1600Y3000D01*
Y3900D01*
X2100Y4400D01*
Y5400D01*
X2600Y3000D02*
Y5400D01*
X3600Y3000D02*
X3600Y3000D01*
Y3900D01*
X3100Y4400D02*
X3600Y3900D01*
X3100Y4400D02*
Y5400D01*
X4600Y3000D02*
Y3700D01*
X3600Y4700D02*
X4600Y3700D01*
X3600Y4700D02*
Y5400D01*
X2600Y9800D02*
X2600Y9800D01*
X2600Y9100D02*
Y9800D01*
Y9100D02*
X2900Y8800D01*
X4600D01*
X4890Y9050D01*
X6190D01*
X6900Y8500D01*
X7500D01*
X7800Y8800D01*
Y9800D01*
X4100D02*
X4600D01*
X8300Y10800D02*
X8800D01*
Y11768D01*
X8300Y10800D02*
Y11768D01*
X7300Y9800D02*
Y10800D01*
X8300Y9800D02*
Y10800D01*
X15400Y16500D02*
X16100Y16100D01*
X15400Y16500D02*
Y17000D01*
X15400Y17700D02*
X15400Y17000D01*
Y18600D02*
Y19400D01*
X-8600Y24200D02*
Y24600D01*
X-8300Y24900D01*
Y25000D01*
X22300Y15700D02*
X23700D01*
X22300D02*
Y15763D01*
X-8400Y21605D02*
X-8395Y21600D01*
X-10200Y25900D02*
X-7100D01*
X-11800Y23600D02*
X-11300D01*
X-10950Y23950D01*
Y24719D01*
X29600Y13800D02*
X32975D01*
X28700D02*
Y15000D01*
X21300Y19000D02*
X21300Y19700D01*
X21300Y19000D02*
X22100Y18200D01*
X22400Y17300D02*
X23600D01*
X21800Y19700D02*
Y20400D01*
X22000Y20600D01*
X23600D01*
X24100Y18200D02*
X24400Y18500D01*
Y21100D01*
X23900Y21600D02*
X24400Y21100D01*
X23895Y22100D02*
X23900Y21600D01*
X22100Y18200D02*
X24100D01*
X21800Y15700D02*
Y16700D01*
X22400Y17300D01*
X15400Y15400D02*
X16800D01*
X17163Y15763D01*
X17800D01*
X16000Y16200D02*
X16100Y16100D01*
X-17800Y24200D02*
Y26000D01*
Y24200D02*
X-16400Y22800D01*
X-10400Y14400D02*
X-9200D01*
X2100Y7400D02*
Y8200D01*
X-10600Y9832D02*
X-9768D01*
X-9600Y10000D01*
Y10400D01*
X4100Y5400D02*
X4400D01*
X4900Y5900D01*
X5400D01*
X-9600Y11300D02*
Y12100D01*
X1800Y8800D02*
X2100Y9100D01*
Y9800D01*
X300Y16400D02*
X600Y16700D01*
Y17500D01*
X-2300Y8800D02*
X100D01*
X1600Y6500D02*
Y7400D01*
X-12600Y9800D02*
Y10500D01*
X-12100Y11000D01*
Y11800D01*
X-11600Y11000D02*
X-11100Y10500D01*
X-11600Y11000D02*
Y11800D01*
X-12100Y11000D02*
X-11600D01*
X-14000Y10800D02*
X-13400D01*
X-13100Y11100D01*
Y11800D01*
X-9000Y12400D02*
X-8600Y12800D01*
Y14100D01*
X-8900Y14400D02*
X-8600Y14100D01*
X-9200Y14400D02*
X-8900D01*
X-9000Y10400D02*
Y12400D01*
X-9600Y10400D02*
X-8400D01*
X-11600Y14400D02*
Y15200D01*
X-10100Y2900D02*
Y5000D01*
X-10200Y5100D02*
X-10100Y5000D01*
X-10200Y5100D02*
X-10100D01*
X-13100Y3000D02*
Y5100D01*
X-16100Y3000D02*
Y5100D01*
X-20100Y3000D02*
Y5000D01*
X-23100Y3000D02*
Y5000D01*
X-26100Y3000D02*
Y5000D01*
X-29100Y3000D02*
Y5000D01*
X-27600Y8200D02*
Y8500D01*
X-26100Y5600D02*
Y6200D01*
X-25600Y6700D01*
Y8400D01*
X-23100Y5600D02*
Y6200D01*
X-23600Y6700D02*
X-23100Y6200D01*
X-23600Y6700D02*
Y8400D01*
X-20100Y5600D02*
Y6700D01*
X-21600Y8200D02*
X-20100Y6700D01*
X-21600Y8200D02*
Y8500D01*
X16107Y14693D02*
X18293D01*
X-30100Y5300D02*
X-29600D01*
X-30100Y5300D02*
X-30100Y5300D01*
X-27050Y5300D02*
X-26600D01*
X-27050Y5300D02*
X-27050Y5300D01*
X-24050D02*
X-23600D01*
X-24050Y5300D02*
X-24050Y5300D01*
X-21050D02*
X-20600D01*
X-21050Y5300D02*
X-21050Y5300D01*
X11200Y5900D02*
X11850D01*
X-6575Y3000D02*
Y3900D01*
X-6175Y4300D01*
Y5200D01*
X-7580Y2505D02*
Y5300D01*
Y2505D02*
X-7075Y2000D01*
X-6575D01*
X-6575Y2000D01*
X-7950Y6100D02*
Y6675D01*
X-11100Y9100D02*
Y10500D01*
Y9100D02*
X-10800Y8800D01*
X-2300D01*
X6800Y11200D02*
Y11768D01*
X23700Y15700D02*
X26200Y18200D01*
X29000Y21000D01*
X17100Y25200D02*
Y26000D01*
X-12850Y17300D02*
Y18100D01*
X6100Y12200D02*
Y12700D01*
X5800Y11900D02*
X6100Y12200D01*
X5800Y11200D02*
Y11900D01*
X7800Y10800D02*
Y11768D01*
X7300Y10800D02*
X8300D01*
X6100Y12200D02*
X6500Y11800D01*
X6800D01*
Y11200D02*
X7300Y10800D01*
X4600Y9800D02*
X5020Y10220D01*
Y10300D01*
X5800D01*
X-5300Y6100D02*
X-4100Y7300D01*
X-600Y12000D02*
X600D01*
X-400Y16400D02*
X300D01*
X-6175Y6100D02*
X-5300D01*
X-600Y11500D02*
Y12700D01*
X5400Y5900D02*
Y7200D01*
X-400Y15800D02*
Y17100D01*
X-32400Y13000D02*
X-32000D01*
X-29100Y5600D02*
Y6700D01*
X-27600Y8200D01*
X-31000Y12100D02*
X-30300D01*
X-32000Y13000D02*
X-31000D01*
X17100Y24300D02*
X18500D01*
X-32000Y23900D02*
X-27100Y28800D01*
X-9800Y29200D02*
X-1600D01*
Y25500D02*
Y27600D01*
D31*
X18300Y14700D02*
Y15763D01*
Y14693D02*
Y14700D01*
X-13600Y23600D02*
X-12700D01*
X22300Y19700D02*
X23600D01*
X-11100Y11800D02*
Y12500D01*
X-11000Y12600D01*
Y13500D01*
X-10600Y11800D02*
Y12100D01*
X-10100Y12600D01*
X-9500D01*
X-9200Y12900D01*
Y13500D01*
X-19600Y19600D02*
X-19000D01*
X-20600D02*
X-20200D01*
X-20900Y19300D02*
X-20600Y19600D01*
X-21500Y19300D02*
X-20900D01*
X-21500Y19300D02*
X-21500Y19300D01*
X-23400Y18200D02*
Y18500D01*
X-23100Y18800D01*
Y19300D01*
X-23400Y16900D02*
Y17000D01*
X-23700Y16600D02*
X-23400Y16900D01*
X-23700Y16000D02*
Y16600D01*
D32*
X18875Y11600D02*
X20200D01*
X-19400Y21600D02*
X-18200D01*
X-19800Y22000D02*
X-19400Y21600D01*
X-19800Y22000D02*
Y22400D01*
Y23300D02*
Y26000D01*
X-14200Y15900D02*
Y18700D01*
Y14400D02*
X-12800D01*
X-14200Y13600D02*
Y15000D01*
X-12800Y13500D02*
X-10400D01*
X-23700Y19300D02*
X-23700Y19300D01*
X-24600Y18100D02*
Y19300D01*
Y16000D02*
Y17200D01*
X-23700Y19300D02*
X-22400D01*
X-23700Y16000D02*
X-23600Y15900D01*
X-26600Y7500D02*
Y9800D01*
X-24600Y7500D02*
Y9800D01*
X-22600Y7500D02*
Y9800D01*
D33*
X15800Y7400D02*
X16800D01*
X19700Y9000D02*
X20600Y8100D01*
X25100D01*
X15600Y8400D02*
X19300D01*
X1600Y18400D02*
X7700D01*
X8270Y18970D01*
Y19912D01*
X7950Y19250D02*
Y19907D01*
X7600Y18900D02*
X7950Y19250D01*
X-1000Y18900D02*
X7600D01*
X7950Y19907D02*
X7955Y19912D01*
X1100Y14200D02*
X3200D01*
X3600Y14600D01*
Y15500D01*
X15650Y26450D02*
Y26850D01*
X-17400Y29400D02*
X-10600D01*
X-17800D02*
X-17400D01*
X-10600D02*
X-10200Y29800D01*
X-4100Y26600D02*
X-1600D01*
X-4595Y28800D02*
Y28905D01*
X-4200Y28000D02*
X-3400D01*
X-4975Y27900D02*
X-4900Y28000D01*
X15000Y25800D02*
X15650Y26450D01*
X13100Y23900D02*
X15000Y25800D01*
X15200Y26450D02*
X15200Y27950D01*
X14200Y25900D02*
Y26650D01*
X12600Y24300D02*
X14200Y25900D01*
X12500Y23750D02*
X15200Y26450D01*
X13100Y19400D02*
Y23900D01*
X11350Y23750D02*
X12500D01*
X13800Y23400D02*
X15000Y24600D01*
X13800Y10200D02*
Y23400D01*
X13500Y23700D02*
X14600Y24800D01*
X13500Y9705D02*
Y23700D01*
X14100Y23200D02*
X15400Y24500D01*
X14100Y10800D02*
Y23200D01*
X12229Y22471D02*
X12800Y21900D01*
X11144Y22471D02*
X12229D01*
X12800Y19600D02*
Y21900D01*
X12900Y19200D02*
X13100Y19400D01*
X12900Y18600D02*
Y19200D01*
X9000Y16300D02*
X10000Y17300D01*
X4500Y11800D02*
X9000Y16300D01*
X9200Y16100D01*
Y15600D02*
Y15700D01*
X9800Y17700D02*
X10400D01*
X3600Y10800D02*
Y12400D01*
X10400Y15600D02*
Y15800D01*
Y16500D01*
Y16900D01*
X4900Y12800D02*
X9800Y17700D01*
X10400D02*
X12500Y19800D01*
X11500Y19900D02*
X11900Y20300D01*
Y21000D01*
X16200Y26650D02*
Y27900D01*
X15200Y27950D02*
Y28600D01*
X14200Y27950D02*
Y28600D01*
X13800Y27550D02*
X14200Y27950D01*
X-10200Y29800D02*
X-1400D01*
X-14600Y12600D02*
X-14200Y12200D01*
Y11400D02*
Y12200D01*
X-14400Y11200D02*
Y12400D01*
X-14300Y11300D02*
Y12300D01*
X-14600Y11000D02*
Y12600D01*
X-14500Y11100D02*
Y12500D01*
X-14700Y10900D02*
Y12700D01*
X-15000Y13000D02*
X-14600Y12600D01*
X-20890Y12800D02*
X-14800D01*
X-20890Y12900D02*
X-14900D01*
X-14800Y10800D02*
Y12800D01*
X-20890Y12000D02*
X-14200D01*
X-14900Y10700D02*
Y12900D01*
X-20890Y11900D02*
X-14200D01*
X-20890Y11800D02*
X-14200D01*
X-20890Y11700D02*
X-14200D01*
X-20890Y11600D02*
X-14200D01*
X-20890Y11500D02*
X-14200D01*
X-20890Y11400D02*
X-14200D01*
X-20890Y11300D02*
X-14300D01*
X-20890Y11200D02*
X-14400D01*
X-20890Y11100D02*
X-14500D01*
X-20900Y11000D02*
X-14600D01*
X-20900Y10900D02*
X-14700D01*
X-20900Y10800D02*
X-14800D01*
X-20900Y10700D02*
X-14900D01*
X-15400Y18600D02*
X-15000Y18200D01*
Y13000D02*
Y18200D01*
X-15200Y10400D02*
Y18400D01*
X-15100Y10500D02*
Y18300D01*
X-15400Y10200D02*
Y18600D01*
X-15300Y10300D02*
Y18500D01*
X-15500Y10100D02*
Y18600D01*
X-15600Y10000D02*
Y18600D01*
X-15700Y9900D02*
Y18600D01*
X-20900Y13000D02*
Y18600D01*
X-15800Y9800D02*
Y18600D01*
X-15900Y9700D02*
Y18600D01*
X-16000Y9600D02*
Y18600D01*
X-15000Y10600D02*
Y13000D01*
X-20900Y10600D02*
X-15000D01*
X-20890Y11040D02*
Y12960D01*
X-20900Y10500D02*
X-15100D01*
X-20900Y10400D02*
X-15200D01*
X-20900Y10300D02*
X-15300D01*
X-20900Y10200D02*
X-15400D01*
X-20900Y10100D02*
X-15500D01*
X-20900Y10000D02*
X-15600D01*
X-20900Y9900D02*
X-15700D01*
X-20900Y9800D02*
X-15800D01*
X-20900Y9700D02*
X-15900D01*
X-20900Y9600D02*
X-16000D01*
X-16100Y9500D02*
Y18600D01*
X-16200Y9400D02*
Y18600D01*
X-16300Y9400D02*
Y18600D01*
X-16400Y9400D02*
Y18600D01*
X-16500Y9400D02*
Y18600D01*
X-16600Y9400D02*
Y18600D01*
X-16700Y9400D02*
Y18600D01*
X-16800Y9400D02*
Y18600D01*
X-16900Y9400D02*
Y18600D01*
X-17000Y9400D02*
Y18600D01*
X-17100Y9400D02*
Y18600D01*
X-17200Y9400D02*
Y18600D01*
X-17300Y9400D02*
Y18600D01*
X-17400Y9400D02*
Y18600D01*
X-16200Y9400D02*
X-14200Y11400D01*
X-17500Y9400D02*
Y18600D01*
X-17600Y9400D02*
Y18600D01*
X-17700Y9400D02*
Y18600D01*
X-17800Y9400D02*
Y18600D01*
X-17900Y9400D02*
Y18600D01*
X-18000Y9400D02*
Y18600D01*
X-20900Y9500D02*
X-16100D01*
X-18100Y9400D02*
Y18600D01*
X-18200Y9400D02*
Y18600D01*
X-20900Y9400D02*
X-16200D01*
X-18300D02*
Y18600D01*
X-18400Y9400D02*
Y18600D01*
X-18500Y9400D02*
Y18600D01*
X-18600Y9400D02*
Y18600D01*
X-18700Y9400D02*
Y18600D01*
X-18800Y9400D02*
Y18600D01*
X-18900Y9400D02*
Y18600D01*
X-19000Y9400D02*
Y18600D01*
X-19100Y9400D02*
Y18600D01*
X-19200Y9400D02*
Y18600D01*
X-19300Y9400D02*
Y18600D01*
X-19400Y9400D02*
Y18600D01*
X-19500Y9400D02*
Y18600D01*
X-19600Y9400D02*
Y18600D01*
X-19700Y9400D02*
Y18600D01*
X-19800Y9400D02*
Y18600D01*
X-19900Y9400D02*
Y18600D01*
X-20000Y9400D02*
Y18600D01*
X-20100Y9400D02*
Y18600D01*
X-20200Y9400D02*
Y18600D01*
X-20300Y9400D02*
Y18600D01*
X-20400Y9400D02*
Y18600D01*
X-20500Y9400D02*
Y18600D01*
X-20600Y9400D02*
Y18600D01*
X-20700Y9400D02*
Y18600D01*
X-20800Y9400D02*
Y18600D01*
X-20900Y9400D02*
Y11040D01*
X-21500Y18200D02*
X-15000D01*
X-21500Y18100D02*
X-15000D01*
X-21500Y18000D02*
X-15000D01*
X-21500Y17900D02*
X-15000D01*
X-21500Y17800D02*
X-15000D01*
X-21500Y17700D02*
X-15000D01*
X-21500Y17600D02*
X-15000D01*
X-21500Y17500D02*
X-15000D01*
X-21500Y17400D02*
X-15000D01*
X-21500Y17300D02*
X-15000D01*
X-21500Y17200D02*
X-15000D01*
X-21500Y17100D02*
X-15000D01*
X-21500Y17000D02*
X-15000D01*
X-22600Y16900D02*
X-15000D01*
X-22600Y16800D02*
X-15000D01*
X-22600Y16700D02*
X-15000D01*
X-22600Y16600D02*
X-15000D01*
X-22600Y16500D02*
X-15000D01*
X-22600Y16400D02*
X-15000D01*
X-22600Y16300D02*
X-15000D01*
X-22600Y16200D02*
X-15000D01*
X-22600Y16100D02*
X-15000D01*
X-22600Y16000D02*
X-15000D01*
X-22600Y15900D02*
X-15000D01*
X-22600Y15800D02*
X-15000D01*
X-22600Y15700D02*
X-15000D01*
X-21500Y18200D02*
Y18600D01*
X-21600Y18200D02*
Y18600D01*
X-21700Y18200D02*
Y18600D01*
X-21800Y18200D02*
Y18600D01*
X-21900Y18200D02*
Y18600D01*
X-22000Y18200D02*
Y18600D01*
X-22100Y18200D02*
Y18600D01*
X-22600D02*
X-15400D01*
X-22200Y18200D02*
Y18600D01*
X-22300Y18200D02*
Y18600D01*
X-22400Y18200D02*
Y18600D01*
X-22500Y18200D02*
Y18600D01*
X-22600Y18200D02*
Y18600D01*
Y18400D02*
X-15200D01*
X-22600Y18300D02*
X-15100D01*
X-22600Y18200D02*
Y18600D01*
Y18500D02*
X-15300D01*
X-22600Y18200D02*
X-21500D01*
Y17000D02*
Y18200D01*
Y17000D02*
Y18200D01*
X-22600D02*
X-21500D01*
X-22600Y15600D02*
X-15000D01*
X-22600Y17000D02*
X-21500D01*
X-22600Y15500D02*
X-15000D01*
X-22600Y15400D02*
X-15000D01*
X-22600Y15300D02*
X-15000D01*
X-22600Y15200D02*
X-15000D01*
X-22600Y15100D02*
X-15000D01*
X-22600Y15000D02*
X-15000D01*
X-22600Y14900D02*
X-15000D01*
X-22600Y14800D02*
X-15000D01*
X-22600Y14700D02*
X-15000D01*
X-22600Y14600D02*
X-15000D01*
X-22600Y14500D02*
X-15000D01*
X-22600Y14400D02*
X-15000D01*
X-22600Y14300D02*
X-15000D01*
X-22600Y14200D02*
X-15000D01*
X-22600Y14100D02*
X-15000D01*
X-22600Y14000D02*
X-15000D01*
X-20890Y12500D02*
X-14500D01*
X-20890Y12400D02*
X-14400D01*
X-20890Y12700D02*
X-14700D01*
X-20890Y12600D02*
X-14600D01*
X-20890Y12200D02*
X-14200D01*
X-20890Y12100D02*
X-14200D01*
X-20890Y12300D02*
X-14300D01*
X-22600Y13900D02*
X-15000D01*
X-22600Y13800D02*
X-15000D01*
X-22600Y13700D02*
X-15000D01*
X-22600Y13600D02*
X-15000D01*
X-22600Y13500D02*
X-15000D01*
X-22600Y13400D02*
X-15000D01*
X-21000Y13000D02*
Y18600D01*
X-21100Y13000D02*
Y18600D01*
X-21200Y13000D02*
Y18600D01*
X-21300Y13000D02*
Y18600D01*
X-21400Y13000D02*
Y18600D01*
X-21500Y13000D02*
Y17000D01*
X-21600Y13000D02*
Y17000D01*
X-21700Y13000D02*
Y17000D01*
X-21800Y13000D02*
Y17000D01*
X-21900Y13000D02*
Y17000D01*
X-22000Y13000D02*
Y17000D01*
X-22100Y13000D02*
Y17000D01*
X-22200Y13000D02*
Y17000D01*
X-22300Y13000D02*
Y17000D01*
X-22400Y13000D02*
Y17000D01*
X-22500Y13000D02*
Y17000D01*
X-22600Y13000D02*
Y17000D01*
Y13300D02*
X-15000D01*
X-22600Y13200D02*
X-15000D01*
X-22600Y13100D02*
X-15000D01*
X-22600Y13000D02*
X-15000D01*
X-22600D02*
X-20900D01*
X-22600D02*
Y17000D01*
X-20900Y12960D02*
Y13450D01*
X-21000Y12960D02*
Y13450D01*
X-21100Y12960D02*
Y13450D01*
X-21200Y12960D02*
Y13450D01*
X-21300Y12960D02*
Y13450D01*
X-21400Y12960D02*
Y13450D01*
X-21500Y12960D02*
Y13450D01*
X-21600Y12960D02*
Y13450D01*
X-22200D02*
X-20800D01*
X-21700Y12960D02*
Y13450D01*
X-21800Y12960D02*
Y13450D01*
X-22600Y13050D02*
X-22200Y13450D01*
X-21900Y12960D02*
Y13450D01*
X-22000Y12960D02*
Y13450D01*
X-22100Y12960D02*
Y13450D01*
X-22200Y12960D02*
Y13450D01*
X-22250Y13400D02*
X-20800D01*
X-22350Y13300D02*
X-20800D01*
X-22300Y12960D02*
Y13350D01*
X-22450Y13200D02*
X-20800D01*
X-22310Y12960D02*
X-20890D01*
X-22550Y13100D02*
X-20800D01*
X-22600Y13000D02*
X-20800D01*
X-22600Y12900D02*
X-22310D01*
X-22600Y12800D02*
X-22310D01*
X-22600Y12700D02*
X-22310D01*
X-22600Y12600D02*
X-22310D01*
X-22600Y12500D02*
X-22310D01*
X-24890Y12900D02*
X-24600D01*
X-22600Y12400D02*
X-22310D01*
X-24900Y12960D02*
Y13350D01*
X-24890Y12800D02*
X-24600D01*
X-22600Y12300D02*
X-22310D01*
X-22600Y12200D02*
X-22310D01*
X-22600Y12100D02*
X-22310D01*
X-22600Y12000D02*
X-22310D01*
X-24890Y12700D02*
X-24600D01*
X-24890Y12600D02*
X-24600D01*
X-25000Y12960D02*
Y13450D01*
X-24890Y12500D02*
X-24600D01*
X-24890Y12400D02*
X-24600D01*
X-24890Y12300D02*
X-24600D01*
X-24890Y12200D02*
X-24600D01*
X-24890Y12100D02*
X-24600D01*
X-22600Y11900D02*
X-22310D01*
X-22600Y11800D02*
X-22310D01*
X-24890Y12000D02*
X-24600D01*
X-22600Y11700D02*
X-22310D01*
X-22600Y11600D02*
X-22310D01*
X-22600Y11500D02*
X-22310D01*
X-22600Y11400D02*
X-22310D01*
X-22600Y11300D02*
X-22310D01*
X-24890Y11900D02*
X-24600D01*
X-24890Y11800D02*
X-24600D01*
X-24890Y11700D02*
X-24600D01*
X-24890Y11600D02*
X-24600D01*
X-24890Y11500D02*
X-24600D01*
X-24890Y11400D02*
X-24600D01*
X-24890Y11300D02*
X-24600D01*
X-20800Y9450D02*
Y13450D01*
X-20890Y11040D02*
Y12960D01*
X-20900Y9460D02*
Y11040D01*
X-21000Y9460D02*
Y11040D01*
X-21100Y9460D02*
Y11040D01*
X-21200Y9460D02*
Y11040D01*
X-21300Y9460D02*
Y11040D01*
X-22600Y11200D02*
X-22310D01*
Y11040D02*
X-20890D01*
X-22310D02*
Y12960D01*
X-22600Y11100D02*
X-22310D01*
X-22400Y9450D02*
Y13250D01*
X-22500Y9450D02*
Y13150D01*
X-22600Y11050D02*
Y13050D01*
Y11050D02*
Y13050D01*
X-21400Y9460D02*
Y11040D01*
X-21500Y9460D02*
Y11040D01*
X-21600Y9460D02*
Y11040D01*
X-21700Y9460D02*
Y11040D01*
X-21800Y9460D02*
Y11040D01*
X-21900Y9460D02*
Y11040D01*
X-22000Y9460D02*
Y11040D01*
X-22100Y9460D02*
Y11040D01*
X-22200Y9460D02*
Y11040D01*
X-22310Y9460D02*
X-20890D01*
X-22300D02*
Y11040D01*
X-22890Y11050D02*
X-22600D01*
Y9450D02*
Y11050D01*
X-22890Y9450D02*
X-22310D01*
X-22700D02*
Y11050D01*
X-22800Y9450D02*
Y11050D01*
X-22900Y9460D02*
Y11040D01*
X-23000Y9460D02*
Y11040D01*
X-23100Y9460D02*
Y11040D01*
X-23200Y9460D02*
Y11040D01*
X-23300Y9460D02*
Y11040D01*
X-23400Y9460D02*
Y11040D01*
X-23500Y9460D02*
Y11040D01*
X-24890Y11200D02*
X-24600D01*
X-24310Y11040D02*
X-22890D01*
X-24600Y11050D02*
Y13050D01*
X-24890Y11100D02*
X-24600D01*
X-24700Y9450D02*
Y13150D01*
X-23600Y9460D02*
Y11040D01*
X-24800Y9450D02*
Y13250D01*
X-24890Y11040D02*
Y12960D01*
X-23700Y9460D02*
Y11040D01*
X-23800Y9460D02*
Y11040D01*
X-23900Y9460D02*
Y11040D01*
X-24000Y9460D02*
Y11040D01*
X-24100Y9460D02*
Y11040D01*
X-24310Y9460D02*
X-22890D01*
X-24200D02*
Y11040D01*
X-24300Y9460D02*
Y11040D01*
X-24600Y11050D02*
X-24310D01*
X-24400Y9450D02*
Y11050D01*
X-24500Y9450D02*
Y11050D01*
X-24600Y9450D02*
Y11050D01*
X-24900Y9460D02*
Y11040D01*
X-24890Y9450D02*
X-24310D01*
X-25000Y9460D02*
Y11040D01*
X-25000Y13450D02*
X-24600Y13050D01*
X-25100Y12960D02*
Y13450D01*
X-25200Y12960D02*
Y13450D01*
X-25300Y12960D02*
Y13450D01*
X-25400Y12960D02*
Y13450D01*
X-25500Y12960D02*
Y13450D01*
X-25600Y12960D02*
Y13450D01*
X-25700Y12960D02*
Y13450D01*
X-28400D02*
X-25000D01*
X-28400Y13400D02*
X-24950D01*
X-25800Y12960D02*
Y13450D01*
X-25900Y12960D02*
Y13450D01*
X-26000Y12960D02*
Y13450D01*
X-26100Y12960D02*
Y13450D01*
X-26200Y12960D02*
Y13450D01*
X-26300Y12960D02*
Y13450D01*
X-26310Y12960D02*
X-24890D01*
X-26890Y12900D02*
X-26310D01*
X-26890Y12800D02*
X-26310D01*
X-26890Y12700D02*
X-26310D01*
X-26890Y12600D02*
X-26310D01*
X-28400Y13100D02*
X-24650D01*
X-28400Y13000D02*
X-24600D01*
X-28400Y13300D02*
X-24850D01*
X-28400Y13200D02*
X-24750D01*
X-26890Y12500D02*
X-26310D01*
X-26890Y12400D02*
X-26310D01*
X-26890Y12300D02*
X-26310D01*
X-26900Y12960D02*
Y13450D01*
X-27000Y12960D02*
Y13450D01*
X-27100Y12960D02*
Y13450D01*
X-27200Y12960D02*
Y13450D01*
X-27300Y12960D02*
Y13450D01*
X-27400Y12960D02*
Y13450D01*
X-27500Y12960D02*
Y13450D01*
X-27600Y12960D02*
Y13450D01*
X-27700Y12960D02*
Y13450D01*
X-27800Y12960D02*
Y13450D01*
X-27900Y12960D02*
Y13450D01*
X-28000Y12960D02*
Y13450D01*
X-28100Y12960D02*
Y13450D01*
X-28310Y12960D02*
X-26890D01*
X-28200D02*
Y13450D01*
X-28300Y12960D02*
Y13450D01*
X-26890Y12200D02*
X-26310D01*
X-26890Y12100D02*
X-26310D01*
X-26890Y12000D02*
X-26310D01*
X-26890Y11900D02*
X-26310D01*
X-26890Y11800D02*
X-26310D01*
X-26890Y11700D02*
X-26310D01*
X-26890Y11600D02*
X-26310D01*
X-26890Y11500D02*
X-26310D01*
X-26890Y11400D02*
X-26310D01*
X-26890Y11300D02*
X-26310D01*
X-26890Y11200D02*
X-26310D01*
X-26890Y11100D02*
X-26310D01*
X-25100Y9460D02*
Y11040D01*
X-25200Y9460D02*
Y11040D01*
X-25300Y9460D02*
Y11040D01*
X-25400Y9460D02*
Y11040D01*
X-25500Y9460D02*
Y11040D01*
X-25600Y9460D02*
Y11040D01*
X-25700Y9460D02*
Y11040D01*
X-28400Y11000D02*
X-20800D01*
X-28400Y10900D02*
X-20800D01*
X-26310Y11040D02*
X-24890D01*
X-25800Y9460D02*
Y11040D01*
X-25900Y9460D02*
Y11040D01*
X-26000Y9460D02*
Y11040D01*
X-26100Y9460D02*
Y11040D01*
X-26200Y9460D02*
Y11040D01*
X-28400Y10800D02*
X-20800D01*
X-28400Y10700D02*
X-20800D01*
X-28400Y10600D02*
X-20800D01*
X-28400Y10500D02*
X-20800D01*
X-28400Y10400D02*
X-20800D01*
X-28400Y10300D02*
X-20800D01*
X-28400Y10200D02*
X-20800D01*
X-26310Y9460D02*
X-24890D01*
X-28400Y10100D02*
X-20800D01*
X-28400Y10000D02*
X-20800D01*
X-28400Y9900D02*
X-20800D01*
X-28400Y9800D02*
X-20800D01*
X-28400Y9700D02*
X-20800D01*
X-28400Y9600D02*
X-20800D01*
X-28400Y9500D02*
X-20800D01*
X-26310Y11040D02*
Y12960D01*
X-26300Y9460D02*
Y11040D01*
X-26400Y9450D02*
Y13450D01*
X-26890Y11040D02*
Y12960D01*
X-26500Y9450D02*
Y13450D01*
X-26600Y9450D02*
Y13450D01*
X-26700Y9450D02*
Y13450D01*
X-26800Y9450D02*
Y13450D01*
X-28310Y11040D02*
X-26890D01*
X-26900Y9460D02*
Y11040D01*
X-28310D02*
Y12960D01*
X-28400Y9450D02*
Y13450D01*
X-27000Y9460D02*
Y11040D01*
X-28400Y9400D02*
Y13450D01*
X-27100Y9460D02*
Y11040D01*
X-26890Y9450D02*
X-26310D01*
X-27200Y9460D02*
Y11040D01*
X-27300Y9460D02*
Y11040D01*
X-27400Y9460D02*
Y11040D01*
X-27500Y9460D02*
Y11040D01*
X-27600Y9460D02*
Y11040D01*
X-27700Y9460D02*
Y11040D01*
X-27800Y9460D02*
Y11040D01*
X-27900Y9460D02*
Y11040D01*
X-28000Y9460D02*
Y11040D01*
X-28100Y9460D02*
Y11040D01*
X-28200Y9460D02*
Y11040D01*
X-28310Y9460D02*
X-26890D01*
X-28300D02*
Y11040D01*
X6656Y22156D02*
X6850Y22150D01*
X4800Y24100D02*
X5800Y23100D01*
X-3300Y27200D02*
X-2600D01*
X14600Y23200D02*
X16200Y24800D01*
X15400Y24500D02*
Y25600D01*
X15000Y24600D02*
Y25200D01*
X14600Y22800D02*
Y23200D01*
X11300Y22800D02*
X12600D01*
X11286Y22786D02*
X11300Y22800D01*
X11144Y22786D02*
X11286D01*
X11700Y21200D02*
X11900Y21000D01*
X11144Y23731D02*
X11350Y23750D01*
X8585Y26385D02*
X8600Y26400D01*
X2000Y26700D02*
Y28600D01*
X-1400Y29800D02*
X-200Y28600D01*
X-1300Y28100D02*
X-800Y27600D01*
X-3300Y28100D02*
X-1300D01*
X12200Y20000D02*
Y21500D01*
X10300Y18100D02*
X12200Y20000D01*
X12500Y19800D02*
Y21700D01*
X10500Y17300D02*
X12800Y19600D01*
X25100Y8100D02*
X25800Y7400D01*
X15900Y9000D02*
X19700D01*
X14100Y10800D02*
X15900Y9000D01*
X19300Y8400D02*
X20305Y7400D01*
X21300Y7405D01*
X13800Y10200D02*
X15600Y8400D01*
X13500Y9705D02*
X15800Y7400D01*
X11859Y21841D02*
X12200Y21500D01*
X11144Y21841D02*
X11859D01*
X11144Y22156D02*
X12044D01*
X12500Y21700D01*
X4400Y27200D02*
X5000Y27800D01*
Y28600D01*
X8900Y19912D02*
Y20900D01*
X11300Y21200D02*
X11700D01*
X11144Y21211D02*
X11300Y21200D01*
X9500Y25600D02*
Y26400D01*
X8900Y25000D02*
X9500Y25600D01*
X8900Y24400D02*
Y25000D01*
X11000Y24800D02*
X12500D01*
X7100Y25100D02*
X7325Y24775D01*
Y24400D02*
Y24775D01*
X10600Y25200D02*
X12900D01*
X7500Y25400D02*
Y25500D01*
Y25400D02*
X7640Y25260D01*
Y24400D02*
Y25260D01*
X11000Y25600D02*
X13300D01*
X7300Y26000D02*
X7600D01*
X7955Y25645D01*
Y24400D02*
Y25645D01*
X10160Y25460D02*
X10700Y26000D01*
X10160Y24400D02*
Y25460D01*
X8585Y28585D02*
X8600Y28600D01*
X7700Y26400D02*
X8270Y25830D01*
Y24400D02*
Y25830D01*
X6650Y26800D02*
X7300D01*
X5200Y25400D02*
X6650Y26800D01*
X10500Y24300D02*
X12600D01*
X10475Y24400D02*
X10500Y24300D01*
Y26800D02*
X12800D01*
X13800Y26300D02*
Y27550D01*
X2800Y25400D02*
X3550D01*
X2500D02*
X3550D01*
X1900D02*
X2500D01*
X11000Y26400D02*
X13300D01*
X16200Y27900D02*
Y28600D01*
X10475Y24400D02*
X10475Y24400D01*
X10475Y24400D02*
X10475Y24400D01*
X1000Y24500D02*
Y28500D01*
Y24500D02*
X3659Y21841D01*
X4000Y23200D02*
X5100Y22150D01*
X4000Y28600D02*
X4000Y23200D01*
X-200Y25000D02*
X3274Y21526D01*
X-800Y24900D02*
X2889Y21211D01*
X-1600Y25000D02*
X2504Y20896D01*
X16200Y28600D02*
X16200Y28600D01*
X10475Y24400D02*
Y24475D01*
X13500Y26000D02*
X13800Y26300D01*
X10700Y26000D02*
X13500D01*
X1900Y26600D02*
X2000Y26700D01*
X1000Y28500D02*
Y28600D01*
X6655Y23100D02*
X6656Y23101D01*
X5800Y23100D02*
X6655D01*
X4800Y24100D02*
Y26200D01*
X6200Y27600D01*
X4400Y23700D02*
Y27200D01*
X-200Y25000D02*
Y28600D01*
X-800Y24900D02*
Y27600D01*
X6645Y21200D02*
X6656Y21211D01*
X7237Y20000D02*
X7325Y19912D01*
X-1100Y23700D02*
X1500Y21100D01*
X-3300Y25000D02*
X-1600D01*
X6652Y20900D02*
X6656Y20896D01*
X-3300Y20600D02*
X-3281Y20581D01*
X-8610Y23700D02*
X-8210D01*
X-4900D01*
X-10200D02*
X-8610D01*
X-9100Y28000D02*
X-8300Y27200D01*
X-4600Y21605D02*
X-4595Y21600D01*
X-4600Y21605D02*
Y21900D01*
X-4300Y22200D01*
X-2600D01*
X-4600Y26100D02*
X-4100Y26600D01*
X-4595Y25700D02*
Y25805D01*
X-4600Y26100D02*
X-4595Y25805D01*
Y28700D02*
Y28905D01*
X-5900Y27200D02*
X-5220D01*
X-5900Y25900D02*
Y27200D01*
X-7825Y20600D02*
X-7100D01*
X-8025Y20800D02*
X-7825Y20600D01*
X-8400Y21605D02*
Y22200D01*
X-8000Y22600D01*
Y23200D01*
X-10000Y28000D02*
X-9100D01*
X-8300Y27200D02*
X-7500D01*
X-7100D01*
Y28100D02*
X-5900D01*
X-5800Y28000D01*
X-4900D01*
X-4225Y27900D02*
X-4200Y28000D01*
X-3400D02*
X-3300Y28100D01*
X-7100Y25000D02*
X-5900D01*
X-5800Y24900D01*
X-4975D01*
X-4225D02*
X-3400D01*
X-3300Y25000D01*
X-5000Y20800D02*
X-4975D01*
X-5700Y21500D02*
X-5000Y20800D01*
X-7100Y21500D02*
X-5700D01*
X-4225Y20800D02*
X-4200D01*
X-4000Y20600D01*
X-3300D01*
X-10450Y23950D02*
Y24719D01*
Y23950D02*
X-10200Y23700D01*
X4100Y11800D02*
X4500D01*
X3600Y12400D02*
X4000Y12800D01*
X4900D01*
X3100Y11800D02*
Y12400D01*
X10150Y19250D02*
Y19900D01*
X7900Y17000D02*
X9700Y18800D01*
X-3281Y20581D02*
X6656D01*
X2504Y20896D02*
X6656D01*
X2889Y21211D02*
X6656D01*
X3274Y21526D02*
X6656D01*
X3659Y21841D02*
X6656D01*
X5100Y22150D02*
X6850D01*
X5600Y22500D02*
X6500D01*
X4400Y23700D02*
X5600Y22500D01*
X1500Y20000D02*
X7237D01*
X-400Y18000D02*
X0Y18400D01*
X1600D01*
Y17500D02*
Y18400D01*
X10000Y17300D02*
X10500D01*
X9600Y18100D02*
X10300D01*
X7300Y15800D02*
X9600Y18100D01*
X9700Y18800D02*
X10150Y19250D01*
X5200Y17000D02*
X7900D01*
X3100Y12400D02*
X3900Y13200D01*
X4700D01*
X7300Y15800D01*
X6500Y22500D02*
X6656Y22471D01*
X9100Y27600D02*
X9600Y28100D01*
Y28600D01*
X6200Y27600D02*
X9100D01*
X9500Y26400D02*
Y27100D01*
X9900Y27500D01*
X9215Y19315D02*
Y19912D01*
X-3300Y21500D02*
X-2600D01*
X-5900Y19800D02*
Y20600D01*
X-3300Y25900D02*
X-2600D01*
X-4600Y15300D02*
X-1000Y18900D01*
X-4600Y13300D02*
Y15300D01*
X16200Y24800D02*
Y25600D01*
X7200Y20450D02*
Y23850D01*
Y20450D02*
Y23850D01*
X7300Y20450D02*
Y23850D01*
X7400Y20450D02*
Y23850D01*
X7200Y20450D02*
X10600D01*
X7500D02*
Y23850D01*
X7600Y20450D02*
Y23850D01*
X7700Y20450D02*
Y23850D01*
X7800Y20450D02*
Y23850D01*
X7900Y20450D02*
Y23850D01*
X8000Y20450D02*
Y23850D01*
X8100Y20450D02*
Y23850D01*
X8200Y20450D02*
Y23850D01*
X8300Y20450D02*
Y23850D01*
X8400Y20450D02*
Y23850D01*
X8500Y20450D02*
Y23850D01*
X7200D02*
X10600D01*
X8600Y20450D02*
Y23850D01*
X8700Y20450D02*
Y23850D01*
X8800Y20450D02*
Y23850D01*
X8900Y20450D02*
Y23850D01*
X9000Y20450D02*
Y23850D01*
X9100Y20450D02*
Y23850D01*
X9200Y20450D02*
Y23850D01*
X9300Y20450D02*
Y23850D01*
X9400Y20450D02*
Y23850D01*
X9500Y20450D02*
Y23850D01*
X9600Y20450D02*
Y23850D01*
X9700Y20450D02*
Y23850D01*
X9800Y20450D02*
Y23850D01*
X9900Y20450D02*
Y23850D01*
X10000Y20450D02*
Y23850D01*
X10100Y20450D02*
Y23850D01*
X10200Y20450D02*
Y23850D01*
X10300Y20450D02*
Y23850D01*
X10400Y20450D02*
Y23850D01*
X10500Y20450D02*
Y23850D01*
X10600Y20450D02*
Y23850D01*
X-13800Y24600D02*
Y27390D01*
Y24600D02*
Y27390D01*
X-13700Y24600D02*
Y27390D01*
X-13600Y24600D02*
Y27390D01*
X-13800Y24600D02*
X-11420D01*
X-13500D02*
Y27390D01*
X-13400Y24600D02*
Y27390D01*
X-13300Y24600D02*
Y27390D01*
X-13200Y24600D02*
Y27390D01*
X-13100Y24600D02*
Y27390D01*
X-13000Y24600D02*
Y27390D01*
X-12900Y24600D02*
Y27390D01*
X-12800Y24600D02*
Y27390D01*
X-12700Y24600D02*
Y27390D01*
X-12600Y24600D02*
Y27390D01*
X-13800D02*
X-11420D01*
X-12500Y24600D02*
Y27390D01*
X-12400Y24600D02*
Y27390D01*
X-12300Y24600D02*
Y27390D01*
X-12200Y24600D02*
Y27390D01*
X-12100Y24600D02*
Y27390D01*
X-12000Y24600D02*
Y27390D01*
X-11900Y24600D02*
Y27390D01*
X-11800Y24600D02*
Y27390D01*
X-11700Y24600D02*
Y27390D01*
X-11600Y24600D02*
Y27390D01*
X-11500Y24600D02*
Y27390D01*
X-11420Y24600D02*
Y25479D01*
X-11400D02*
Y26321D01*
X-11420D02*
Y27390D01*
X-11300Y25479D02*
Y26321D01*
X-11420Y25479D02*
X-11166D01*
X-11420Y26321D02*
X-11166D01*
X-11200Y25479D02*
Y26321D01*
X-11166Y25479D02*
Y26321D01*
X-4000Y22800D02*
X-3300Y22800D01*
X-4900Y23700D02*
X-4000Y22800D01*
X-3300Y23700D02*
X-1100D01*
X9200Y15700D02*
Y16100D01*
X-4600Y29200D02*
X-4595Y28800D01*
X-2600Y22200D02*
X-1600Y23200D01*
D34*
X21675Y22900D02*
X22900D01*
X-1200Y12700D02*
X-600D01*
X-28600Y19000D02*
X-28600Y15200D01*
X8600Y28600D02*
Y30100D01*
X10400Y14000D02*
X12900D01*
X9200D02*
X10400D01*
X12900Y9100D02*
Y16800D01*
X7300Y14000D02*
X9200D01*
X1600Y12700D02*
X2600D01*
X12900Y9100D02*
X15000Y7000D01*
X-27000Y15200D02*
X-26500Y14700D01*
X-26150D01*
X21600Y13800D02*
X22700D01*
X21800Y14900D02*
Y15763D01*
X21300Y14900D02*
X21600Y14600D01*
X21300Y14900D02*
Y15763D01*
X23600Y13800D02*
Y14600D01*
X-28600Y13600D02*
X-28200Y13200D01*
X-28600Y13600D02*
Y14300D01*
X-27400Y13200D02*
Y14300D01*
X-14500Y11800D02*
X-13600D01*
X-22300Y17600D02*
X-21100D01*
X16800Y1400D02*
Y1405D01*
X16795Y1400D02*
X16800Y1405D01*
X16795Y1400D02*
X16800Y1405D01*
X15000Y3200D02*
X16800Y1405D01*
X15000Y3200D02*
Y7000D01*
X14600Y16800D02*
Y20700D01*
X15400Y21500D01*
X0Y29200D02*
X900Y30100D01*
X2000Y28600D02*
Y30100D01*
X14600Y11300D02*
Y11900D01*
Y11600D02*
X15725D01*
X8800Y9800D02*
X8800Y9800D01*
X8800Y8200D02*
Y9800D01*
Y5900D02*
X10000D01*
X8800Y5000D02*
X11200D01*
X10000Y3000D02*
Y5000D01*
X25800Y7400D02*
X27420Y5800D01*
X27400Y3005D02*
X27420Y5800D01*
X21300Y7405D02*
X22900Y5800D01*
Y4300D02*
Y5800D01*
Y3000D02*
Y4300D01*
X16800Y7405D02*
X18400Y5800D01*
Y3000D02*
Y5800D01*
X17800Y21200D02*
X18525Y21925D01*
X18500Y22900D02*
X18525Y21925D01*
X17800Y19700D02*
Y21200D01*
X20800Y15763D02*
X20800Y15763D01*
Y19700D01*
X20300Y15763D02*
X20300Y15763D01*
X20300Y15763D02*
Y19700D01*
X19800Y15763D02*
X19800Y15763D01*
X19800Y15763D02*
Y19700D01*
X19300Y19700D02*
X19300Y19700D01*
X19300Y15763D02*
Y19700D01*
X-10500Y28000D02*
X-10450Y27950D01*
X-11000Y28000D02*
X-10950Y27950D01*
X21600Y14600D02*
X21800Y14900D01*
X-10450Y27081D02*
Y27950D01*
X-9950Y27081D02*
Y27950D01*
X-10000Y28000D02*
X-9950Y27950D01*
X-10950Y27081D02*
Y27950D01*
X-16000Y19600D02*
X-14200D01*
X-19000D02*
X-18200D01*
X-23600Y12000D02*
Y13800D01*
Y14700D02*
Y15900D01*
X-24800Y14700D02*
X-23600D01*
X-600Y11200D02*
Y11500D01*
X600Y11700D02*
Y12000D01*
X-8400Y12200D02*
X-7900Y12700D01*
X-8400Y11300D02*
Y12200D01*
X-600Y12700D02*
X-200Y13100D01*
X1100D01*
X1500Y12700D01*
X-1200Y16100D02*
X-900Y16400D01*
X-1200Y12700D02*
Y16100D01*
X6100Y12700D02*
X7300Y14000D01*
X-16000Y21600D02*
X-15100D01*
X-22300Y16800D02*
Y18400D01*
X8800Y5900D02*
Y7300D01*
X-4100D02*
X-3300Y6500D01*
X-4100Y10400D02*
Y12700D01*
X-900Y16400D02*
X-400D01*
X-7900Y12700D02*
X-1200D01*
X-3300Y6500D02*
X5400D01*
X-28600Y15200D02*
X-27000D01*
X900Y30100D02*
X8600D01*
D35*
X22900Y22900D02*
X23525D01*
X29600Y15000D02*
X29600Y15000D01*
X29600Y15000D02*
Y15800D01*
X-9800Y20800D02*
X-9200D01*
X-10300Y7700D02*
X-4600D01*
X-11600Y9000D02*
X-10300Y7700D01*
X4600Y16100D02*
X6500D01*
X4100Y16600D02*
Y17500D01*
X-400Y14250D02*
Y14900D01*
X-13200Y30000D02*
X-12000Y31200D01*
X18700D01*
X-33000Y24500D02*
X-27500Y30000D01*
X-33000Y14000D02*
Y24500D01*
X19800Y27600D02*
Y30100D01*
X-27500Y30000D02*
X-26000D01*
X-13200D01*
X18700Y31200D02*
X19800Y30100D01*
X19300Y27120D02*
X19800Y27600D01*
X12500Y17700D02*
X12900D01*
X10400Y14000D02*
Y14700D01*
X9200Y14000D02*
Y14700D01*
X2100Y11800D02*
Y12700D01*
X12100Y18200D02*
X12500Y17700D01*
X-21600Y12000D02*
Y12900D01*
Y12000D02*
X-20950D01*
X-21600D02*
X-20950D01*
X-21600D02*
Y12900D01*
X-22250Y12000D02*
X-21600D01*
Y11100D02*
Y12000D01*
X-25600D02*
Y12900D01*
Y12000D02*
X-24950D01*
X-26250D02*
X-25600D01*
X-27600D02*
X-26950D01*
X-27600D02*
Y12900D01*
X-28250Y12000D02*
X-27600D01*
X-25600Y11100D02*
Y12000D01*
X-27600Y11100D02*
Y12000D01*
X24275Y22900D02*
X24300Y23000D01*
X22500Y25600D02*
X24300Y23800D01*
X20200Y25600D02*
X22500D01*
X20400Y22100D02*
Y24600D01*
X5400Y8100D02*
X6100D01*
X9800Y11768D02*
Y12500D01*
X6800Y9800D02*
Y10600D01*
X9300Y10500D02*
X9600Y10800D01*
X9300Y9800D02*
Y10500D01*
X19700Y25300D02*
Y26500D01*
X19900Y22200D02*
Y24500D01*
X18800Y20500D02*
X20400Y22100D01*
X18800Y19700D02*
Y20500D01*
X18300Y20600D02*
X19900Y22200D01*
X18300Y19700D02*
Y20600D01*
X-600Y9500D02*
Y10300D01*
X-500Y14150D02*
X-400Y14250D01*
X4100Y14700D02*
Y15500D01*
X2100Y7400D02*
X2100Y7400D01*
X2600D01*
X600Y8200D02*
X600Y8200D01*
Y7400D02*
Y8200D01*
X3600Y9800D02*
X4100D01*
X9800Y9000D02*
Y9800D01*
X-9800Y20800D02*
Y21400D01*
X-9200Y20800D02*
X-8775D01*
X-10500Y22800D02*
X-9800Y22100D01*
Y21400D02*
Y22100D01*
X9500Y12800D02*
X9800Y12500D01*
X3100Y7400D02*
Y8000D01*
X2900Y8200D02*
X3100Y8000D01*
X3600Y7400D02*
Y8100D01*
X3500Y8200D02*
X3600Y8100D01*
X4100Y7400D02*
Y8200D01*
X3500Y10700D02*
X3600Y10800D01*
X3100Y11100D02*
Y11800D01*
X4200Y11100D02*
X4500D01*
X4100Y11200D02*
X4200Y11100D01*
X4100Y11200D02*
Y11800D01*
X1600D02*
Y12700D01*
X1100Y9800D02*
X1100Y10400D01*
X1000Y10700D02*
X1100Y10700D01*
X1100Y16700D02*
Y17500D01*
X1600Y9800D02*
Y10700D01*
Y14700D02*
Y15500D01*
X2100D01*
X600Y9800D02*
Y10400D01*
X500Y10900D02*
X700Y11100D01*
X1800D01*
X2200Y10800D01*
X2100Y16700D02*
Y17500D01*
X2600D01*
X1100Y11800D02*
Y12400D01*
X900Y12600D02*
X1100Y12400D01*
X600Y12600D02*
X900D01*
X5200Y14500D02*
Y16100D01*
X4100Y16600D02*
X4600Y16100D01*
X1100Y16050D02*
X1600Y16550D01*
X1100Y15400D02*
Y16050D01*
X1600Y16550D02*
Y17500D01*
X-400Y18000D02*
Y18000D01*
X600Y14700D02*
Y15500D01*
X2600Y11800D02*
Y12700D01*
X-13100Y10500D02*
X-12600Y11000D01*
X-13100Y9800D02*
Y10500D01*
X-11600Y9800D02*
Y10400D01*
X-11800Y10600D02*
X-11600Y10400D01*
X-12400Y12600D02*
X-11800D01*
X-12600Y12400D02*
X-12400Y12600D01*
X-12600Y11000D02*
Y12400D01*
X600Y13700D02*
X4400D01*
X5200Y14500D01*
X7300Y11768D02*
Y12500D01*
X7600Y12800D01*
X9500D01*
X-4600Y9900D02*
Y12100D01*
X-11600Y9000D02*
Y9832D01*
X19300Y25100D02*
Y26000D01*
X500Y10900D02*
X600Y10400D01*
X1100Y10700D02*
X1100Y10400D01*
X-7200Y6100D02*
Y7700D01*
X15400Y18600D02*
X15800D01*
X15400D02*
Y19050D01*
X-11106Y25900D02*
X-10200D01*
X19300Y25100D02*
X19900Y24500D01*
X19700Y25300D02*
X20400Y24600D01*
X24300Y23000D02*
Y23800D01*
X-29800Y15200D02*
X-28600D01*
X-29800Y13500D02*
Y14300D01*
Y11700D02*
Y13500D01*
X-32100Y9400D02*
X-29800Y11700D01*
X-32100Y3000D02*
Y9400D01*
X-35700Y2000D02*
Y2400D01*
Y2200D01*
X-35100D01*
X-35700Y2900D02*
Y2700D01*
X-35600Y2600D01*
X-35200D01*
X-35100Y2700D01*
Y2900D01*
X-35200Y3000D01*
X-35600D01*
X-35700Y2900D01*
X-35100Y3200D02*
X-35700D01*
Y3500D01*
X-35600Y3599D01*
X-35400D01*
X-35300Y3500D01*
Y3200D01*
D36*
X-14800Y28000D02*
X-10000D01*
X-15800Y27000D02*
X-14800Y28000D01*
X-22800Y17600D02*
X-22300D01*
X-22000D01*
X28200Y11800D02*
X32975D01*
X31200Y10800D02*
Y12800D01*
D37*
X-12000Y25900D02*
X-10100D01*
D38*
X-4100Y7300D02*
D03*
D03*
D39*
X-35400Y9500D02*
D03*
D40*
X25800Y7400D02*
D03*
Y1400D02*
D03*
X21300Y7400D02*
D03*
Y1400D02*
D03*
X16800Y7400D02*
D03*
Y1400D02*
D03*
D41*
X32000Y5000D02*
D03*
X-28600Y20000D02*
D03*
X18400Y3000D02*
D03*
X22900D02*
D03*
X27400Y3005D02*
D03*
X24000Y11800D02*
D03*
X28200D02*
D03*
X4600Y3000D02*
D03*
X14200Y28600D02*
D03*
X1000D02*
D03*
X-33000Y14000D02*
D03*
X29000Y21000D02*
D03*
X-13100Y3000D02*
D03*
X-10100D02*
D03*
X-32100D02*
D03*
X-16100D02*
D03*
X10000D02*
D03*
X-6575D02*
D03*
X-20100D02*
D03*
X-23100D02*
D03*
X-26100D02*
D03*
X-29100D02*
D03*
X-19800Y26000D02*
D03*
X8600Y28600D02*
D03*
X-25000Y25000D02*
D03*
X11500Y12200D02*
D03*
X-6000Y16000D02*
D03*
D42*
X32000Y4000D02*
D03*
X-28600Y19000D02*
D03*
X9600Y28600D02*
D03*
X1600Y2000D02*
D03*
X2600Y2000D02*
D03*
X3600Y2000D02*
D03*
X4600D02*
D03*
X600Y2000D02*
D03*
X2600Y3000D02*
D03*
X3600D02*
D03*
X600Y3000D02*
D03*
X1600D02*
D03*
X-33000Y11000D02*
D03*
X-33000Y13000D02*
D03*
X-33000Y12000D02*
D03*
X-10100Y2000D02*
D03*
X-13100D02*
D03*
X17200Y28600D02*
D03*
X-32100Y2000D02*
D03*
X15200Y28600D02*
D03*
X16200Y28600D02*
D03*
X-16100Y2000D02*
D03*
X10000D02*
D03*
X-6575D02*
D03*
X-20100D02*
D03*
X-23100D02*
D03*
X-26100D02*
D03*
X-29100D02*
D03*
X-17800Y26000D02*
D03*
X-15800D02*
D03*
X-16800Y26000D02*
D03*
X-15800Y27000D02*
D03*
X-19800D02*
D03*
X-18800Y26000D02*
D03*
Y27000D02*
D03*
X-16800D02*
D03*
X-17800Y27000D02*
D03*
X10600Y28600D02*
D03*
X6000D02*
D03*
X2000D02*
D03*
X3000Y28600D02*
D03*
X4000D02*
D03*
X5000Y28600D02*
D03*
X18400Y2000D02*
D03*
X22900D02*
D03*
X27400Y2005D02*
D03*
X-25000Y26000D02*
D03*
X11500Y11200D02*
D03*
X-6000Y15000D02*
D03*
D43*
X-9800Y20800D02*
D03*
X6500Y16100D02*
D03*
X-11500Y30000D02*
D03*
X-14700Y24100D02*
D03*
X-16000Y23800D02*
D03*
X16107Y14693D02*
D03*
X15000Y7000D02*
D03*
X29700D02*
D03*
X-8300Y27200D02*
D03*
X24000Y9831D02*
D03*
X28200Y9832D02*
D03*
X15400Y15400D02*
D03*
X16100Y16100D02*
D03*
X27031Y21000D02*
D03*
X-14200Y13600D02*
D03*
X-2300Y8800D02*
D03*
D44*
X32975Y15800D02*
D03*
X31200Y16800D02*
D03*
Y14800D02*
D03*
Y12800D02*
D03*
X32975Y11800D02*
D03*
X31200Y10800D02*
D03*
X32975Y13800D02*
D03*
Y9800D02*
D03*
X31200Y8800D02*
D03*
D45*
X-2500Y2500D02*
D03*
X38100Y27900D02*
D03*
X-38100D02*
D03*
D46*
X25880Y28600D02*
D03*
X24320Y28600D02*
D03*
X22760D02*
D03*
X29000Y28600D02*
D03*
X27440Y28600D02*
D03*
X21200Y28600D02*
D03*
D47*
X22900Y22900D02*
D03*
X29600Y15800D02*
D03*
X-27000Y27600D02*
D03*
X-27500Y27100D02*
D03*
X-26500Y28100D02*
D03*
X-30300Y12100D02*
D03*
X-7600Y11100D02*
D03*
Y10200D02*
D03*
Y12000D02*
D03*
X23600Y14600D02*
D03*
X30400Y26000D02*
D03*
Y25200D02*
D03*
Y26800D02*
D03*
X-20500Y13200D02*
D03*
X-21400Y13300D02*
D03*
X-20400Y12200D02*
D03*
Y11500D02*
D03*
X-25600Y13200D02*
D03*
X-27400D02*
D03*
X-28100D02*
D03*
X-20800Y10800D02*
D03*
X-22600D02*
D03*
X-24600D02*
D03*
X-26600D02*
D03*
X-28100D02*
D03*
Y9700D02*
D03*
X-7600Y8300D02*
D03*
X-8400D02*
D03*
X-2980Y9300D02*
D03*
X-1500Y9500D02*
D03*
X-2300Y9600D02*
D03*
X-600Y8100D02*
D03*
X-1500D02*
D03*
X-2300Y8000D02*
D03*
X-3000Y8300D02*
D03*
X-5200D02*
D03*
X-6000D02*
D03*
X-6800D02*
D03*
X-9200D02*
D03*
X-9900Y9300D02*
D03*
X-9200D02*
D03*
X-8400D02*
D03*
X-7600D02*
D03*
X-6800D02*
D03*
X-6000D02*
D03*
X-5200D02*
D03*
X-1600Y25500D02*
D03*
X-2600Y27200D02*
D03*
X12900Y16800D02*
D03*
X14600D02*
D03*
X15400Y22900D02*
D03*
Y22200D02*
D03*
X9700Y23400D02*
D03*
X10200D02*
D03*
X0Y29200D02*
D03*
X14600Y11900D02*
D03*
Y11300D02*
D03*
X15400Y19400D02*
D03*
X-600Y9500D02*
D03*
X-500Y14150D02*
D03*
X4100Y14700D02*
D03*
X5020Y10300D02*
D03*
X6100Y8100D02*
D03*
X2100Y8200D02*
D03*
X600D02*
D03*
X9800Y9000D02*
D03*
X-8600Y24200D02*
D03*
X-1600Y23200D02*
D03*
Y27600D02*
D03*
Y29200D02*
D03*
X-5220Y27200D02*
D03*
X-8000Y23200D02*
D03*
X-13600Y23600D02*
D03*
X22800Y19700D02*
D03*
X2600Y12700D02*
D03*
X6100D02*
D03*
X-9600Y12100D02*
D03*
X-11600Y15200D02*
D03*
X9900Y27500D02*
D03*
X-13300Y27000D02*
D03*
Y26300D02*
D03*
Y25600D02*
D03*
Y24900D02*
D03*
X-12600D02*
D03*
Y25600D02*
D03*
Y26300D02*
D03*
Y27000D02*
D03*
X-11900D02*
D03*
Y24900D02*
D03*
X9215Y19315D02*
D03*
X-2600Y21500D02*
D03*
X-5900Y19800D02*
D03*
X-2600Y25900D02*
D03*
X-15100Y21600D02*
D03*
X-30100Y5300D02*
D03*
X-27050D02*
D03*
X-24050D02*
D03*
X-21050D02*
D03*
X11850Y5900D02*
D03*
X-26600Y7500D02*
D03*
X-24600D02*
D03*
X-22600D02*
D03*
X-26600Y9700D02*
D03*
X-24600D02*
D03*
X-22600D02*
D03*
X-7700Y14800D02*
D03*
Y15600D02*
D03*
X-8063Y16363D02*
D03*
X-8700Y17000D02*
D03*
X-9398Y17698D02*
D03*
X-10100Y18400D02*
D03*
X-10800Y19100D02*
D03*
X-11500Y19800D02*
D03*
X-12200Y20500D02*
D03*
X-12801Y21101D02*
D03*
X-13300Y21600D02*
D03*
X-14200D02*
D03*
X-18200Y1100D02*
D03*
Y2000D02*
D03*
D03*
D03*
Y3800D02*
D03*
D03*
Y2000D02*
D03*
Y2900D02*
D03*
Y4700D02*
D03*
Y5600D02*
D03*
Y6500D02*
D03*
Y7400D02*
D03*
Y8300D02*
D03*
Y9100D02*
D03*
X-7950Y6675D02*
D03*
X-7700Y13300D02*
D03*
Y14000D02*
D03*
X-12850Y18100D02*
D03*
X-4100Y10400D02*
D03*
Y7300D02*
D03*
D48*
X1100Y14200D02*
D03*
X-17800Y29400D02*
D03*
X19300Y27120D02*
D03*
X15650Y26850D02*
D03*
X12100Y18200D02*
D03*
X19200Y28600D02*
D03*
X11500Y19900D02*
D03*
X17100Y26000D02*
D03*
D49*
X20200Y25600D02*
D03*
X16200D02*
D03*
X14600Y22800D02*
D03*
X12600D02*
D03*
X6800Y10600D02*
D03*
X9600Y10800D02*
D03*
X10400Y16900D02*
D03*
X10100Y17700D02*
D03*
X14600Y24800D02*
D03*
X12500D02*
D03*
X11000D02*
D03*
X7100Y25100D02*
D03*
X15000Y25200D02*
D03*
X12900D02*
D03*
X10600D02*
D03*
X7500Y25500D02*
D03*
X15400Y25600D02*
D03*
X13300D02*
D03*
X11000D02*
D03*
X7300Y26000D02*
D03*
X19700Y26500D02*
D03*
X12800Y26800D02*
D03*
X10500D02*
D03*
X7300D02*
D03*
X5200Y25400D02*
D03*
X3550D02*
D03*
X19300Y26000D02*
D03*
X13300Y26400D02*
D03*
X16200Y26650D02*
D03*
X14200D02*
D03*
X7700Y26400D02*
D03*
X11000D02*
D03*
X1500Y21100D02*
D03*
Y20000D02*
D03*
X2900Y8200D02*
D03*
X3500D02*
D03*
X4100D02*
D03*
X3500Y10700D02*
D03*
X3100Y11100D02*
D03*
X4500D02*
D03*
X1000Y10700D02*
D03*
X1100Y16700D02*
D03*
X1600Y10700D02*
D03*
Y14700D02*
D03*
X2200Y10800D02*
D03*
X2100Y16700D02*
D03*
X600Y12600D02*
D03*
Y13700D02*
D03*
Y14700D02*
D03*
X100Y8800D02*
D03*
X-11800Y10600D02*
D03*
Y12600D02*
D03*
X-4600Y13300D02*
D03*
Y12100D02*
D03*
Y9900D02*
D03*
Y7700D02*
D03*
D50*
X-14750Y12250D02*
D03*
Y11250D02*
D03*
X-15750Y10250D02*
D03*
X-15250Y10750D02*
D03*
X-20750Y9750D02*
D03*
X-20000D02*
D03*
X-19250D02*
D03*
X-18500D02*
D03*
X-17750D02*
D03*
X-17000D02*
D03*
X-16250D02*
D03*
X-15250Y12750D02*
D03*
Y13500D02*
D03*
Y14250D02*
D03*
Y15000D02*
D03*
Y15750D02*
D03*
Y16500D02*
D03*
Y17250D02*
D03*
Y18000D02*
D03*
X-16000Y18250D02*
D03*
X-16750D02*
D03*
X-17500D02*
D03*
X-18250D02*
D03*
X-19000D02*
D03*
X-19750D02*
D03*
X-20500D02*
D03*
X-21500Y16500D02*
D03*
X-22250Y13500D02*
D03*
Y14250D02*
D03*
Y15000D02*
D03*
Y15750D02*
D03*
Y16500D02*
D03*
X-21250Y18250D02*
D03*
X21000Y18500D02*
D03*
Y17750D02*
D03*
X18000D02*
D03*
X21000Y17000D02*
D03*
X20250D02*
D03*
X19500D02*
D03*
X18750D02*
D03*
X18000D02*
D03*
Y18500D02*
D03*
X18750D02*
D03*
X19500D02*
D03*
X20250D02*
D03*
D51*
X-10200Y25900D02*
D03*
M02*
